<?xml version="1.0" encoding="utf-8"?>
<!-- Generator: Adobe Illustrator 21.1.0, SVG Export Plug-In . SVG Version: 6.00 Build 0)  -->
<svg version="1.1" id="Layer_4" xmlns="http://www.w3.org/2000/svg" xmlns:xlink="http://www.w3.org/1999/xlink" x="0px" y="0px"
	 viewBox="0 0 749.7 114" style="enable-background:new 0 0 749.7 114;" xml:space="preserve">
<style type="text/css">
	.st0{fill-rule:evenodd;clip-rule:evenodd;fill:none;}
	.st1{fill-rule:evenodd;clip-rule:evenodd;fill:#FFFFFF;}
	.st2{fill:#FFFFFF;}
</style>
<g>
	<g>
		<path class="st0" d="M50.9,64.5c0.2,0.1,0.4,0.2,0.4,0.2S51.1,64.7,50.9,64.5z"/>
		<path class="st0" d="M65.1,54.8c-0.1-0.1-0.2-0.1-0.2-0.1S65,54.7,65.1,54.8z"/>
		<path class="st0" d="M79.8,59.4c0.1-0.1,0.3-0.3,0.6-0.5C80,59.2,79.8,59.4,79.8,59.4z"/>
		<path class="st1" d="M35.1,48.7l0.2-0.1v0c0.1-0.1,0.2-0.1,0.2,0.2c0,0.4,0.2,0.7,0.2,1c0,0.2,0.1,0.6,0.1,0.6s0.3-0.2,0.5-0.3
			c0.2-0.1,0.6,0.1,1.1,0c0.5-0.1,1-0.4,1.2-0.5c0.2-0.1,0.6-0.1,0.6-0.1s0-0.2-0.2-0.3c-0.1-0.1,0-0.2,0-0.2s0-0.1,0.1-0.2
			c0-0.1,0.7-0.3,0.6-0.9c0,0-0.5,0.1-0.6-0.1c0-0.1,0-0.1,0-0.1s0.1-0.2,0.2-0.3c0.1-0.1,0.1-0.8,0.1-0.8s-0.2,0.2-0.7,0.3
			c-0.4,0.1-0.4-0.4-1.5,0.2c-1.1,0.6-1.8,0.7-1.9,0.9c-0.2,0.2-0.5,0.4-0.5,0.4C34.6,48.5,34.9,48.7,35.1,48.7z"/>
		<path class="st0" d="M60.2,67.7c0-0.2,0-0.4,0-0.4S60.2,67.5,60.2,67.7z"/>
		<path class="st0" d="M83.2,64.1c-0.2,0.1-0.2,0.2-0.2,0.2S83.1,64.2,83.2,64.1z"/>
		<path class="st0" d="M39.5,44.3c0.5,0.2,0,1.7,0,1.7s0.8-0.6,1.2-1.4c0.4-0.8-0.3-1.9-1.2-1.9c-1.2,0.1-1.6,1.8-1.6,1.8
			C38.4,44,39.1,44.1,39.5,44.3z"/>
		<path class="st0" d="M36.9,44c0,0,0.2-1.3-0.3-1.4c-0.4-0.1-0.5,1.3-0.5,1.3C36.7,43.8,36.9,44,36.9,44z"/>
		<path class="st0" d="M50.3,66.3c0.8-0.1,1.4-0.3,1.4-0.3S51,66.1,50.3,66.3z"/>
		<path class="st0" d="M34.4,73.4c0,0,0-0.9-0.4-1c0,0-0.4,0.1-0.5,1.1C33.5,73.4,33.9,73.3,34.4,73.4z"/>
		<path class="st0" d="M32.7,73.9c0,0-0.6-1.5-1.7-1.6c0,0-1.6,0.1-0.9,1.7c0,0,0.1,0.3,0.6,0.8c0,0,0.8,0.7,0.6,0.1
			c-0.2-0.6-0.8-1.2-0.3-1.5c0.5-0.3,0.8-0.1,1.1,0.1C32.1,73.6,32.5,73.8,32.7,73.9z"/>
		<path class="st0" d="M38.4,73.4c0,0,0.1-1.1-0.3-1.2c-0.4,0-0.4,1.1-0.4,1.1C38.2,73.3,38.4,73.4,38.4,73.4z"/>
		<path class="st0" d="M40.8,73.7c0.4,0.2,0,1.5,0,1.5s0.8-0.5,1.1-1.2c0.3-0.7-0.2-1.7-1-1.6c-1.1,0.1-1.5,1.6-1.5,1.6
			C39.7,73.4,40.4,73.5,40.8,73.7z"/>
		<path class="st0" d="M38.7,84L38.7,84C38.7,84,38.7,84,38.7,84L38.7,84z"/>
		<path class="st1" d="M40.4,78.2c0,0,0-0.2-0.2-0.3c-0.1,0,0-0.2,0-0.2s0-0.1,0.1-0.2c0-0.1,0.6-0.3,0.6-0.8c0,0-0.5,0.1-0.5-0.1
			c0-0.1,0-0.1,0-0.1s0.1-0.1,0.2-0.3c0.1-0.1,0.1-0.7,0.1-0.7s-0.2,0.2-0.6,0.3c-0.4,0.1-0.4-0.4-1.3,0.2c-0.9,0.5-1.6,0.6-1.7,0.8
			c-0.2,0.2-0.4,0.4-0.4,0.4c-0.2,0.1,0,0.3,0.2,0.3l0.2-0.1v0c0.1,0,0.2-0.1,0.2,0.2c0,0.4,0.2,0.6,0.2,0.8c0,0.2,0.1,0.5,0.1,0.5
			s0.2-0.2,0.4-0.2c0.2-0.1,0.6,0,1,0c0.5-0.1,0.9-0.4,1.1-0.4C40.1,78.2,40.4,78.2,40.4,78.2z"/>
		<path class="st0" d="M36,72c-0.6,0.2-0.5,1.4-0.5,1.4c0.6-0.2,1.1,0,1.1,0C36.5,71.9,36,72,36,72z"/>
		<path class="st1" d="M35.8,77.1c-0.4-0.2-0.4-0.3-0.5-0.4c-0.2-0.1-0.6-0.1-1.5-0.7c-0.9-0.6-1-0.1-1.4-0.2
			c-0.4-0.1-0.7-0.4-0.7-0.4s0,0.5,0.2,0.9c0.1,0.1,0.2,0.3,0.2,0.3s0.1,0.1,0.1,0.1c0,0.3-0.6-0.2-0.6-0.2c-0.1,0.5,0.5,0.9,0.6,1
			c0,0.1,0.2,0.2,0.2,0.2s0,0.2-0.1,0.2c-0.1,0.1-0.4,0.2-0.4,0.2s0.6,0,0.8,0c0.2,0,0.6,0.3,1,0.4c0.5,0.1,0.8-0.2,1-0.1
			c0.2,0.1,0.4,0.1,0.4,0.1s0.1,0,0.1-0.2c0-0.2,0.1-0.4,0.2-0.8c0.1-0.3,0.1-0.2,0.4-0.2C36,77.3,36.1,77.2,35.8,77.1z"/>
		<path class="st0" d="M29.1,45.8c-0.2-0.7-0.8-1.4-0.3-1.8c0.5-0.3,0.9-0.1,1.2,0.2c0,0,0.4,0.3,0.6,0.4c0,0-0.7-1.7-1.9-1.8
			c0,0-1.7,0.1-1,2c0,0,0.1,0.3,0.7,0.9C28.4,45.7,29.3,46.5,29.1,45.8z"/>
		<path class="st0" d="M27,14.6c0.6-0.3,0.9-0.1,1.2,0.2c0,0,0.4,0.3,0.6,0.4c0,0-0.7-1.8-2-1.9c0,0-1.8,0.1-1,2.1
			c0,0,0.1,0.3,0.7,1c0,0,1,0.8,0.7,0.1C27.1,15.8,26.4,15,27,14.6z"/>
		<path class="st0" d="M30.8,14.5c0,0,0-1.1-0.4-1.2c0,0-0.5,0.1-0.5,1.3C29.8,14.6,30.3,14.4,30.8,14.5z"/>
		<path class="st0" d="M34.9,44c-0.1-1.7-0.7-1.6-0.7-1.6c-0.6,0.2-0.6,1.6-0.6,1.6C34.3,43.8,34.9,44,34.9,44z"/>
		<path class="st1" d="M32.5,19C32,18.7,32,18.6,32,18.5c-0.2-0.1-0.7-0.1-1.8-0.8c-1-0.7-1.1-0.1-1.6-0.2c-0.4-0.1-0.8-0.6-0.8-0.6
			s-0.1,0.6,0.3,1.1c0.1,0.1,0.2,0.3,0.2,0.3s0.1,0.1,0.1,0.2c0,0.3-0.7-0.2-0.7-0.2c-0.1,0.6,0.6,1.1,0.6,1.2
			c0.1,0.1,0.2,0.2,0.2,0.2s-0.1,0.2-0.1,0.3c-0.1,0.1-0.5,0.3-0.5,0.3s0.7,0,0.9,0.1c0.2,0.1,0.7,0.4,1.2,0.5
			c0.5,0.1,0.9-0.2,1.1-0.1c0.2,0.1,0.5,0.1,0.5,0.1s0.1,0,0.1-0.2c0-0.2,0.1-0.5,0.2-1c0.1-0.4,0.2-0.3,0.5-0.3
			C32.7,19.3,32.8,19.1,32.5,19z"/>
		<path class="st0" d="M32.7,12.8c-0.7,0.2-0.6,1.7-0.6,1.7c0.7-0.2,1.3,0,1.3,0C33.3,12.8,32.7,12.8,32.7,12.8z"/>
		<path class="st1" d="M1,1.8v66.2c0,26.4,21.3,47.8,47.7,47.8s47.7-21.4,47.7-47.8V1.8H1z M75.4,90.2c0,0,1.4,0.4,1.3,1.8
			c0,0-0.9,0.8-2.8,0.4l0.1,0.1c1.4,1.1,0.9,1.6,0.9,1.6c-0.6,1.5-2.4,0.6-2.4,0.6c0.6,1.9-0.7,2.9-0.7,2.9
			c-0.2,0.1-0.4,0.1-0.4,0.1c-1.1,0-0.4,1.2-0.4,1.2c-1-0.7-0.8-1.6-0.8-1.6c-1.1-0.9,0-2.5,0-2.7c0-0.2-0.2-0.2-0.2-0.2
			c-0.8,1.1-0.5,2.3-0.5,2.3c-0.4,0.9-1.2,0.6-1.9,0.6c-1-0.1-0.7,1.3-0.7,1.3c-0.7-0.9-0.2-1.5-0.2-1.5l-0.1-0.2
			c-0.2-0.9,1.1-1.2,1.1-1.2s0.2-0.1,0.2-0.2c0.6-1.2,1.3-1.6,1.3-1.6c-0.5,0.1-0.9,0.3-1.4,1.4c-0.9,1-1.8,0.2-1.8,0.2
			c-0.6-0.2-0.7,0.9-0.7,0.9c-0.5-1,0.4-1.6,0.4-1.6c0.2-1.6,2.5-1.5,2.5-1.5c0.9-0.4,1.2-0.3,1.8-1.4c0.2-0.4,0.4-2.6,0.4-2.6
			c-1,0.4-2.7,0.8-2.7,0.8c-1.4,0.3-2.7,0.2-3.1,0.2c-1.1,0-3,0-4.8-0.8c-1.9-0.8-1.8-1-2.5-2.1c0,0-0.3-1.7-3-2.2v0l0.7,0.6
			c0,0,0.5,0.4,0.5,0.5c0.6,0.5,0.6,1.9,0.6,1.9c0,0.1,0.5,1.8,3,2.2c2.2,0.4,3.1,0.7,3.1,0.7s2.2,0.3,2.4,1.6c0,0-0.1,1-2,1.3
			c0,0,1.6,2.5-0.3,3.2c0,0-0.8,0.2-1.9-0.7c0,0,1.1,2.2-0.4,2.9c-1.3,0.6-2.5-1.2-2.5-1.2s0,2.1-1.5,2.5c0,0-1.2,0.2-2.4-1.5
			l-0.1,0.5c-0.1,1.5-2.5,1.1-2.5,1.1c-0.9,0.1-0.9,1.2-0.9,1.2c-0.4-0.5-0.1-1.5-0.1-1.5c-0.8-1.3,1-2.2,1-2.2
			c0.9-0.7,0.3-0.4,0.3-0.4c-0.9,0.6-0.5,0.5-1.7,1c-0.7,0.3-1.4-0.3-1.4-0.3s-0.5-0.9-1.3,0.6c0,0-0.2-1.2,0.8-1.7
			c0,0,0.2-0.5,0.7-0.8c0.9-0.4,1.1-0.2,1.8-0.1c0.8,0,0.1-0.4,0.1-0.4s-1.2-0.4-1.2-1.3c0-0.8,0.3-1.2,0.2-1.2
			c-0.2-0.5-0.5-0.5-1.2-0.9c0,0,0.4,0.1,2,0.2c0.9,0,1.6,0.3,1.6,1.8c0,0.6,0,0.8,0.3,1.2c0.3,0.3,2-1,2-1s2.2-1.2,3.3-1.8
			c1.2-0.6,1.6-0.9,2.1-1.2c0.1-0.1-3.4-0.2-4.5-1.6c0,0-0.9-1.1-0.3-2.7c0,0-0.6-0.8-2-0.9c-0.6,0-1.3,0-2.5,0.1
			c-1,0.1-3,0.2-3.8,1.2c-1.6,2.1-2.9,2.4-3.8,2.4c0,0.5-0.1,0.9-0.1,0.9c-0.7,0-1.4-0.1-2.1-0.4c-0.7-0.3-0.6-0.3-0.9-0.5
			c0,0,0.4,1.1-0.3,0.7l-0.3-0.2c0.4,0.8,0.3,1.1-0.5,1c0,0.6-0.5,1-0.5,1c-0.1,0-0.5,0-0.6,0c-0.1,0.3-0.3,0.5-0.6,0.6
			c-1.1,0.2-1.6-0.9-1.7-1.6c0-0.3-0.1-0.6-0.1-0.9c0,0.6-0.1,1.7-0.8,2.2c-1,0.7-1.6-0.4-1.8-1.2c-0.3-0.8-0.5-1.8-0.5-1.8
			s-0.5,1.5-1.5,2.1c-1,0.6-1.3,0.4-1.3,0.4s-1.1-0.3-1.2-1.7c-0.1-1.4,0-1.7,0-1.7s-0.9,1.8-1.9,2.2c-1,0.4-1.4-0.3-1.4-1.6
			c0-1.3,0-1.5,0-1.5s-1.9,0.8-2.8,0.8c-0.8,0-1.3-0.2-1.4-0.7c-0.3-1-1.1,0.2-1.1,0.2s0.1-1.2,0.9-1.5c0.5-0.2,0.7-0.4,1.2-0.5
			c0.6-0.1,0.7-0.1,0.7-0.1s0-0.3-0.2-0.3c-0.2,0-0.4-0.1-0.7,0c-0.3,0.1-0.8,0.1-1.2-0.1c-0.7-0.3-0.3-1.2-0.8-1.3
			c-0.5-0.1-1,0.3-1,0.3s0.9-1.2,2-1.2c1.1,0.1,1.4,0.4,1.4,0.4s0.3,0,0.2-0.2c-0.2-0.2-0.4-0.3-0.6-0.4c-0.2-0.2-0.7-0.6-0.3-1.3
			c0.3-0.5,0.4-1,0.1-1.3c-0.3-0.3-0.8-0.3-0.8-0.3s1-0.7,1.5,0.1c0.3,0.4,1.1,1.3,1.4,1.9c0.3,0.6,0.8,1.6,1.3,1.9
			c0.4,0.3,1.3,0.6,1.8,0.8c0.5,0.3,1.9,1.1,3.2,1c0-0.1,0-0.2,0-0.2c-0.1-0.3-0.2-0.7-0.2-1c0,0-0.1-0.5-0.1-0.9
			c0-0.6,0.1-1,0.2-1.5c-0.3,0.4-0.8,0.9-1.3,1.1c-0.5,0.2-1.2,0-1.6-0.9c-0.4-0.9-0.3-2.2-0.1-2.6c0.2-0.4,0-0.5-0.2-0.1
			c-0.2,0.4-0.8,1.2-1.6,1.3c-0.8,0.1-1.4-0.3-1.8-1.6c-0.4-1.3-0.2-2-0.5-2.2c-0.2-0.3-0.5-0.6-1-0.4c-0.5,0.1-1.2,0.6-1.9,0.6
			c-0.6,0-0.8,0.1-1.2-0.3c-0.4-0.4-0.4-0.9-0.7-0.9c-0.3,0-0.8,0.3-0.8,0.3s0.4-0.8,0.9-0.9c0.5-0.1,1,0,1.2-0.3
			c0.2-0.3,0.3-0.5,0.8-0.6c0.5-0.2,1.1-0.3,1.1-0.3s-1-0.3-1.5-1.1c-0.4-0.5-0.4-1-0.3-1.7c0.2-1.7-1.4-1.3-1.4-1.3
			c1.3-1,1.7-0.2,2-0.3c0.6-0.3,1,0,1,0l0.3,0.3c0,0,0.3,0.3,0.6,1.1c0,0,0,0.6,0.4,0.8c0,0,0.1,0.1,0.3,0.5c0,0-0.1-0.7-0.3-0.9
			c-0.2-0.2-0.3-0.4,0-0.9c0.4-0.7,0.6-0.5,0.5-1c-0.1-0.6-0.8-0.7-0.8-0.7s1.4,0.1,1.7,0.4c0.3,0.4,1.2,1.1,0.5,2.2
			c-0.5,0.8-0.3,1.9,0.5,2.5c0.5,0.3,2,1.4,3.3,2.2l0,0c0.2,0.1,0.9,0.6,1,0.7c1.1,1.6,1.8,1.7,1.8,1.7s0,0.8,0.4,1.4
			c0.1,0.1,0.2,0.4,0.5,0.7c0.4,0.5,0.8,0.8,1.2,1.1c1.1,0.7,2.4,1.3,2.4,1.3c0,0.1,0.1,0.6,0.1,0.7c0.3,0.7,0.6,1.1,0.9,1.3
			c0.1,0.1,0.3,0.1,0.4,0.1c0.1,0,0.1,0,0.2,0c0.1,0,0.2,0,0.4-0.1l0,0c0.2,0,0.6-0.5,0.6-0.5l0.4-0.6c0-0.1,0.1-0.5,0.2-0.6
			c0-0.1,0-0.4,0-0.6c0-0.1,0-0.3,0-0.4c0,0,0,0,0,0l0-0.9c2.2-0.5,2.5-2.5,2.5-2.5s-0.3,0.2-0.4,0.4c-0.2,0.2-0.1-0.7-0.3-0.5
			c0,0-0.3,1.7-1.8,1.8c-1.5,0.1-1.3-1-1.3-1l-0.3,0c0,0.8-1.4,0.8-1.4,0.8c-0.8-0.2-1.6-0.6-1.7-1.6c0-0.1-0.3,0.4-0.3,0.4
			c-0.3-0.1-0.5-0.2-0.5-0.2c0.5,1.4,1.6,2,2.5,2.4l-0.1,0.9c-0.8-0.3-1.8-0.7-2.6-1.4c-1.5-1.4-1.7-2.4-1.5-3.3
			c0.3-0.9,1-0.6,1-0.6c-0.3-0.3-0.8-0.1-0.8-0.1c-0.7,0.4-0.5,1.2-0.5,1.2s-0.1,0.1-0.4-0.1c-0.4-0.2-0.8-0.6-0.8-0.6
			s0.5-1.1,0.9-1.2c0.4-0.1,1-0.1,1-0.1l-0.1-0.1c0,0-1-0.2-1.5-0.4c-0.7-0.3-0.9-1.3-0.9-1.3c0.6-0.4,0.3-0.3,1.1-0.6
			c0.3-0.1,0.9,0.2,1.1,0.3c-0.3-0.3-1.4-1.6-1.4-2.4c0-0.4,0.2-2,2.1-1.7c0.5,0.1,0.9,0.4,1.4,0.9c0.2,0.2,0.3,0.3,0.3,0.4
			c0.1-0.3,0.3-1.3,1-1.4c0.7-0.1,0.9,1.6,0.9,1.6c0,0.7,0.2-2,1.2-2c0.9,0,1.1,2.5,1.1,2.3c0,0,0.1-1.9,1-1.9c1,0,0.7,2,0.7,2
			s0.2-0.3,0.5-0.9c0.4-0.7,1.5-1,2.1-0.8c0.9,0.4,1.5,1.1,1.3,1.9c-0.3,1.1-1.3,1.9-1.3,1.9s0,0.2,0.1,1.2c0,0.9-1,2-1,2
			s0.8-0.3,1,0.6c0.3,0.9,0,1.9-1.5,3.3c-0.5,0.4-1.1,0.8-1.6,1c0,0,0,0,0,0c0.1,0.1,0.1,0.1,0.1,0.2l0.1,0.2c0.5-0.3,1-0.6,1.5-1
			c1.5-1.2,1.9-2.3,1.9-2.9c1.1-0.4,2.1-0.4,2.1-0.4c0,0.5,0,0.9-0.1,1.3c0.8-0.4,2.1-0.4,2.1-0.4c0.1,0.4,0,0.9,0,1.2
			c0.8,0,3.4,0,5.8-0.1c2.9-0.1,12.6,0,15,0.1c2.3,0,3.2-0.1,4.1,0c0.9,0,3-0.6,2.2-1.5c-0.6-0.6-2-0.5-3-0.5c-1.3,0-14.3,0-16.7,0
			c-4.6,0-7.1,0.1-8.2-0.7c-1.1-0.8-1.7-2.9-0.8-4.2c0.9-1.3,2.9-1.6,4.9-1.6l23.9,0.2c-1.4,2.3-2.7,1.3-3,1.2c0,0-0.2-0.2-0.5,0
			c0,0-0.2,0.3,0.2,0.5l0.4,0.2c-0.9,0.6-1.5,0.3-1.5,0.3c-0.6-0.3-1.1-1.1-1.1-1.1s-1,0-1.1,0c-0.2,0,0,0.5,0.2,0.5
			c0.1,0,0.4,0,0.6,0c0,0,0.3,0.5,1,0.8l0.7,0.2l-0.9,0.3c-0.6,0.1-1,0.2-1.6-0.1c-0.8-0.3-1.7-1.6-1.7-1.6s-1,0-1.1,0
			c-0.2,0,0,0.5,0.2,0.5c0.1,0,0.5-0.1,0.7,0c0,0,0.4,0.5,0.4,0.5l0.8,0.9c0,0-0.5,0.1-1.3,0c-0.8-0.1-0.8,0-1.4-0.5
			c-0.6-0.5-1.4-1.4-1.4-1.4s-0.6,0-0.9,0c-0.3,0,0.2,0.5,0.2,0.5l0.6,0.1l1,1.3c0,0-0.5,0-1,0.1c-0.5,0-1.3,0.1-1.8-0.3
			c-0.3-0.2-0.5-0.3-1.9-1.5c0,0-0.6,0-0.8,0c-0.3,0,0,0.3,0,0.3l0.7,0l1.4,1.3c0,0-0.4,0.1-0.9,0.1c-0.5,0-1.1,0.1-1.8-0.3
			c-0.6-0.4-1.3-1.5-1.4-1.5c-0.1,0-0.6,0-0.9,0c-0.3,0-0.2,0.3,0,0.3c0.3,0,0.6,0,0.6,0l1.2,1.4c0,0-0.5,0-1.2,0l-0.5,0
			c-0.5,0-0.6,0-1.3-0.4c-0.6-0.4-1.3-1.5-1.4-1.5c-0.1,0-0.6,0-0.8,0c-0.3,0-0.2,0.4,0,0.4c0.3,0,0.6,0,0.6,0l1.2,1.4
			c0,0-0.7,0.3-1.6,0c-0.9-0.3-1.6-0.8-2-1c-1-0.4-0.6-0.3-1.3-0.2c-1,0.1-1.6,0.9-1.3,1.5c0.6,1,2.6,0.9,4.2,0.9
			c1.5,0,17.9,0,19.6,0c1.6,0,2.6-0.2,4.6,0.8c0.8,0.4,2.3,2.7,0,4.4c-1.2,0.9-2.8,0.8-5.4,0.9c-1,0-1.1,0-1.8,0
			c-0.5,0-2.3-0.1-2.6-0.1c-0.7,0-2.5,0-2.5,0s1.4,0.2,2.1,0.9c0.6,0.6,1.6,1.3,2.3,1.3c0.8,0.1,3.8-1,6.2-0.3c0,0,1.8-1.8,4.4-0.5
			c0,0,0.4,2.4-1.7,2.9c0,0,1.5-0.1,2,1.3C77.6,89.2,77.3,90.2,75.4,90.2z M42.3,77.9C43.2,78.4,43,79,43,79s-0.4,0.4-0.8,0.6
			c-0.3,0.2-0.4,0.1-0.4,0.1s0.1-0.8-0.3-1.1c0,0-0.4-0.2-0.6-0.2l0-0.1c1.2-1,0.7-2.9,0.7-2.9s0.8-0.3,1.2-0.1
			c0.6,0.2,0.7,0.4,0.9,0.8c0,0-0.3,0.8-1,1.1c-0.4,0.2-0.6,0.2-0.9,0.3l-0.3,0C41.7,77.6,42,77.6,42.3,77.9z M84.2,70.4
			c-0.7-0.3-0.8-0.8-0.8-0.8s-0.7-0.1-0.7-0.6c0-0.9-0.4-1.3-0.4-1.3L82,67.3c0,0,0.7,2.2,0.2,2.9c-0.5,0.7-0.9,0.7-0.9,0.7
			s-0.5,0.3-0.4,0.9c0.1,0.7,0.6,0.7,0.6,0.7s-0.5,0.1-1-0.6c-0.5-0.7-0.3-1.4-0.3-1.8c0,0-0.6-0.4-0.5-1.1c0.1-0.6,0-1.1,0-1.1
			s-0.3,0.5-0.3,1.1c0,0.6,0.2,0.8,0.2,0.8s-0.5,0.6-1,0.5c-0.4-0.1-0.6-0.2-0.6-0.2s-0.3,0.2-0.6,0.1c-0.6-0.2-0.8,1-0.8,1
			s-0.1-0.8,0.2-1.2c0.3-0.4,0.1-0.8,0.1-0.8s-0.2-0.8,0.6-1.4c0.9-0.6,1.4-0.8,1.6-1.6c0.2-0.8-0.4-1.9-0.9-2.8
			c-0.5-0.9-1.6-1.8-3.3-1.8c-1.6,0-5,0.9-6.8,0.9c-1.8,0.1-3.9-0.1-6.4-1.2c-2.1-0.9-3.6-2.5-4-3.5l-2.4-0.7l0.1,0.2
			c0-0.1,1.3,1.3,1.3,1.3c0,0.1,0.2,0.6,0.2,0.6s0.7,1.5,3.6,2.9c2.4,1.1,3.9,1.3,3.9,1.3c0.3,0.3,1.2,0.7,1.8,1.2
			c0.4,0.4,1.3,1.1,1.5,2.1c0.2,1-0.7,2-0.7,2s-1.2,0.8-2.3-0.1c-0.4-0.3-0.6-0.8-0.6-1.3l0,0c-0.1,0.8-0.3,1.8-0.6,2.3
			c-0.6,1-1.1,1-1.1,1s-1.5-0.1-2-1.1c-0.3-0.5-0.3-1.4-0.3-1.9c0,0.9-0.2,2.9-1.8,3c-2.1,0.1-1.9-2.4-1.9-2.8l0-0.4h-0.2
			c0,0,0.4,1.2-0.2,1.9c-0.6,0.7-1.2,0.8-1.2,0.8s-0.8-0.1-1.4-0.9c-0.6-0.8-0.4-1.6-0.4-1.6s-0.6,1-1.9,1.2c-1.3,0.2-1.8,0-2.1-0.2
			c-0.8-0.5-1.3,0.2-1.7,0.6c0,0,0.1-1.1,0.8-1.4c0,0,0.1-1,0.7-1.2c0.3-0.1,0.8-0.3,1.4-0.4c-0.8,0.1-1.6,0-2-0.5
			C47.8,65.2,47,65,47,65s-0.8-0.3-1.6,0.6c0,0,0.4-1.3,1.5-1.5c0,0,0.3-0.2,1-0.3c0.7-0.1,0.9-0.1,1.8,0.1c0.5,0.2,0.9,0.4,1.1,0.6
			c-0.4-0.3-1-0.8-1-1.4c0-0.9,0.4-1.1,0.3-1.2c-0.2-0.5-0.1-0.5-1-1.1c0,0,1.2-0.4,1.8,0.8c0.4,0.9,0.3,0.8,0.7,1.2
			c0.4,0.4,1.1,0.8,1.4,1.3c0.4,0.5,0.4,0.8,0.4,0.8s2.2-0.2,3.6-0.4c1.4-0.1,1.8,0.1,2.3-0.2c0.1-0.1-1.1-0.3-1.8-0.9
			c0,0-2.3-1.2-2.4-3.5c0,0-0.4-0.2-2-0.3c-0.7,0-1-0.3-3.5,0.3c-1,0.3-1.7,1-4.2,2.2c-1.3,0.6-2.6,1-3.5,1.2c0,0.6,0,1.2-0.2,1.8
			c0,0-1.6,0.1-2.6-0.5c0,0-0.7-0.4-1-0.8c0,0,0.5,1.1-0.8,0.9c0,0-0.4,2.1-1,2.3c0,0-0.5,0-1.1-0.3l0,0C34.6,67,34.3,67,34.3,67
			s0.2,1.5-1.6,2c-1.1,0.3-1.8-0.3-1.9-0.6c-0.1-0.4-0.2-0.8-0.2-0.8s-0.8,1.9-2.3,1.5c-1.5-0.3-1.8-1.4-1.8-2
			c0-0.6,0.1-0.8,0.1-0.8c-0.1,0.1-1.5,2.3-3.3,1.8c-1.9-0.5-1.2-2.4-1.2-2.4l0.3-0.7c0,0-1.3,2.8-3.3,2.1c-2-0.7-1.4-2.8-0.5-3.3
			c0.8-0.5-2,0.8-2.9,0.3c-0.9-0.5-1.7-0.7-2.2-0.5c-0.5,0.2-0.7,0.8-0.7,0.8s0.2-1.6,1.4-1.9c0,0,0.7-1,1.6-1l1.4,0l-0.9-0.1
			c-0.8,0-1.6-0.5-1.8-0.7c-0.4-0.3-0.6-0.5-0.6-1.1c0-1.4-2-1.1-2-1.1s0.7-0.5,1.2-0.5c0.5,0,0.6-0.4,1.3-0.4c0,0,0.5,0.1,1.1,0.6
			c0.6,0.6,0.8,0.6,1,0.8l0.8,0.7c0,0-1-1.5-0.6-2.5c0.4-1,0.3-0.7,0.1-1.3c-0.2-0.5-1.5-0.6-1.5-0.6s1.8-0.7,2.9,0.5
			c0.6,0.7,1.5,1.7,1.8,2.9c0.3,1,0.3,1.3,1,1.7c0.7,0.4,1.2,1.6,3.8,1.8c2.6,0.1,3.1,0,3.1,0s0,0,0.1-0.1c-0.4-0.2-0.8-0.9-1-1.7
			c-0.7,0.4-1.8,0.9-3,0.6c-1.8-0.5-1.9-2.2-1.2-3.2l0.7-1c0,0-1.6,1.4-2.9,1.2c-1.3-0.2-1.5-2.4-1.4-3.3c0.1-0.8,0.2-1.3,0.4-1.8
			c0.2-0.4-0.2-0.9-0.8-1.2c-0.6-0.3-0.8-0.5-1.5-0.4c-0.7,0.1-1.2,0.1-2.3-0.8c-0.6-0.5-0.9-1.8-0.9-1.8c-0.4-1-1.1-0.5-1.8-0.7
			c0,0,2.2-0.9,3.3-0.4c0.9,0.4,1.6,0.9,2.1,1.2c0.4,0.3,1.6,0.6,1.6,0.6l-0.8-0.5l-1.9-1.7c0,0-1.1-0.7-0.6-1.8
			c0.4-0.9,0.5-1.5,0.5-1.5s0.6-1.4-1.1-2c0,0,1.5-0.1,1.9,0.9c0.4,1,1.4,3.5,1.7,4.2c0.4,0.9,1.1,2.2,1.1,2.2l-0.6-1.8l-0.3-1.3
			c0,0-0.1-1.2,0.6-1.2c1.3,0,1.6-0.8,1.7-1.1c0,0,0.6-0.8-0.6-1.5c0,0,1.5,0.2,1.5,0.9c0,0.4,0,0.7-0.1,1c-0.1,0.3-0.3,1.6-0.5,2.5
			c-0.2,0.9,0.9,2.5,1.4,3.3c0.5,0.9,1.6,1.5,2.7,2.6c0.4,0.4,0.7,0.7,1,1l0.9,0.2c0,0,0.8,2.1,4.4,3.4c0,0-0.1,2.3,1.9,2.5
			c0,0,1.8,0,1.8-2.7c0,0,2.9-1.1,3.8-2.7c0.9-1.6,0.8-1.5,0.8-1.5s0.7-0.2,1.7-0.2c0,0,0,0.2,0,0.9c0,0,0.5-0.2,0.8-0.4
			c0.3-0.2,0.8-0.3,0.8-0.3s0.5-0.1,0.9-0.2c0.1,0.2,0.2,0.5,0.5,0.6c1.4,0.2,4.5,0.2,6.7,0.2c3.2-0.1,14,0.2,16.6,0.2
			c2.6,0,7.7,0,8.8,0c1,0,2.5-1.3,1.5-2.3c-0.7-0.7-2.1-0.9-3.3-0.9l-23-0.1c-5.1,0-8.4,0.3-9.6-0.6c-0.3-0.3-0.7-0.6-0.9-1
			c0.3-0.5,0.4-1.1,0.4-1.1c-0.5-0.4-0.4-0.3-0.9-0.6c-0.1-0.6,0.1-1.3,0.4-1.8c1.1-2.1,3.5-2.6,5.7-2.6l30,0
			c-4.3,2.9-5.9,2.1-6.2,2c-0.3-0.2-0.5-0.2-0.5-0.2s-1-0.6-1.2-0.4c-0.2,0.3,0.1,0.6,0.4,0.7c0.2,0.1,0.5,0.3,0.5,0.3
			s1.4,0.6,0.4,0.9c-1.2,0.3-2.1,0.5-3,0C67.6,44.7,67,44,67,44s-1,0-1.2,0c-0.2,0-0.2,0.4,0,0.4c0.2,0,0.8-0.1,1,0
			c0.1,0,0.5,0.5,0.5,0.5l0.6,0.6c0,0-0.2,0.3-1.1,0.4c-0.9,0.1-1.6,0.1-2.3-0.4c-0.7-0.5-1.6-1.6-1.6-1.6s-0.6,0-1,0
			c-0.3,0,0,0.4,0,0.4l0.8,0l1.1,1.2c0,0-0.3,0.4-0.9,0.4c-0.5,0-1.3,0.1-2-0.3c-0.4-0.3-0.5-0.3-2.1-1.7h-0.9c-0.3,0,0,0.4,0,0.4
			l0.8,0l1.5,1.3c0,0-0.3,0.4-0.9,0.4c-0.6,0-1.6,0.1-2.4-0.3c-0.7-0.4-1.5-1.6-1.6-1.7c-0.1,0-0.7,0-1,0c-0.3,0-0.2,0.4,0,0.4
			c0.3,0,0.7,0,0.7,0l1.4,1.6c0,0-0.8,0-1.5,0l-0.1,0c-0.6,0-1.4,0.1-2.2-0.3c-0.7-0.4-1.5-1.6-1.6-1.7c-0.1,0-0.7,0-0.9,0
			c-0.3,0-0.2,0.4,0,0.4c0.3,0,0.7,0,0.7,0l1.4,1.6c0,0-0.8,0.3-1.8,0c-1-0.3-1.7-0.6-2.3-0.8c-0.6-0.2-1.6-1-2.4-1
			c-0.9,0-2.2,1.6-1.3,2.7c0.9,1,3.3,0.9,5,0.9c1.7,0,25.2-0.3,27-0.3c1.8,0,3.6,0.4,4.7,1.9c0.3,0.3,1.9,3-0.1,4.7
			c-1.9,1.6-4.1,1.8-9.5,1.8c-1.1,0-1.1-0.1-2-0.1c-0.6,0-2.5,0-2.8-0.2c-0.6-0.4-1.2-0.7-1.6-0.9c0.2,0.1,0.6,0.4,1.1,1.1
			c0.4,0.7,2.4,1.3,3.2,1.4c0.9,0.1,2.5-0.2,4.6-0.5c2.1-0.3,4.3,1.3,4.3,1.3s1.5-1.8,2.8-0.7c0.6,0.5-0.1,1.1-0.6,1.6
			c0.6-0.4,1.5-0.8,2.2-0.2c1.2,1-0.3,2.3-1,2.8c0,0,1.8-1.4,2.8,0c0.7,1.1-0.6,2.2-1.2,2.6c0.5-0.3,1.6-0.8,2.1,0.5
			c0.5,1-0.6,2-1.2,2c0,0,0.8,0.5,0.7,1.5c-0.1,1-0.4,1.2-0.4,1.2s0,0.4,0.4,0.6c0.4,0.2,0.8,0.1,0.8,0.1S84.9,70.7,84.2,70.4z
			 M26.6,43.7c0-0.4,0.2-2.3,2.4-2c0.6,0.1,1,0.5,1.5,1c0.2,0.3,0.3,0.4,0.3,0.5c0.1-0.3,0.4-1.5,1.1-1.7c0.8-0.1,1,1.9,1,1.9
			c0,0.8,0.2-2.4,1.4-2.4c1,0,1.2,2.9,1.2,2.7c0,0,0.1-2.2,1.1-2.2c1.1,0,0.8,2.4,0.8,2.4s0.2-0.4,0.6-1.1c0.4-0.8,1.7-1.2,2.3-0.9
			c1,0.4,1.7,1.2,1.4,2.2c-0.3,1.2-1.5,2.2-1.5,2.2s0,0.3,0.1,1.4c0,1.1-1,2.3-1,2.3s0.9-0.3,1.2,0.7c0.3,1,0,2.2-1.7,3.8
			c-0.7,0.7-1.7,1.2-2.5,1.5l-0.1-1c2.5-0.5,2.8-2.9,2.8-2.9s-0.3,0.2-0.5,0.4c-0.2,0.2-0.1-0.8-0.4-0.6c0,0-0.4,2-2,2.1
			c-1.7,0.1-1.5-1.1-1.5-1.1l-0.4,0c0,0.9-1.5,1-1.5,1c-0.9-0.2-1.7-0.7-1.9-1.8c0-0.1-0.4,0.5-0.4,0.5c-0.4-0.1-0.6-0.2-0.6-0.2
			c0.5,1.6,1.8,2.4,2.8,2.7l-0.1,1c-0.9-0.3-2-0.8-2.9-1.7C28,53,27.7,51.8,28,50.8c0.3-1.1,1.2-0.7,1.2-0.7
			c-0.3-0.4-0.9-0.2-0.9-0.2c-0.8,0.5-0.6,1.4-0.6,1.4s-0.1,0.1-0.4-0.1c-0.4-0.2-0.8-0.7-0.8-0.7s0.6-1.3,1-1.4
			c0.5-0.1,1.1-0.1,1.1-0.1l-0.2-0.1c0,0-1.2-0.2-1.7-0.4c-0.8-0.3-0.9-1.6-0.9-1.6c0.6-0.4,0.3-0.3,1.2-0.6c0.4-0.1,1,0.2,1.2,0.3
			C27.7,46.1,26.6,44.7,26.6,43.7z M41.2,49.3c0.4,0.1,0.8,1.3,0.8,1.3s-0.4,0.5-0.8,0.7c-0.3,0.2-0.4,0.1-0.4,0.1s0.1-1-0.3-1.2
			c0,0-0.4-0.3-0.6-0.2l0-0.1c1.3-1.2,0.8-3.3,0.8-3.3s0.6-0.2,1,0c0.9,0.4,0.5,0.2,1,0.5c0,0-0.1,1-0.9,1.4
			c-0.4,0.2-0.5,0.3-0.8,0.3l-0.4,0.1C40.6,48.9,40.8,49.1,41.2,49.3z M86.1,39.2c-0.8-0.3-0.9-0.8-0.9-0.8s-0.7-0.1-0.7-0.6
			c0-0.9-0.4-1.3-0.4-1.3L83.8,36c0,0,0.7,2.3,0.2,3c-0.5,0.7-1,0.7-1,0.7s-0.6,0.3-0.4,0.9c0.1,0.7,0.6,0.8,0.6,0.8
			s-0.5,0.1-1.1-0.6c-0.5-0.7-0.3-1.4-0.3-1.9c0,0-0.6-0.4-0.5-1.1c0.1-0.6,0-1.2,0-1.2s-0.4,0.6-0.4,1.2c0,0.6,0.2,0.8,0.2,0.8
			s-0.5,0.7-1,0.5c-0.5-0.1-0.6-0.2-0.6-0.2S79.2,39.1,79,39c-0.6-0.2-0.8,1-0.8,1s-0.1-0.9,0.2-1.3c0.3-0.4,0.1-0.8,0.1-0.8
			s-0.2-0.8,0.7-1.4c0.9-0.6,1.5-0.8,1.7-1.7c0.2-0.9-0.5-1.9-1-2.8c-0.5-0.9-1.2-1.9-2.9-1.9c-1.7,0-6.4,1.1-8.3,1.1
			c-1.9,0-4.9-0.2-7.3-1.7c-1.8-1.1-3.5-3.4-3.5-3.4s0.5,4,4,5.2c2.6,0.9,5.5,1.2,5.5,1.2s0.7,0.6,1.3,1c0.5,0.4,1.9,2,2.4,2.9
			c0.6,0.9-0.5,1.9-0.5,1.9S68.9,39,68,38.2c-0.9-0.8-1.2-1.3-1.2-1.3s0.6,1.5-0.1,2.5c-0.7,1-1.1,1.1-1.1,1.1s-1.6-0.1-2.1-1.1
			c-0.4-0.8-0.6-1.5-0.6-1.5s0.4,2.7-1.7,2.8C59,40.7,59,38.8,59,38.4V38l-0.2,0c0,0,0.4,1.2-0.2,2c-0.6,0.8-1.3,0.8-1.3,0.8
			s-0.9-0.1-1.5-0.9c-0.6-0.8-0.4-1.6-0.4-1.6s-1.3,1.1-2.6,1.3c-1.3,0.2-1.8-0.2-2.2-0.1c-0.4,0.1-1.3,0.2-1.8,0.6
			c0,0-0.1-1.3,0.9-1.5c0,0,0-0.9,0.7-1.2c0.6-0.3,2.9-0.7,2.9-0.7s-3,0.1-3.6-0.2c-0.7-0.3-1.3-0.8-1.3-0.8s-0.9,0.2-1.7,0.6
			c0,0,0.4-1.3,1.6-1.5c0,0,0.4-0.2,1-0.3c0.7-0.1,1-0.1,1.8,0.1c0.5,0.2,0.9,0.4,1.2,0.6c-0.4-0.3-1-0.9-1-1.5
			c0-0.9,0.4-1.1,0.4-1.2c-0.4-1.2-0.1-0.5-1.1-1.1c0,0,1.3-0.5,1.9,0.8c0.4,0.9,0.4,0.8,0.8,1.3c0.4,0.4,1.1,0.8,1.5,1.3
			c0.4,0.5,0.4,0.8,0.4,0.8s2.8,0.2,4.3,0c1.5-0.1,3.1-0.1,3.7-0.5c0.6-0.4,0.2-0.8-0.2-0.9c-0.4-0.1-4.2,0.2-6.2-1.5
			c-2-1.7-0.9-2.7-0.6-3.5c0.5-1.8-1.9-1.2-1.9-1.2s-1.4,0.4-2.2,0.8c-0.7,0.3-1.7,1-2.5,1.7c-0.9,0.7-1.7,1.5-4.3,2.7
			c-2,0.9-3.4,0.9-4.3,1c0.2,1.3-0.1,2.6-0.1,2.6c-1.4,0.1-2.6-0.3-3.5-1.1c-0.1,0.1-0.2,0.2-0.4,0.3c-0.3,0.2-0.3,0.2-0.9,0
			c-0.1,1.1-0.9,2.6-0.9,2.6c-0.6-0.1-1-0.3-1.4-0.5c-0.3,0.1-0.4,0.1-0.4,0.1s0.2,1.5-1.6,2c-1.1,0.3-1.8-0.3-2-0.7
			c-0.1-0.4-0.2-0.9-0.2-0.9s-0.8,1.9-2.4,1.6c-1.6-0.4-1.9-1.5-1.9-2.1c0-0.7,0.1-0.9,0.1-0.9S24,39.7,22,39.1
			c-2-0.5-1.2-2.5-1.2-2.5l0.3-0.7c0,0-1.3,2.9-3.4,2.2c-2.1-0.7-1.4-2.8-0.6-3.4c0.9-0.5-2.1,0.8-3,0.3c-0.9-0.5-1.8-0.8-2.3-0.5
			c-0.5,0.3-0.7,0.8-0.7,0.8s0.2-1.7,1.5-2c0,0,0.7-1,1.6-1l1.5,0l-1-0.1c-0.8,0-1.6-0.5-1.9-0.8c-0.4-0.3-0.6-0.5-0.6-1.1
			c0.1-1.4-2.1-1.1-2.1-1.1s0.7-0.5,1.3-0.5c0.5,0,0.7-0.4,1.4-0.4c0,0,0.6,0.1,1.2,0.6c0.7,0.6,0.9,0.6,1.1,0.9l0.8,0.8
			c0,0-1.1-1.5-0.7-2.6c0.4-1-0.1-0.7-0.3-1.3c-0.2-0.5-1.2-0.6-1.2-0.6s1.9-0.8,3.1,0.5c0.6,0.7,1.4,1.9,1.3,3.2
			c-0.1,1.2,0.1,1.8,0.8,2.2c0.7,0.4,2.3,1.3,5,1.4c1,0,1.9,0.1,2.6,0c-0.8-0.2-1.7-2-1.1-3c-0.7,0.4-1.5,1.3-2.6,1
			c-1.9-0.5-2-2.3-1.3-3.3l0.7-1c0,0-1.7,1.4-3.1,1.2c-1.4-0.2-1.6-2.5-1.4-3.4c0.1-0.9,0.2-1.4,0.4-1.8c0.2-0.5-0.2-0.9-0.8-1.2
			c-0.6-0.3-0.8-0.5-1.5-0.4c-0.7,0.1-1.3,0.1-2.4-0.9c-0.6-0.6-0.9-1.8-0.9-1.8c-0.4-1-1.1-0.6-1.9-0.7c0,0,2.3-1,3.4-0.4
			c1,0.5,1.7,0.9,2.2,1.2c0.5,0.3,1.7,0.6,1.7,0.6l-0.8-0.6l-2-1.7c0,0-1.1-0.7-0.6-1.8c0.4-1,0.5-1.6,0.5-1.6s0.7-1.5-1.1-2.1
			c0,0,1.6-0.1,2,0.9c0.5,1.1,1.5,3.5,1.8,4.3c0.4,0.9,1.2,2.2,1.2,2.2l-0.6-1.8l-0.4-1.4c0,0-0.1-1.2,0.6-1.2
			c1.4,0,1.6-0.8,1.8-1.1c0,0,0.6-0.8-0.7-1.6c0,0,1.5,0.2,1.6,0.9c0,0.4,0,0.7-0.1,1c-0.1,0.3-0.3,1.7-0.5,2.5
			c-0.2,0.9-0.5,2.4,0,3.3c0.5,0.9,1.9,3,3,4.1c1.2,1.1,2.6,1.6,2.6,1.6s0.3,0.2,0.8,0.5c0,0,0.7,1,4,1.9c0,0,0,0,0,0l0,0
			c0,0,0,0,0,0c0,0.2,0.1,0.5,0.1,0.7c0.5,1.5,1.4,1.6,1.8,1.6c0.6,0,1.3-0.3,1.8-1.6c0.1-0.2,0.1-0.4,0.2-0.8l0,0
			c0.1-0.1,0.3-0.1,0.5-0.2c0.2-0.3,0.5-0.6,0.7-0.8c-0.4,0.2-0.8,0.4-1.2,0.5l-0.1-1c2.6-0.5,2.9-3.1,2.9-3.1s-0.3,0.3-0.5,0.4
			c-0.3,0.2-0.1-0.8-0.4-0.6c0,0-0.4,2.1-2.1,2.2c-1.8,0.1-1.6-1.2-1.6-1.2l-0.4,0c0,1-1.6,1-1.6,1c-0.9-0.2-1.8-0.7-2-1.9
			c0-0.1-0.4,0.5-0.4,0.5c-0.4-0.1-0.6-0.2-0.6-0.2c0.5,1.7,1.9,2.5,2.9,2.9l-0.1,1.1c-1-0.3-2.2-0.9-3.1-1.7c-1.7-1.7-2-2.9-1.7-4
			c0.3-1.1,1.2-0.8,1.2-0.8c-0.3-0.4-1-0.2-1-0.2c-0.9,0.5-0.6,1.5-0.6,1.5s-0.1,0.1-0.5-0.1c-0.5-0.3-0.9-0.8-0.9-0.8
			s0.6-1.4,1.1-1.4c0.5-0.1,1.2-0.1,1.2-0.1l-0.2-0.2c0,0-1.2-0.2-1.8-0.4c-0.9-0.3-1-1.6-1-1.6c0.7-0.4,0.3-0.3,1.3-0.7
			c0.4-0.1,1,0.2,1.3,0.4c-0.4-0.4-1.6-1.9-1.6-3c0-0.4,0.2-2.4,2.5-2c0.6,0.1,1.1,0.5,1.6,1.1c0.2,0.3,0.3,0.4,0.4,0.5
			c0.1-0.3,0.4-1.6,1.2-1.7c0.8-0.1,1,2,1,2c0,0.8,0.2-2.5,1.4-2.5c1,0,1.2,3.1,1.3,2.8c0,0,0.1-2.3,1.2-2.3c1.2,0,0.8,2.5,0.8,2.5
			s0.2-0.4,0.6-1.1c0.5-0.9,1.8-1.3,2.5-1c1.1,0.4,1.8,1.3,1.5,2.3C40.2,16,39,17,39,17s0,0.3,0.1,1.5c0,1.2-1.1,2.4-1.1,2.4
			s0.9-0.3,1.2,0.8c0.2,0.6,0.1,1.2-0.2,1.9c1.1-0.8,2.6-0.4,2.6-0.4c0,0.4,0,0.5,0,0.8c0.1-0.1,0.5-0.3,0.9-0.4
			c1.5-0.5,2-0.4,2-0.4c0.3,0.4,0.3,0.8,0.2,1.2c0,0,0,0,0,0s4.7-0.5,7.9-0.9c3.2-0.4,14.8-0.7,17.5-0.6l8.1,0
			c1.1,0,2.5-0.1,2.5-1.2c0-1-2.3-0.9-3.4-1l-24.2-0.1c-5.3,0-8.7,0.1-10-0.9c-0.6-0.4-1.1-1.1-1.4-1.9c-0.1,0.4-0.3,1.2-1,1.4
			c-0.2,0.1-0.3,0.1-0.3,0.1c0,0-0.1,0.1,0,0c0,0-0.1,0-0.4,0l-0.7,0.2c0,0,0.2,0.2,0.7,0.4c0.4,0.2,0.9,1.3,0.9,1.3
			s-0.4,0.5-0.9,0.8c-0.3,0.2-0.5,0.1-0.5,0.1s0.2-1-0.3-1.3c0,0-0.4-0.3-0.7-0.2l0-0.1c1.4-1.3,0.8-3.5,0.8-3.5s0.6-0.4,1.1-0.3
			c0.9,0.3,0.7,0.3,1.2,0.6c-0.2-0.8-0.2-1.6,0.2-2.4c1.2-2.2,3.6-2.7,6-2.7c2.4,0,36,0.2,36,0.2s-0.7,1.3-1.7,1.6
			c0,0-0.5,0.3-1.3,0.1c-0.8-0.2-3.7-1-3.7-1l1.9,1c0,0-0.8,1-2.8,0.9c-1.9-0.1-3-0.6-3.4-0.8c-0.3-0.2-0.5-0.3-0.5-0.3
			s-0.3,0.3-0.1,0.5c0.2,0.2,0.2,0.1,0.4,0.3c0.3,0.1,0.6,0.3,0.6,0.3s1.4,0.5,0.3,0.9c-1.2,0.3-3.4,0.3-4.3-0.2
			c-0.8-0.5-1.5-1.2-1.5-1.2s-1,0-1.3,0c-0.2,0-0.2,0.4,0,0.4c0.2,0,0.8-0.1,1.1,0c0.1,0,0.5,0.5,0.5,0.5l0.7,0.7
			c0,0-0.3,0.4-1.2,0.4c-0.9,0.1-1.7,0.1-2.5-0.4c-0.7-0.5-1.7-1.6-1.7-1.6s-0.7,0-1,0c-0.4,0,0,0.4,0,0.4l0.9,0l1.1,1.2
			c0,0-0.3,0.4-1,0.4c-0.6,0-1.4,0.1-2-0.3c-0.4-0.3-0.6-0.3-2.2-1.7c0,0-0.6,0-1,0c-0.3,0-0.1,0.4-0.1,0.4l0.8,0l1.6,1.3
			c0,0-0.3,0.4-1,0.4c-0.6,0-1.7,0.1-2.5-0.4c-0.8-0.4-1.6-1.7-1.7-1.7c-0.1,0-0.8,0-1,0c-0.3,0-0.2,0.4,0,0.4c0.3,0,0.7,0,0.7,0
			l1.4,1.6c0,0-0.8,0-1.6,0l-0.1,0c-0.6,0-1.5,0.1-2.3-0.4c-0.8-0.4-1.6-1.7-1.7-1.7c-0.1,0-0.7,0-1,0c-0.3,0-0.2,0.4,0,0.4
			c0.3,0,0.7,0,0.7,0l1.4,1.6c0,0-0.9,0.4-1.9,0.1c-1-0.3-1.7-0.6-2.4-0.8c-0.7-0.2-1.1-0.3-2-0.2c-0.9,0-1.4,0.2-1.3,1.1
			c0.1,1.2,4,1,5.8,1c1.8,0,25.4-0.3,27.3-0.3c1.9,0,3.7-0.2,5.1,1.3c1.4,1.5,1.4,3.8-0.4,5.5c-1.7,1.6-6,1-7.3,1c-1.2,0-3,0-3.9,0
			c-0.6,0-1.9,0.4-2.3-0.2c-0.5-0.8-2.9-0.7-2.9-0.7s1.8,0.4,2.5,1.5c0.4,0.8,1.5,0.6,2.3,0.7c1,0.1,2,0.5,4.2,0.2
			c2.2-0.3,4.8-0.2,4.8-0.2s1.6-1.8,3-0.7c0.6,0.5-0.1,1.1-0.6,1.6c0.6-0.4,1.5-0.9,2.3-0.2c1.3,1-0.3,2.3-1,2.8c0,0,1.9-1.4,2.9,0
			c0.8,1.1-0.7,2.2-1.2,2.6c0.5-0.3,1.7-0.8,2.2,0.5c0.5,1.1-0.6,2.1-1.3,2c0,0,0.8,0.5,0.8,1.6c-0.1,1.1-0.5,1.2-0.5,1.2
			s0,0.5,0.5,0.7c0.5,0.2,0.9,0.1,0.9,0.1S86.8,39.5,86.1,39.2z"/>
		<path class="st0" d="M38.3,14.9c0.5,0.2,0,1.8,0,1.8s0.9-0.6,1.3-1.5c0.4-0.8-0.3-2-1.2-2c-1.3,0.1-1.7,1.9-1.7,1.9
			C37.1,14.5,37.8,14.7,38.3,14.9z"/>
		<path class="st1" d="M37.9,20.3c0,0,0-0.2-0.2-0.3c-0.1-0.1,0-0.2,0-0.2s0-0.1,0.1-0.2c0-0.1,0.7-0.3,0.6-1c0,0-0.6,0.1-0.6-0.1
			c0-0.1,0-0.1,0-0.1s0.1-0.2,0.2-0.3c0.1-0.1,0.1-0.9,0.1-0.9s-0.2,0.2-0.7,0.3c-0.4,0.1-0.5-0.4-1.6,0.2c-1.1,0.6-1.9,0.8-2,0.9
			c-0.2,0.2-0.5,0.4-0.5,0.4c-0.3,0.1,0,0.3,0.2,0.3l0.2-0.1l0,0c0.1,0,0.2-0.1,0.2,0.2c0,0.4,0.2,0.8,0.2,1c0,0.2,0.1,0.6,0.1,0.6
			s0.3-0.2,0.5-0.3c0.2-0.1,0.7,0.1,1.2,0c0.5-0.1,1-0.4,1.3-0.5C37.5,20.3,37.9,20.3,37.9,20.3z"/>
		<path class="st0" d="M35.6,14.6c0,0,0.2-1.4-0.3-1.4c-0.4-0.1-0.5,1.4-0.5,1.4C35.4,14.4,35.6,14.6,35.6,14.6z"/>
		<path class="st1" d="M30.3,46.8c-0.4-0.1-0.8-0.5-0.8-0.5s-0.1,0.6,0.3,1c0.1,0.1,0.2,0.3,0.2,0.3s0.1,0.1,0.1,0.2
			c0,0.3-0.7-0.2-0.7-0.2c-0.1,0.6,0.6,1.1,0.6,1.2c0,0.1,0.2,0.2,0.2,0.2s-0.1,0.2-0.1,0.2c-0.1,0.1-0.4,0.3-0.4,0.3s0.6,0,0.9,0.1
			c0.2,0.1,0.6,0.4,1.1,0.5c0.5,0.1,0.9-0.2,1.1-0.1c0.2,0.1,0.5,0.1,0.5,0.1s0.1,0,0.1-0.2c0-0.2,0.1-0.5,0.2-0.9
			c0.1-0.4,0.1-0.3,0.4-0.3c0.2,0,0.3-0.2,0-0.3c-0.5-0.3-0.5-0.4-0.5-0.4c-0.2-0.1-0.7-0.1-1.7-0.8C30.9,46.3,30.7,47,30.3,46.8z"
			/>
		<path class="st0" d="M32.4,44c0,0,0-1.1-0.4-1.2c0,0-0.4,0.1-0.5,1.2C31.5,44,31.9,43.8,32.4,44z"/>
	</g>
	<g>
		<g>
			<path class="st2" d="M140.7,48.9c-3.3,0-5.8-0.4-8.3-1.2v-1.4c0-2.5-0.1-3.5-0.2-5h1c0,1.2,0.5,2.5,1.3,3.4
				c1.2,1.4,3.4,2.1,5.8,2.1c3.8,0,7.7-1,7.7-6.3c0-3.9-2.5-5.4-5.7-7.5l-3.1-2c-4-2.6-6.2-4.7-6.2-9.1c0-1.8,0.5-8.8,11-8.8
				c4.4,0,7.8,0.6,7.8,0.6s-0.1,1.4-0.1,2.9c0,1.3,0.1,2.4,0.1,3.5H151c-0.1-1.6-0.6-2.6-1.4-3.4c-1.2-1.2-3.1-1.7-5.4-1.7
				c-5.6,0-6.9,2.7-6.9,5.6c0,3.3,1.7,4.4,5.1,6.7l3.3,2.2c3.4,2.3,6.7,4.2,6.7,9.7C152.5,48.7,142.9,48.9,140.7,48.9z"/>
			<path class="st2" d="M166.8,49.1c-3.9,0-5.7-1.4-6.6-4.2c-0.4-1.2-0.4-3.6-0.4-5c0-4.9,0.1-8.6,0.1-13.5h-3.4v-0.5
				c1.6-0.6,2.3-1.1,3-1.7c1.7-1.4,4.3-5.6,4.3-5.6h0.7v5.7h8.7v2.1h-8.7v13.9c0,3.9,0.6,6.4,5,6.4c1.9,0,3.4-0.8,3.4-0.8l0.3,0.8
				C173.2,46.8,171.2,49.1,166.8,49.1z"/>
			<path class="st2" d="M192.9,49c-2.1,0-3.5-1.2-3.5-3.3c-0.8,1.1-2.8,3.4-6.8,3.4c-6.8,0-6.9-5.3-6.9-6.3c0-1.4,0.4-4.8,4.7-6
				c2.1-0.6,5.7-0.8,8.8-0.8v-2.3c0-1.6,0-3.5-0.3-4.5c-0.8-2.3-2.6-3.1-4.9-3.1c-3.8,0-5.3,2.8-5.4,2.9l-0.8-0.5
				c0.5-1.7,2.8-5,8.1-5c3.8,0,5.7,1.2,6.9,2.9c1,1.6,1.1,3.8,1.1,6.3c0,3.7-0.2,8.1-0.2,9.9c0,1.6,0,3.4,2.1,3.4
				c0.5,0,0.9-0.1,1.2-0.4l0.5,0.6C196.3,48,195,49,192.9,49z M189.3,37.4c-3.6,0.2-5.2,0.4-6.4,0.9c-2,0.9-2.5,2.4-2.5,4
				c0,0.9,0.2,4.2,4.3,4.2c2.9,0,4.4-1.3,4.6-1.4V37.4z"/>
			<path class="st2" d="M210.8,49.1c-3.9,0-5.7-1.4-6.6-4.2c-0.4-1.2-0.4-3.6-0.4-5c0-4.9,0.1-8.6,0.1-13.5h-3.4v-0.5
				c1.6-0.6,2.3-1.1,3-1.7c1.7-1.4,4.3-5.6,4.3-5.6h0.7v5.7h8.7v2.1h-8.7v13.9c0,3.9,0.6,6.4,5,6.4c1.9,0,3.4-0.8,3.4-0.8l0.3,0.8
				C217.2,46.8,215.2,49.1,210.8,49.1z"/>
			<path class="st2" d="M224.8,34.8v0.1c0,1.3,0.1,2.5,0.3,3.7c1.2,7.1,6.2,7.7,8.9,7.7c2.1,0,4.1-0.4,5.9-1.3l0.4,0.7
				c-1.7,2.1-5.3,3.4-8.7,3.4c-8.1,0-11.4-5.1-11.4-12c0-4.2,1.8-13.3,11.5-13.3c3.9,0,6.4,1.8,7.6,3.6c1.3,2.1,1.6,4.3,1.6,6.6v0.9
				H224.8z M235.9,32.5c0-2.1-0.1-7-5.5-7c-5.2,0-5.5,5.5-5.5,7.5h11V32.5z"/>
			<path class="st2" d="M252.3,49c-3.5,0-5.8-0.8-6.4-1v-1.1c0-2.5-0.1-3.3-0.3-4.8h0.9c0.1,1.8,0.9,2.8,1.2,3.2
				c1.3,1.6,2.8,1.9,4.9,1.9c0.9,0,4.8,0.1,4.8-4c0-2.2-1.4-3.1-3.5-4.4l-3.6-2.3c-1.9-1.2-3.9-2.8-3.9-6.1c0-1.6,0.3-4.3,3.4-5.8
				c1.3-0.6,3.2-0.9,4.9-0.9c3.3,0,6.2,0.5,6.2,0.5c-0.1,0.6-0.2,2.8-0.2,2.8c0.1,1.4,0,1.9,0.1,2.7h-0.9c-0.1-1.4-0.7-2.3-1-2.7
				c-0.3-0.4-1.6-1.7-4.2-1.7c-4.3,0-4.4,2.9-4.4,3.8c0,2.1,1.7,3.1,2.9,3.9l3.4,2c2.3,1.3,4.9,2.9,4.9,6.7
				C261.6,47.8,256.1,49,252.3,49z"/>
			<path class="st2" d="M288.6,49.2c-7.8,0-11.9-5-11.9-12.4c0-5.8,3.1-13.1,12.4-13.1c7.8,0,11.9,5,11.9,12.4
				C301,41.9,298,49.2,288.6,49.2z M288.9,25.5c-0.5,0-2.5,0-4,1.3c-1.7,1.4-3.3,4.1-3.3,9.7c0,2.9,0.9,10.8,7.1,10.8
				c0.5,0,2.5,0,4-1.3c1.7-1.4,3.3-4.1,3.3-9.7C296,33.4,295.2,25.5,288.9,25.5z"/>
			<path class="st2" d="M323.1,14.7h-0.5c-0.9-2-2.1-3.3-4.5-3.3c-0.9,0-2.1,0.3-2.9,1.1c-1.3,1.3-1.4,3.2-1.4,6.4v5.5h5.7v2.1h-5.7
				v14.7c0,3.4,0.1,4.6,0.6,5.4c0.9,1.3,3.2,1.4,4,1.4v0.9c-2.1-0.1-4.6-0.2-6.4-0.2c-1.9,0-4.1,0-6.4,0.2v-0.8
				c0.7-0.1,1.8-0.3,2.6-1.2c0.9-1,1-2.5,1-7.1V26.4h-3.3v-0.5c1.6-0.6,2.6-1.2,3.3-1.8c0-2,0.1-5.3,0.4-6.9
				c0.4-2.3,1.8-7.5,9.7-7.5c2.6,0,4.7,0.8,5.8,1.7v0.5L323.1,14.7z"/>
			<path class="st2" d="M341,15.3c-0.9,1-1,2.5-1,7.1V49c0,1.2,0.1,4.7-0.3,6.2c-1.3,6.3-6.3,7.3-10,7.3l-0.1-0.9
				c3.1-0.6,5.1-2.3,5.4-6.9c0.1-1.8,0.1-5,0.1-9.9V20.8c0-4.1-0.2-5-1.1-5.8c-0.4-0.4-1.3-0.8-2.3-0.9v-0.8c2.1,0.1,4,0.2,5.8,0.2
				c1.9,0,3.7,0,6-0.2v0.8C342.9,14.1,341.8,14.4,341,15.3z"/>
			<path class="st2" d="M351.8,34.8v0.1c0,1.3,0.1,2.5,0.3,3.7c1.2,7.1,6.2,7.7,8.9,7.7c2.1,0,4.1-0.4,5.9-1.3l0.4,0.7
				c-1.7,2.1-5.3,3.4-8.7,3.4c-8.1,0-11.4-5.1-11.4-12c0-4.2,1.8-13.3,11.5-13.3c3.9,0,6.4,1.8,7.6,3.6c1.3,2.1,1.6,4.3,1.6,6.6v0.9
				H351.8z M362.9,32.5c0-2.1-0.1-7-5.5-7c-5.2,0-5.5,5.5-5.5,7.5h11V32.5z"/>
			<path class="st2" d="M388.8,29.2h-0.4c-0.4-0.6-1.6-2.3-4.6-2.3c-1.4,0-2.5,0.4-3.3,1.1v13.1c0,3.4,0.1,4.6,0.6,5.4
				c0.9,1.3,3.2,1.4,4,1.4v0.9c-2.1-0.1-4.6-0.2-6.4-0.2c-1.9,0-4.1,0-6.4,0.2v-0.8c0.7-0.1,1.8-0.3,2.6-1.2c0.9-1,1-2.5,1-7.1v-7.3
				c0-3.4-0.1-4.7-0.6-5.5c-0.8-1.1-2.3-1.1-2.9-1.1v-0.9c0.7,0.1,2.9-0.1,5.1-0.5c1-0.2,2-0.4,2.6-0.6l0.2,0.2v3.3
				c0.6-0.8,2.7-3.2,6.4-3.2c2.3,0,3.4,0.8,3.9,1.3v0.4L388.8,29.2z"/>
			<path class="st2" d="M400.3,49c-3.5,0-5.8-0.8-6.4-1v-1.1c0-2.5-0.1-3.3-0.3-4.8h0.9c0.1,1.8,0.9,2.8,1.2,3.2
				c1.3,1.6,2.8,1.9,4.9,1.9c0.9,0,4.8,0.1,4.8-4c0-2.2-1.4-3.1-3.5-4.4l-3.6-2.3c-1.9-1.2-3.9-2.8-3.9-6.1c0-1.6,0.3-4.3,3.4-5.8
				c1.3-0.6,3.2-0.9,4.9-0.9c3.3,0,6.2,0.5,6.2,0.5c-0.1,0.6-0.2,2.8-0.2,2.8c0.1,1.4,0,1.9,0.1,2.7h-0.9c-0.1-1.4-0.7-2.3-1-2.7
				c-0.3-0.4-1.6-1.7-4.2-1.7c-4.3,0-4.4,2.9-4.4,3.8c0,2.1,1.7,3.1,2.9,3.9l3.4,2c2.3,1.3,4.9,2.9,4.9,6.7
				C409.6,47.8,404.1,49,400.3,49z"/>
			<path class="st2" d="M419.2,34.8v0.1c0,1.3,0.1,2.5,0.3,3.7c1.2,7.1,6.2,7.7,8.9,7.7c2.1,0,4.1-0.4,5.9-1.3l0.4,0.7
				c-1.7,2.1-5.3,3.4-8.7,3.4c-8.1,0-11.4-5.1-11.4-12c0-4.2,1.8-13.3,11.5-13.3c3.9,0,6.4,1.8,7.6,3.6c1.3,2.1,1.6,4.3,1.6,6.6v0.9
				H419.2z M430.3,32.5c0-2.1-0.1-7-5.5-7c-5.2,0-5.5,5.5-5.5,7.5h11V32.5z"/>
			<path class="st2" d="M460.5,26.5c-0.3,0.5-0.9,1.9-1,2.4l-9.7,25.9c-1.5,4-3.2,8.1-9.6,8.1c-2.6,0-4.3-0.6-5.6-1.8v-0.5l1.8-2.5
				h0.5c1.1,2,3.1,2.3,4.2,2.3c3.6,0,5-3.3,7.1-8.6l0.6-1.7L440.5,29c-0.2-0.5-0.8-1.9-1-2.4c-0.3-0.5-0.9-1.6-2.5-1.6v-0.8
				c1.5,0.1,3.7,0.2,5.2,0.2c1.4,0,3.9-0.2,5.4-0.2v0.8c-0.3,0-1.5,0.1-2.2,0.7c-0.3,0.3-0.5,0.6-0.5,1.1c0,0.7,0.3,1.7,0.9,3.1
				l3.6,9.7c1.2,3.1,1.7,5.1,1.7,5.1l5-14.8c0.5-1.6,0.8-2.4,0.8-3.1c0-0.5-0.2-0.8-0.5-1.1c-0.5-0.5-1.6-0.7-2.1-0.7v-0.8
				c1.5,0.1,2.8,0.2,4.3,0.2c1.4,0,3.1-0.1,4.6-0.2v0.8C461.4,24.9,460.6,26.3,460.5,26.5z"/>
		</g>
		<g>
			<path class="st2" d="M478.6,48.8c-2.6,0-4.5-0.3-6.4-0.9v-1.1c0-1.9-0.1-2.7-0.2-3.9h0.7c0,0.9,0.4,1.9,1,2.6
				c0.9,1.1,2.6,1.6,4.5,1.6c2.9,0,5.9-0.8,5.9-4.9c0-3-1.9-4.1-4.4-5.8l-2.4-1.6c-3.1-2-4.7-3.6-4.7-7c0-1.4,0.4-6.8,8.5-6.8
				c3.4,0,6,0.5,6,0.5s-0.1,1.1-0.1,2.3c0,1,0,1.8,0.1,2.7h-0.7c-0.1-1.2-0.5-2-1.1-2.6c-0.9-0.9-2.4-1.3-4.2-1.3
				c-4.3,0-5.3,2.1-5.3,4.3c0,2.5,1.3,3.4,4,5.2l2.6,1.7c2.6,1.8,5.2,3.2,5.2,7.4C487.7,48.7,480.2,48.8,478.6,48.8z"/>
			<path class="st2" d="M498.6,49c-3,0-4.4-1.1-5.1-3.2c-0.3-0.9-0.3-2.8-0.3-3.9c0-3.8,0-6.6,0.1-10.4h-2.6v-0.4
				c1.2-0.5,1.7-0.8,2.3-1.3c1.3-1.1,3.3-4.3,3.3-4.3h0.5v4.4h6.7v1.6h-6.7v10.7c0,3,0.5,4.9,3.8,4.9c1.5,0,2.6-0.6,2.6-0.6l0.2,0.6
				C503.6,47.2,502.1,49,498.6,49z"/>
			<path class="st2" d="M518.8,48.9c-1.6,0-2.7-0.9-2.7-2.6c-0.6,0.8-2.2,2.6-5.2,2.6c-5.2,0-5.3-4.1-5.3-4.9c0-1.1,0.3-3.7,3.6-4.6
				c1.6-0.5,4.4-0.6,6.8-0.6v-1.7c0-1.2,0-2.7-0.2-3.5c-0.6-1.7-2-2.4-3.8-2.4c-2.9,0-4.1,2.2-4.1,2.3l-0.6-0.4
				c0.4-1.3,2.2-3.8,6.2-3.8c2.9,0,4.4,0.9,5.3,2.3c0.7,1.2,0.8,2.9,0.8,4.9c0,2.8-0.1,6.2-0.1,7.6c0,1.2,0,2.6,1.6,2.6
				c0.4,0,0.7-0.1,0.9-0.3l0.4,0.5C521.4,48.1,520.4,48.9,518.8,48.9z M515.9,40c-2.8,0.1-4,0.3-4.9,0.7c-1.6,0.7-1.9,1.9-1.9,3.1
				c0,0.7,0.1,3.3,3.3,3.3c2.2,0,3.4-1,3.5-1.1V40z"/>
			<path class="st2" d="M532.5,49c-3,0-4.4-1.1-5.1-3.2c-0.3-0.9-0.3-2.8-0.3-3.9c0-3.8,0-6.6,0.1-10.4h-2.6v-0.4
				c1.2-0.5,1.7-0.8,2.3-1.3c1.3-1.1,3.3-4.3,3.3-4.3h0.5v4.4h6.7v1.6h-6.7v10.7c0,3,0.5,4.9,3.8,4.9c1.5,0,2.6-0.6,2.6-0.6l0.2,0.6
				C537.4,47.2,535.9,49,532.5,49z"/>
			<path class="st2" d="M543.3,37.9L543.3,37.9c0,1.1,0,2,0.2,2.9c0.9,5.4,4.8,5.9,6.8,5.9c1.6,0,3.1-0.3,4.5-1l0.3,0.5
				c-1.3,1.6-4,2.6-6.7,2.6c-6.3,0-8.8-3.9-8.8-9.2c0-3.3,1.4-10.3,8.9-10.3c3,0,4.9,1.4,5.8,2.8c1,1.6,1.2,3.3,1.2,5.1v0.7H543.3z
				 M551.8,36.2c0-1.6-0.1-5.4-4.2-5.4c-4,0-4.2,4.2-4.2,5.7h8.5V36.2z"/>
			<path class="st2" d="M564.4,48.9c-2.7,0-4.5-0.6-4.9-0.8v-0.8c0-1.9-0.1-2.6-0.2-3.7h0.7c0.1,1.4,0.7,2.2,0.9,2.4
				c1,1.2,2.2,1.4,3.8,1.4c0.7,0,3.7,0,3.7-3.1c0-1.7-1.1-2.4-2.7-3.4l-2.8-1.7c-1.5-0.9-3-2.2-3-4.7c0-1.2,0.2-3.3,2.6-4.5
				c1-0.5,2.5-0.7,3.8-0.7c2.6,0,4.7,0.4,4.7,0.4c-0.1,0.5-0.1,2.1-0.1,2.2c0,1.1,0,1.5,0.1,2.1h-0.7c0-1.1-0.5-1.7-0.8-2.1
				c-0.2-0.3-1.2-1.3-3.2-1.3c-3.3,0-3.4,2.2-3.4,2.9c0,1.6,1.3,2.4,2.3,3l2.6,1.6c1.8,1,3.8,2.2,3.8,5.2
				C571.5,48,567.3,48.9,564.4,48.9z"/>
			<path class="st2" d="M602.6,48.5c-1.1,0-3.1,0.1-4.3,0.2V48c0.6,0,1.3-0.2,1.7-0.5c0.2-0.2,0.4-0.5,0.4-0.9
				c0-0.5-0.3-1.5-0.7-2.4l-2.4-6.8h-8.5l-2.6,6.8c-0.3,0.9-0.7,1.9-0.7,2.4c0,0.4,0.1,0.7,0.4,0.9c0.4,0.4,1,0.5,1.6,0.5v0.6
				c0,0-2.6-0.2-3.7-0.2c-1.1,0-2.2,0-3.3,0.2V48c1.5-0.1,2-1.2,2.1-1.4c0.2-0.2,0.7-1.5,1.4-3.2l9.3-22.1l1.8-0.3l8,21.9
				c0.7,2.1,1.2,3.3,1.5,3.8c0.1,0.2,0.6,1.3,2.1,1.4v0.6C605.5,48.6,603.7,48.5,602.6,48.5z M594.6,29.9c-0.9-2.6-1.4-4-1.4-4
				l-3.8,9.7h7.2L594.6,29.9z"/>
			<path class="st2" d="M613.2,48.9c-2.7,0-4.5-0.6-4.9-0.8v-0.8c0-1.9-0.1-2.6-0.2-3.7h0.7c0.1,1.4,0.7,2.2,0.9,2.4
				c1,1.2,2.2,1.4,3.8,1.4c0.7,0,3.7,0,3.7-3.1c0-1.7-1.1-2.4-2.7-3.4l-2.8-1.7c-1.5-0.9-3-2.2-3-4.7c0-1.2,0.2-3.3,2.6-4.5
				c1-0.5,2.5-0.7,3.8-0.7c2.6,0,4.7,0.4,4.7,0.4c-0.1,0.5-0.1,2.1-0.1,2.2c0,1.1,0,1.5,0.1,2.1H619c0-1.1-0.5-1.7-0.8-2.1
				c-0.2-0.3-1.2-1.3-3.2-1.3c-3.3,0-3.4,2.2-3.4,2.9c0,1.6,1.3,2.4,2.3,3l2.6,1.6c1.8,1,3.8,2.2,3.8,5.2
				C620.3,48,616.1,48.9,613.2,48.9z"/>
			<path class="st2" d="M629.4,48.9c-2.7,0-4.5-0.6-4.9-0.8v-0.8c0-1.9-0.1-2.6-0.2-3.7h0.7c0.1,1.4,0.7,2.2,0.9,2.4
				c1,1.2,2.2,1.4,3.8,1.4c0.7,0,3.7,0,3.7-3.1c0-1.7-1.1-2.4-2.7-3.4l-2.8-1.7c-1.5-0.9-3-2.2-3-4.7c0-1.2,0.2-3.3,2.6-4.5
				c1-0.5,2.5-0.7,3.8-0.7c2.6,0,4.7,0.4,4.7,0.4c-0.1,0.5-0.1,2.1-0.1,2.2c0,1.1,0,1.5,0.1,2.1h-0.7c0-1.1-0.5-1.7-0.8-2.1
				c-0.2-0.3-1.2-1.3-3.2-1.3c-3.3,0-3.4,2.2-3.4,2.9c0,1.6,1.3,2.4,2.3,3l2.6,1.6c1.8,1,3.8,2.2,3.8,5.2
				C636.6,48,632.4,48.9,629.4,48.9z"/>
			<path class="st2" d="M644,37.9L644,37.9c0,1.1,0,2,0.2,2.9c0.9,5.4,4.8,5.9,6.8,5.9c1.6,0,3.1-0.3,4.5-1l0.3,0.5
				c-1.3,1.6-4,2.6-6.7,2.6c-6.3,0-8.8-3.9-8.8-9.2c0-3.3,1.4-10.3,8.9-10.3c3,0,4.9,1.4,5.8,2.8c1,1.6,1.2,3.3,1.2,5.1v0.7H644z
				 M652.5,36.2c0-1.6-0.1-5.4-4.2-5.4c-4,0-4.2,4.2-4.2,5.7h8.5V36.2z"/>
			<path class="st2" d="M688.5,48.5c-1.4,0-2.8,0-4.5,0.2v-0.6c0.8-0.1,1.5-0.4,1.9-0.8c0.9-0.9,0.8-2.2,0.9-3.9c0-0.7,0-2.3,0-3.5
				c0-3.9-0.1-5.6-1-6.9c-0.3-0.5-1.4-1.6-3.7-1.6c-1.9,0-3.3,0.7-4.5,1.5c0.2,0.3,0.2,0.8,0.3,0.9c0.2,0.7,0.2,2.1,0.2,3.3v5.7
				c0,3.3,0.1,3.8,0.9,4.5c0.4,0.4,1.2,0.6,1.8,0.7v0.6c-1.6-0.1-3-0.2-4.4-0.2s-2.7,0-4.5,0.2v-0.6c0.8-0.1,1.4-0.4,1.8-0.8
				c0.9-0.9,0.8-2.2,0.9-3.9c0-0.7,0-2.3,0-3.5c0-1.7,0-3.4-0.2-5c-0.2-1.7-1.3-3.6-4.4-3.6c-0.5,0-2.4,0.1-3.9,1v10.6
				c0,3.3,0.1,3.8,0.9,4.5c0.4,0.4,1.2,0.6,1.8,0.7v0.6c-1.6-0.1-3-0.2-4.4-0.2c-1.4,0-2.8,0-4.5,0.2v-0.6c0.5,0,1.4-0.2,2-0.9
				c0.7-0.8,0.7-1.9,0.7-5.5V36c0-2.6,0-3.6-0.5-4.2c-0.6-0.8-1.8-0.8-2.2-0.9v-0.7c0.5,0,2.3,0,4-0.4c0.8-0.1,1.6-0.3,2-0.5
				l0.2,0.1v2.2c0.3-0.3,2.7-2.4,6-2.4c3.1,0,4.7,1.4,5.4,2.8c0.9-0.9,3.3-2.8,6.7-2.8c3.6,0,5.5,1.7,6.1,4.3
				c0.2,0.7,0.2,2.3,0.2,3.4v5.8c0,3.3,0.1,3.8,0.9,4.5c0.4,0.4,1.2,0.6,1.8,0.7v0.6C691.3,48.6,689.9,48.5,688.5,48.5z"/>
			<path class="st2" d="M714.7,43.6c-1.5,3.2-4.6,5.4-9,5.4c-1.9,0-4.1-0.5-5.7-1.4l-2.1,1.4l-0.2-0.1c0.2-1.5,0.2-4.5,0.2-7.7v-16
				c0-2.6,0-3.6-0.5-4.2c-0.5-0.8-1.7-0.8-2.2-0.9v-0.7c0.5,0,2.5-0.1,4.2-0.4c0.8-0.2,1.6-0.3,2.1-0.5l0.1,0.1
				c-0.1,1.5-0.2,4.5-0.2,7.7v5.3c0.2-0.2,2.2-2.3,5.8-2.3c5.3,0,8.5,3.8,8.5,9.1C715.8,40.5,715.4,42.2,714.7,43.6z M705.2,31.3
				c-0.2,0-2.1-0.1-3.7,1v13.5c0.2,0.2,1.4,1.6,4.3,1.6c5.2,0,6.1-4.7,6.1-8.4C711.9,37.5,711.6,31.3,705.2,31.3z"/>
			<path class="st2" d="M723.9,48.5c-1.4,0-3,0-4.7,0.2v-0.6c0.7-0.1,1.6-0.2,2.2-0.9c0.7-0.8,0.7-2,0.7-5.5V25.2
				c0-2.6,0-3.6-0.5-4.2c-0.6-0.8-1.8-0.8-2.2-0.9v-0.7c0.5,0,2.5-0.1,4.2-0.4c0.8-0.2,1.6-0.3,2.1-0.5l0.1,0.1
				c-0.1,1.5-0.2,4.5-0.2,7.7v16.6c0,3.3,0.1,3.8,0.9,4.5c0.4,0.4,1.4,0.6,2,0.7v0.6C726.9,48.6,725.3,48.5,723.9,48.5z"/>
			<path class="st2" d="M747.7,31.6c-0.2,0.4-0.7,1.5-0.8,1.9l-7.4,19.9c-1.2,3.1-2.5,6.3-7.4,6.3c-2,0-3.3-0.5-4.3-1.4v-0.4
				l1.4-1.9h0.4c0.8,1.6,2.4,1.7,3.2,1.7c2.8,0,3.9-2.5,5.4-6.6l0.5-1.3l-6.4-16.3c-0.2-0.4-0.6-1.5-0.8-1.9
				c-0.2-0.4-0.7-1.2-1.9-1.2v-0.6c1.2,0.1,2.8,0.2,4,0.2c1.1,0,3-0.1,4.2-0.2v0.6c-0.2,0-1.2,0.1-1.7,0.5c-0.2,0.2-0.4,0.5-0.4,0.9
				c0,0.5,0.2,1.3,0.7,2.4l2.8,7.5c0.9,2.4,1.3,3.9,1.3,3.9l3.9-11.4c0.4-1.2,0.6-1.8,0.6-2.4c0-0.4-0.1-0.6-0.4-0.9
				c-0.4-0.4-1.2-0.5-1.6-0.5v-0.6c1.2,0,2.1,0.2,3.3,0.2c1.1,0,2.4-0.1,3.5-0.2v0.6C748.4,30.4,747.8,31.5,747.7,31.6z"/>
		</g>
		<g>
			<path class="st2" d="M148.4,96h-9.9c-2.3,0-4.7,0-7,0.1v-0.6c0.6,0,1.4-0.2,2-0.9c0.7-0.8,0.7-1.9,0.7-5.5V74.7
				c0-3.1,0-3.7-0.7-4.4c-0.4-0.5-1-0.7-1.9-0.8v-0.6c2.3,0.1,3.8,0.1,6.1,0.1h10.6c0,0,0,3.1,0.1,5h-0.7c0-1.3-0.5-2.2-1-2.7
				c-0.8-0.7-2-0.7-3.7-0.7h-5v10.5h4.6c1.7,0,2.6-0.1,3.2-0.8c0.7-0.7,0.7-1.7,0.7-2.4h0.7c0,0.9-0.1,1.3-0.1,3.9
				c0,2.6,0.1,2.9,0.1,3.8h-0.7c0-0.7-0.1-1.6-0.8-2.3c-0.6-0.7-1.7-0.7-3.3-0.7H138v9.6c0,1.9,0.5,2.1,2.7,2.1h2.4
				c1.8,0,3,0,3.8-0.8c0.5-0.6,0.9-1.4,1-2.9h0.7C148.4,92.6,148.4,96,148.4,96z M145.8,63.1l-8.5,3.8l-0.3-0.5l6.1-5.7l0.3-0.1
				l2.6,1.8L145.8,63.1z"/>
			<path class="st2" d="M160,96.4c-3,0-4.4-1.1-5.1-3.2c-0.3-0.9-0.3-2.8-0.3-3.9c0-3.8,0-6.6,0.1-10.4h-2.6v-0.4
				c1.2-0.5,1.7-0.8,2.3-1.3c1.3-1.1,3.3-4.3,3.3-4.3h0.5v4.4h6.7v1.6h-6.7v10.7c0,3,0.5,4.9,3.8,4.9c1.5,0,2.6-0.6,2.6-0.6l0.2,0.6
				C164.9,94.7,163.4,96.4,160,96.4z"/>
			<path class="st2" d="M180.1,96.3c-1.6,0-2.7-0.9-2.7-2.6c-0.6,0.8-2.2,2.6-5.2,2.6c-5.2,0-5.3-4.1-5.3-4.9c0-1.1,0.3-3.7,3.6-4.6
				c1.6-0.5,4.4-0.6,6.8-0.6v-1.7c0-1.2,0-2.7-0.2-3.5c-0.6-1.7-2-2.4-3.8-2.4c-2.9,0-4.1,2.2-4.1,2.3l-0.6-0.4
				c0.4-1.3,2.2-3.8,6.2-3.8c2.9,0,4.4,0.9,5.3,2.3c0.7,1.2,0.8,2.9,0.8,4.9c0,2.8-0.1,6.2-0.1,7.6c0,1.2,0,2.6,1.6,2.6
				c0.4,0,0.7-0.1,0.9-0.3l0.4,0.5C182.7,95.6,181.7,96.3,180.1,96.3z M177.3,87.4c-2.8,0.1-4,0.3-4.9,0.7c-1.6,0.7-1.9,1.9-1.9,3.1
				c0,0.7,0.1,3.3,3.3,3.3c2.2,0,3.4-1,3.5-1.1V87.4z"/>
			<path class="st2" d="M193.8,96.4c-3,0-4.4-1.1-5.1-3.2c-0.3-0.9-0.3-2.8-0.3-3.9c0-3.8,0-6.6,0.1-10.4h-2.6v-0.4
				c1.2-0.5,1.7-0.8,2.3-1.3c1.3-1.1,3.3-4.3,3.3-4.3h0.5v4.4h6.7v1.6h-6.7v10.7c0,3,0.5,4.9,3.8,4.9c1.5,0,2.6-0.6,2.6-0.6l0.2,0.6
				C198.8,94.7,197.2,96.4,193.8,96.4z"/>
			<path class="st2" d="M206.3,96.3c-2.7,0-4.5-0.6-4.9-0.8v-0.8c0-1.9-0.1-2.6-0.2-3.7h0.7c0.1,1.4,0.7,2.2,0.9,2.4
				c1,1.2,2.2,1.4,3.8,1.4c0.7,0,3.7,0,3.7-3.1c0-1.7-1.1-2.4-2.7-3.4l-2.8-1.7c-1.5-0.9-3-2.2-3-4.7c0-1.2,0.2-3.3,2.6-4.5
				c1-0.5,2.5-0.7,3.8-0.7c2.6,0,4.7,0.4,4.7,0.4c-0.1,0.5-0.1,2.1-0.1,2.2c0,1.1,0,1.5,0.1,2.1h-0.7c0-1.1-0.5-1.7-0.8-2.1
				c-0.2-0.3-1.2-1.3-3.2-1.3c-3.3,0-3.4,2.2-3.4,2.9c0,1.6,1.3,2.4,2.3,3l2.6,1.6c1.8,1,3.8,2.2,3.8,5.2
				C213.5,95.4,209.3,96.3,206.3,96.3z"/>
			<path class="st2" d="M241.7,95.9c-0.8,0.1-1.6,0.3-2.1,0.5l-0.2-0.1v-2.2c-0.2,0.2-2.4,2.3-5.9,2.3c-5.3,0-8.5-3.8-8.5-9.1
				c0-2,0.4-3.8,1-5.1c1.5-3.2,4.6-5.4,9-5.4c2.1,0,3.7,0.3,4.2,0.5v-4.7c0-2.6,0-3.6-0.5-4.2c-0.6-0.8-1.8-0.8-2.2-0.9v-0.7
				c0.5,0,2.6,0,4.2-0.4c0.7-0.1,1.5-0.3,2-0.5l0.1,0.1c-0.1,1.5-0.2,4.5-0.2,7.7v16c0,2.6,0,3.6,0.5,4.2c0.6,0.8,1.8,0.8,2.2,0.9
				v0.7C245.1,95.5,243.3,95.6,241.7,95.9z M239.4,79.9c-0.2-0.2-1.4-1.6-4.3-1.6c-5.2,0-6.1,4.7-6.1,8.4c0,1.5,0.3,7.7,6.7,7.7
				c0.2,0,2.1,0.1,3.7-1V79.9z"/>
			<path class="st2" d="M252.2,85.4L252.2,85.4c0,1.1,0,2,0.2,2.9c0.9,5.4,4.8,5.9,6.8,5.9c1.6,0,3.1-0.3,4.5-1l0.3,0.5
				c-1.3,1.6-4,2.6-6.7,2.6c-6.3,0-8.8-3.9-8.8-9.2c0-3.3,1.4-10.3,8.9-10.3c3,0,4.9,1.4,5.8,2.8c1,1.6,1.2,3.3,1.2,5.1v0.7H252.2z
				 M260.7,83.6c0-1.6-0.1-5.4-4.2-5.4c-4,0-4.2,4.2-4.2,5.7h8.5V83.6z"/>
			<path class="st2" d="M282.8,70.4c-0.7,0.8-0.7,1.9-0.7,5.5v20.5c0,0.9,0,3.6-0.2,4.7c-1,4.8-4.9,5.6-7.7,5.6l-0.1-0.7
				c2.4-0.5,3.9-1.8,4.2-5.3c0.1-1.4,0.1-3.9,0.1-7.6V74.6c0-3.2-0.1-3.8-0.9-4.5c-0.3-0.3-1-0.6-1.8-0.7v-0.6
				c1.6,0.1,3.1,0.2,4.5,0.2c1.4,0,2.8,0,4.6-0.2v0.6C284.3,69.5,283.4,69.7,282.8,70.4z"/>
			<path class="st2" d="M291.2,85.4L291.2,85.4c0,1.1,0,2,0.2,2.9c0.9,5.4,4.8,5.9,6.8,5.9c1.6,0,3.1-0.3,4.5-1l0.3,0.5
				c-1.3,1.6-4,2.6-6.7,2.6c-6.3,0-8.8-3.9-8.8-9.2c0-3.3,1.4-10.3,8.9-10.3c3,0,4.9,1.4,5.8,2.8c1,1.6,1.2,3.3,1.2,5.1v0.7H291.2z
				 M299.7,83.6c0-1.6-0.1-5.4-4.2-5.4c-4,0-4.2,4.2-4.2,5.7h8.5V83.6z"/>
			<path class="st2" d="M319.6,81.1h-0.3c-0.3-0.5-1.2-1.8-3.5-1.8c-1.1,0-1.9,0.3-2.6,0.8v10.1c0,2.6,0.1,3.5,0.5,4.1
				c0.7,1,2.4,1.1,3.1,1.1v0.7c-1.6-0.1-3.5-0.2-4.9-0.2c-1.4,0-3.1,0-4.9,0.2v-0.6c0.5,0,1.4-0.2,2-0.9c0.7-0.8,0.7-1.9,0.7-5.5
				v-5.6c0-2.6,0-3.6-0.5-4.2c-0.6-0.8-1.8-0.8-2.2-0.9v-0.7c0.5,0,2.3,0,4-0.4c0.7-0.1,1.6-0.3,2-0.5l0.2,0.1v2.6
				c0.5-0.6,2.1-2.5,4.9-2.5c1.7,0,2.6,0.6,3,1v0.3L319.6,81.1z"/>
			<path class="st2" d="M328.5,96.3c-2.7,0-4.5-0.6-4.9-0.8v-0.8c0-1.9-0.1-2.6-0.2-3.7h0.7c0.1,1.4,0.7,2.2,0.9,2.4
				c1,1.2,2.2,1.4,3.8,1.4c0.7,0,3.7,0,3.7-3.1c0-1.7-1.1-2.4-2.7-3.4l-2.8-1.7c-1.5-0.9-3-2.2-3-4.7c0-1.2,0.2-3.3,2.6-4.5
				c1-0.5,2.5-0.7,3.8-0.7c2.6,0,4.7,0.4,4.7,0.4c-0.1,0.5-0.1,2.1-0.1,2.2c0,1.1,0,1.5,0.1,2.1h-0.7c0-1.1-0.5-1.7-0.8-2.1
				c-0.2-0.3-1.2-1.3-3.2-1.3c-3.3,0-3.4,2.2-3.4,2.9c0,1.6,1.3,2.4,2.3,3l2.6,1.6c1.8,1,3.8,2.2,3.8,5.2
				C335.6,95.4,331.4,96.3,328.5,96.3z"/>
			<path class="st2" d="M343,85.4L343,85.4c0,1.1,0,2,0.2,2.9c0.9,5.4,4.8,5.9,6.8,5.9c1.6,0,3.1-0.3,4.5-1l0.3,0.5
				c-1.3,1.6-4,2.6-6.7,2.6c-6.3,0-8.8-3.9-8.8-9.2c0-3.3,1.4-10.3,8.9-10.3c3,0,4.9,1.4,5.8,2.8c1,1.6,1.2,3.3,1.2,5.1v0.7H343z
				 M351.5,83.6c0-1.6-0.1-5.4-4.2-5.4c-4,0-4.2,4.2-4.2,5.7h8.5V83.6z"/>
			<path class="st2" d="M374.8,79c-0.2,0.4-0.7,1.5-0.8,1.9l-7.4,19.9c-1.2,3.1-2.5,6.3-7.4,6.3c-2,0-3.3-0.5-4.3-1.4v-0.4l1.4-1.9
				h0.4c0.8,1.6,2.4,1.7,3.2,1.7c2.8,0,3.9-2.5,5.4-6.6l0.5-1.3l-6.4-16.3c-0.2-0.4-0.6-1.5-0.8-1.9c-0.2-0.4-0.7-1.2-1.9-1.2v-0.6
				c1.2,0.1,2.8,0.2,4,0.2c1.1,0,3-0.1,4.2-0.2v0.6c-0.2,0-1.2,0.1-1.7,0.5c-0.2,0.2-0.4,0.5-0.4,0.9c0,0.5,0.2,1.3,0.7,2.4l2.8,7.5
				c0.9,2.4,1.3,3.9,1.3,3.9l3.9-11.4c0.4-1.2,0.6-1.8,0.6-2.4c0-0.4-0.1-0.6-0.4-0.9c-0.4-0.4-1.2-0.5-1.6-0.5v-0.6
				c1.2,0,2.1,0.2,3.3,0.2c1.1,0,2.4-0.1,3.5-0.2v0.6C375.5,77.8,374.9,78.9,374.8,79z"/>
			<path class="st2" d="M405.2,95.9c-1.1,0-3.1,0.1-4.3,0.2v-0.6c0.6,0,1.3-0.2,1.7-0.5c0.2-0.2,0.4-0.5,0.4-0.9
				c0-0.5-0.3-1.5-0.7-2.4l-2.4-6.8h-8.5l-2.6,6.8c-0.3,0.9-0.7,1.9-0.7,2.4c0,0.4,0.1,0.7,0.4,0.9c0.4,0.4,1,0.5,1.6,0.5v0.6
				c0,0-2.6-0.2-3.7-0.2c-1.1,0-2.2,0-3.3,0.2v-0.6c1.5-0.1,2-1.2,2.1-1.4c0.2-0.2,0.7-1.5,1.4-3.2l9.3-22.1l1.8-0.3l8,21.9
				c0.7,2.1,1.2,3.3,1.5,3.8c0.1,0.2,0.6,1.3,2.1,1.4v0.6C408.1,96,406.3,95.9,405.2,95.9z M397.2,77.4c-0.9-2.6-1.4-4-1.4-4
				l-3.8,9.7h7.2L397.2,77.4z"/>
			<path class="st2" d="M415.8,96.3c-2.7,0-4.5-0.6-4.9-0.8v-0.8c0-1.9-0.1-2.6-0.2-3.7h0.7c0.1,1.4,0.7,2.2,0.9,2.4
				c1,1.2,2.2,1.4,3.8,1.4c0.7,0,3.7,0,3.7-3.1c0-1.7-1.1-2.4-2.7-3.4l-2.8-1.7c-1.5-0.9-3-2.2-3-4.7c0-1.2,0.2-3.3,2.6-4.5
				c1-0.5,2.5-0.7,3.8-0.7c2.6,0,4.7,0.4,4.7,0.4c-0.1,0.5-0.1,2.1-0.1,2.2c0,1.1,0,1.5,0.1,2.1h-0.7c0-1.1-0.5-1.7-0.8-2.1
				c-0.2-0.3-1.2-1.3-3.2-1.3c-3.3,0-3.4,2.2-3.4,2.9c0,1.6,1.3,2.4,2.3,3l2.6,1.6c1.8,1,3.8,2.2,3.8,5.2
				C422.9,95.4,418.7,96.3,415.8,96.3z"/>
			<path class="st2" d="M432.1,96.3c-2.7,0-4.5-0.6-4.9-0.8v-0.8c0-1.9-0.1-2.6-0.2-3.7h0.7c0.1,1.4,0.7,2.2,0.9,2.4
				c1,1.2,2.2,1.4,3.8,1.4c0.7,0,3.7,0,3.7-3.1c0-1.7-1.1-2.4-2.7-3.4l-2.8-1.7c-1.5-0.9-3-2.2-3-4.7c0-1.2,0.2-3.3,2.6-4.5
				c1-0.5,2.5-0.7,3.8-0.7c2.6,0,4.7,0.4,4.7,0.4c-0.1,0.5-0.1,2.1-0.1,2.2c0,1.1,0,1.5,0.1,2.1h-0.7c0-1.1-0.5-1.7-0.8-2.1
				c-0.2-0.3-1.2-1.3-3.2-1.3c-3.3,0-3.4,2.2-3.4,2.9c0,1.6,1.3,2.4,2.3,3l2.6,1.6c1.8,1,3.8,2.2,3.8,5.2
				C439.2,95.4,435,96.3,432.1,96.3z"/>
			<path class="st2" d="M446.6,85.4L446.6,85.4c0,1.1,0,2,0.2,2.9c0.9,5.4,4.8,5.9,6.8,5.9c1.6,0,3.1-0.3,4.5-1l0.3,0.5
				c-1.3,1.6-4,2.6-6.7,2.6c-6.3,0-8.8-3.9-8.8-9.2c0-3.3,1.4-10.3,8.9-10.3c3,0,4.9,1.4,5.8,2.8c1,1.6,1.2,3.3,1.2,5.1v0.7H446.6z
				 M455.1,83.6c0-1.6-0.1-5.4-4.2-5.4c-4,0-4.2,4.2-4.2,5.7h8.5V83.6z"/>
			<path class="st2" d="M491.1,95.9c-1.4,0-2.8,0-4.5,0.2v-0.6c0.8-0.1,1.5-0.4,1.9-0.8c0.9-0.9,0.8-2.2,0.9-3.9c0-0.7,0-2.3,0-3.5
				c0-3.9-0.1-5.6-1-6.9c-0.3-0.5-1.4-1.6-3.7-1.6c-1.9,0-3.3,0.7-4.5,1.5c0.2,0.3,0.2,0.8,0.3,0.9c0.2,0.7,0.2,2.1,0.2,3.3v5.7
				c0,3.3,0.1,3.8,0.9,4.5c0.4,0.4,1.2,0.6,1.8,0.7v0.6c-1.6-0.1-3-0.2-4.4-0.2c-1.4,0-2.7,0-4.5,0.2v-0.6c0.8-0.1,1.4-0.4,1.8-0.8
				c0.9-0.9,0.8-2.2,0.9-3.9c0-0.7,0-2.3,0-3.5c0-1.7,0-3.4-0.2-5c-0.2-1.7-1.3-3.6-4.4-3.6c-0.5,0-2.4,0.1-3.9,1v10.6
				c0,3.3,0.1,3.8,0.9,4.5c0.4,0.4,1.2,0.6,1.8,0.7v0.6c-1.6-0.1-3-0.2-4.4-0.2c-1.4,0-2.8,0-4.5,0.2v-0.6c0.5,0,1.4-0.2,2-0.9
				c0.7-0.8,0.7-1.9,0.7-5.5v-5.6c0-2.6,0-3.6-0.5-4.2c-0.6-0.8-1.8-0.8-2.2-0.9v-0.7c0.5,0,2.3,0,4-0.4c0.8-0.1,1.6-0.3,2-0.5
				l0.2,0.1v2.2c0.3-0.3,2.7-2.4,6-2.4c3.1,0,4.7,1.4,5.4,2.8c0.9-0.9,3.3-2.8,6.7-2.8c3.6,0,5.5,1.7,6.1,4.3
				c0.2,0.7,0.2,2.3,0.2,3.4v5.8c0,3.3,0.1,3.8,0.9,4.5c0.4,0.4,1.2,0.6,1.8,0.7v0.6C493.9,96,492.6,95.9,491.1,95.9z"/>
			<path class="st2" d="M517.4,91c-1.5,3.2-4.6,5.4-9,5.4c-1.9,0-4.1-0.5-5.7-1.4l-2.1,1.4l-0.2-0.1c0.2-1.5,0.2-4.5,0.2-7.7v-16
				c0-2.6,0-3.6-0.5-4.2c-0.5-0.8-1.7-0.8-2.2-0.9v-0.7c0.5,0,2.5-0.1,4.2-0.4c0.8-0.2,1.6-0.3,2.1-0.5l0.1,0.1
				c-0.1,1.5-0.2,4.5-0.2,7.7v5.3c0.2-0.2,2.2-2.3,5.8-2.3c5.3,0,8.5,3.8,8.5,9.1C518.4,87.9,518,89.7,517.4,91z M507.8,78.8
				c-0.2,0-2.1-0.1-3.7,1v13.5c0.2,0.2,1.4,1.6,4.3,1.6c5.2,0,6.1-4.7,6.1-8.4C514.5,84.9,514.2,78.8,507.8,78.8z"/>
			<path class="st2" d="M526.5,95.9c-1.4,0-3,0-4.7,0.2v-0.6c0.7-0.1,1.6-0.2,2.2-0.9c0.7-0.8,0.7-2,0.7-5.5V72.6
				c0-2.6,0-3.6-0.5-4.2c-0.6-0.8-1.8-0.8-2.2-0.9v-0.7c0.5,0,2.5-0.1,4.2-0.4c0.8-0.2,1.6-0.3,2.1-0.5l0.1,0.1
				c-0.1,1.5-0.2,4.5-0.2,7.7v16.6c0,3.3,0.1,3.8,0.9,4.5c0.4,0.4,1.4,0.6,2,0.7v0.6C529.5,96,527.9,95.9,526.5,95.9z"/>
			<path class="st2" d="M537.9,85.4L537.9,85.4c0,1.1,0,2,0.2,2.9c0.9,5.4,4.8,5.9,6.8,5.9c1.6,0,3.1-0.3,4.5-1l0.3,0.5
				c-1.3,1.6-4,2.6-6.7,2.6c-6.3,0-8.8-3.9-8.8-9.2c0-3.3,1.4-10.3,8.9-10.3c3,0,4.9,1.4,5.8,2.8c1,1.6,1.2,3.3,1.2,5.1v0.7H537.9z
				 M546.4,83.6c0-1.6-0.1-5.4-4.2-5.4c-4,0-4.2,4.2-4.2,5.7h8.5V83.6z M547.7,69l-7.1,5.7l-0.5-0.3l4.4-6.9l0.2-0.1l3,1.1L547.7,69
				z"/>
			<path class="st2" d="M557.3,85.4L557.3,85.4c0,1.1,0,2,0.2,2.9c0.9,5.4,4.8,5.9,6.8,5.9c1.6,0,3.1-0.3,4.5-1l0.3,0.5
				c-1.3,1.6-4,2.6-6.7,2.6c-6.3,0-8.8-3.9-8.8-9.2c0-3.3,1.4-10.3,8.9-10.3c3,0,4.9,1.4,5.8,2.8c1,1.6,1.2,3.3,1.2,5.1v0.7H557.3z
				 M565.8,83.6c0-1.6-0.1-5.4-4.2-5.4c-4,0-4.2,4.2-4.2,5.7h8.5V83.6z"/>
			<path class="st2" d="M597.5,95.9c-0.8,0.1-1.6,0.3-2.1,0.5l-0.2-0.1v-2.2c-0.2,0.2-2.4,2.3-5.9,2.3c-5.3,0-8.5-3.8-8.5-9.1
				c0-2,0.4-3.8,1-5.1c1.5-3.2,4.6-5.4,9-5.4c2.1,0,3.7,0.3,4.2,0.5v-4.7c0-2.6,0-3.6-0.5-4.2c-0.6-0.8-1.8-0.8-2.2-0.9v-0.7
				c0.5,0,2.6,0,4.2-0.4c0.7-0.1,1.5-0.3,2-0.5l0.1,0.1c-0.1,1.5-0.2,4.5-0.2,7.7v16c0,2.6,0,3.6,0.5,4.2c0.6,0.8,1.8,0.8,2.2,0.9
				v0.7C600.9,95.5,599.1,95.6,597.5,95.9z M595.2,79.9c-0.2-0.2-1.4-1.6-4.3-1.6c-5.2,0-6.1,4.7-6.1,8.4c0,1.5,0.3,7.7,6.7,7.7
				c0.2,0,2.1,0.1,3.7-1V79.9z"/>
			<path class="st2" d="M608,85.4L608,85.4c0,1.1,0,2,0.2,2.9c0.9,5.4,4.8,5.9,6.8,5.9c1.6,0,3.1-0.3,4.5-1l0.3,0.5
				c-1.3,1.6-4,2.6-6.7,2.6c-6.3,0-8.8-3.9-8.8-9.2c0-3.3,1.4-10.3,8.9-10.3c3,0,4.9,1.4,5.8,2.8c1,1.6,1.2,3.3,1.2,5.1v0.7H608z
				 M616.5,83.6c0-1.6-0.1-5.4-4.2-5.4c-4,0-4.2,4.2-4.2,5.7h8.5V83.6z"/>
			<path class="st2" d="M629.1,96.3c-2.7,0-4.5-0.6-4.9-0.8v-0.8c0-1.9-0.1-2.6-0.2-3.7h0.7c0.1,1.4,0.7,2.2,0.9,2.4
				c1,1.2,2.2,1.4,3.8,1.4c0.7,0,3.7,0,3.7-3.1c0-1.7-1.1-2.4-2.7-3.4l-2.8-1.7c-1.5-0.9-3-2.2-3-4.7c0-1.2,0.2-3.3,2.6-4.5
				c1-0.5,2.5-0.7,3.8-0.7c2.6,0,4.7,0.4,4.7,0.4c-0.1,0.5-0.1,2.1-0.1,2.2c0,1.1,0,1.5,0.1,2.1h-0.7c0-1.1-0.5-1.7-0.8-2.1
				c-0.2-0.3-1.2-1.3-3.2-1.3c-3.3,0-3.4,2.2-3.4,2.9c0,1.6,1.3,2.4,2.3,3l2.6,1.6c1.8,1,3.8,2.2,3.8,5.2
				C636.2,95.4,632,96.3,629.1,96.3z"/>
			<path class="st2" d="M664.7,96h-9.9c-2.3,0-4.7,0-7,0.1v-0.6c0.6,0,1.4-0.2,2-0.9c0.7-0.8,0.7-1.9,0.7-5.5V74.7
				c0-3.1,0-3.7-0.7-4.4c-0.4-0.5-1-0.7-1.9-0.8v-0.6c2.3,0.1,3.8,0.1,6.1,0.1h10.6c0,0,0,3.1,0.1,5H664c0-1.3-0.5-2.2-1-2.7
				c-0.8-0.7-2-0.7-3.7-0.7h-5v10.5h4.6c1.7,0,2.6-0.1,3.2-0.8c0.7-0.7,0.7-1.7,0.7-2.4h0.7c0,0.9-0.1,1.3-0.1,3.9
				c0,2.6,0.1,2.9,0.1,3.8h-0.7c0-0.7-0.1-1.6-0.8-2.3c-0.6-0.7-1.7-0.7-3.3-0.7h-4.5v9.6c0,1.9,0.5,2.1,2.7,2.1h2.4
				c1.8,0,3,0,3.8-0.8c0.5-0.6,0.9-1.4,1-2.9h0.7C664.7,92.6,664.7,96,664.7,96z M662.1,63.1l-8.5,3.8l-0.3-0.5l6.1-5.7l0.3-0.1
				l2.6,1.8L662.1,63.1z"/>
			<path class="st2" d="M676.3,96.4c-3,0-4.4-1.1-5.1-3.2c-0.3-0.9-0.3-2.8-0.3-3.9c0-3.8,0-6.6,0.1-10.4h-2.6v-0.4
				c1.2-0.5,1.7-0.8,2.3-1.3c1.3-1.1,3.3-4.3,3.3-4.3h0.5v4.4h6.7v1.6h-6.7v10.7c0,3,0.5,4.9,3.8,4.9c1.5,0,2.6-0.6,2.6-0.6l0.2,0.6
				C681.2,94.7,679.7,96.4,676.3,96.4z"/>
			<path class="st2" d="M696.4,96.3c-1.6,0-2.7-0.9-2.7-2.6c-0.6,0.8-2.2,2.6-5.2,2.6c-5.2,0-5.3-4.1-5.3-4.9c0-1.1,0.3-3.7,3.6-4.6
				c1.6-0.5,4.4-0.6,6.8-0.6v-1.7c0-1.2,0-2.7-0.2-3.5c-0.6-1.7-2-2.4-3.8-2.4c-2.9,0-4.1,2.2-4.1,2.3l-0.6-0.4
				c0.4-1.3,2.2-3.8,6.2-3.8c2.9,0,4.4,0.9,5.3,2.3c0.7,1.2,0.8,2.9,0.8,4.9c0,2.8-0.1,6.2-0.1,7.6c0,1.2,0,2.6,1.6,2.6
				c0.4,0,0.7-0.1,0.9-0.3l0.4,0.5C699,95.6,698,96.3,696.4,96.3z M693.6,87.4c-2.8,0.1-4,0.3-4.9,0.7c-1.6,0.7-1.9,1.9-1.9,3.1
				c0,0.7,0.1,3.3,3.3,3.3c2.2,0,3.4-1,3.5-1.1V87.4z"/>
			<path class="st2" d="M710.1,96.4c-3,0-4.4-1.1-5.1-3.2c-0.3-0.9-0.3-2.8-0.3-3.9c0-3.8,0-6.6,0.1-10.4h-2.6v-0.4
				c1.2-0.5,1.7-0.8,2.3-1.3c1.3-1.1,3.3-4.3,3.3-4.3h0.5v4.4h6.7v1.6h-6.7v10.7c0,3,0.5,4.9,3.8,4.9c1.5,0,2.6-0.6,2.6-0.6l0.2,0.6
				C715.1,94.7,713.5,96.4,710.1,96.4z"/>
			<path class="st2" d="M722.6,96.3c-2.7,0-4.5-0.6-4.9-0.8v-0.8c0-1.9-0.1-2.6-0.2-3.7h0.7c0.1,1.4,0.7,2.2,0.9,2.4
				c1,1.2,2.2,1.4,3.8,1.4c0.7,0,3.7,0,3.7-3.1c0-1.7-1.1-2.4-2.7-3.4l-2.8-1.7c-1.5-0.9-3-2.2-3-4.7c0-1.2,0.2-3.3,2.6-4.5
				c1-0.5,2.5-0.7,3.8-0.7c2.6,0,4.7,0.4,4.7,0.4c-0.1,0.5-0.1,2.1-0.1,2.2c0,1.1,0,1.5,0.1,2.1h-0.7c0-1.1-0.5-1.7-0.8-2.1
				c-0.2-0.3-1.2-1.3-3.2-1.3c-3.3,0-3.4,2.2-3.4,2.9c0,1.6,1.3,2.4,2.3,3l2.6,1.6c1.8,1,3.8,2.2,3.8,5.2
				C729.8,95.4,725.6,96.3,722.6,96.3z"/>
		</g>
	</g>
</g>
</svg>
