<?xml version="1.0" encoding="utf-8"?>
<!-- Generator: Adobe Illustrator 21.1.0, SVG Export Plug-In . SVG Version: 6.00 Build 0)  -->
<svg version="1.1" id="Layer_4" xmlns="http://www.w3.org/2000/svg" xmlns:xlink="http://www.w3.org/1999/xlink" x="0px" y="0px"
	 viewBox="0 0 836.7 114" style="enable-background:new 0 0 836.7 114;" xml:space="preserve">
<style type="text/css">
	.st0{fill-rule:evenodd;clip-rule:evenodd;fill:none;}
	.st1{fill-rule:evenodd;clip-rule:evenodd;fill:#FFFFFF;}
	.st2{fill:#FFFFFF;}
</style>
<g>
	<g>
		<path class="st0" d="M420.5,63.4c0.2,0.1,0.4,0.2,0.4,0.2S420.7,63.5,420.5,63.4z"/>
		<path class="st0" d="M434.5,53.7c-0.1-0.1-0.2-0.1-0.2-0.1S434.4,53.7,434.5,53.7z"/>
		<path class="st0" d="M449.1,58.3c0.1-0.1,0.3-0.3,0.6-0.5C449.3,58.1,449.1,58.3,449.1,58.3z"/>
		<path class="st1" d="M404.9,47.7l0.2-0.1v0c0.1-0.1,0.2-0.1,0.2,0.2c0,0.4,0.2,0.7,0.2,0.9c0,0.2,0.1,0.6,0.1,0.6s0.3-0.2,0.4-0.3
			c0.2-0.1,0.6,0.1,1.1,0c0.5-0.1,1-0.4,1.2-0.5c0.2-0.1,0.6-0.1,0.6-0.1s0-0.2-0.2-0.3c-0.1-0.1,0-0.2,0-0.2s0-0.1,0.1-0.2
			c0-0.1,0.7-0.3,0.6-0.9c0,0-0.5,0.1-0.5-0.1c0-0.1,0-0.1,0-0.1s0.1-0.2,0.2-0.3c0.1-0.1,0.1-0.8,0.1-0.8s-0.2,0.2-0.6,0.3
			c-0.4,0.1-0.4-0.4-1.5,0.2c-1,0.6-1.7,0.7-1.9,0.9c-0.2,0.2-0.5,0.4-0.5,0.4C404.5,47.5,404.7,47.7,404.9,47.7z"/>
		<path class="st0" d="M429.7,66.5c0-0.2,0-0.4,0-0.4S429.7,66.3,429.7,66.5z"/>
		<path class="st0" d="M452.5,62.9c-0.1,0.1-0.2,0.1-0.2,0.1S452.3,63,452.5,62.9z"/>
		<path class="st0" d="M409.3,43.4c0.5,0.2,0,1.7,0,1.7s0.8-0.6,1.2-1.4c0.4-0.8-0.3-1.9-1.1-1.9c-1.2,0.1-1.6,1.8-1.6,1.8
			C408.1,43.1,408.8,43.2,409.3,43.4z"/>
		<path class="st0" d="M406.7,43.1c0,0,0.2-1.3-0.3-1.4c-0.4-0.1-0.5,1.3-0.5,1.3C406.5,42.9,406.7,43.1,406.7,43.1z"/>
		<path class="st0" d="M419.9,65.1c0.7-0.1,1.4-0.3,1.4-0.3S420.6,65,419.9,65.1z"/>
		<path class="st0" d="M404.2,72.1c0,0,0-0.9-0.4-1c0,0-0.4,0.1-0.5,1.1C403.4,72.2,403.7,72,404.2,72.1z"/>
		<path class="st0" d="M402.5,72.7c0,0-0.6-1.5-1.7-1.5c0,0-1.5,0.1-0.9,1.7c0,0,0.1,0.3,0.6,0.8c0,0,0.8,0.7,0.6,0.1
			c-0.2-0.6-0.8-1.2-0.3-1.5c0.5-0.3,0.8-0.1,1,0.1C402,72.3,402.3,72.6,402.5,72.7z"/>
		<path class="st0" d="M408.2,72.2c0,0,0.1-1.1-0.3-1.2c-0.4,0-0.4,1.1-0.4,1.1C408,72,408.2,72.2,408.2,72.2z"/>
		<path class="st0" d="M410.5,72.4c0.4,0.2,0,1.4,0,1.4s0.7-0.5,1.1-1.2c0.3-0.7-0.2-1.6-1-1.6c-1.1,0.1-1.5,1.6-1.5,1.6
			C409.5,72.2,410.1,72.3,410.5,72.4z"/>
		<path class="st0" d="M408.5,82.6L408.5,82.6C408.5,82.6,408.5,82.6,408.5,82.6L408.5,82.6z"/>
		<path class="st1" d="M410.2,76.9c0,0,0-0.2-0.1-0.3c-0.1,0,0-0.2,0-0.2s0-0.1,0.1-0.2c0-0.1,0.6-0.3,0.5-0.8c0,0-0.5,0.1-0.5-0.1
			c0-0.1,0-0.1,0-0.1s0.1-0.1,0.2-0.3c0.1-0.1,0.1-0.7,0.1-0.7s-0.2,0.2-0.6,0.3c-0.4,0.1-0.4-0.4-1.3,0.2c-0.9,0.5-1.6,0.6-1.7,0.8
			c-0.1,0.2-0.4,0.3-0.4,0.3c-0.2,0.1,0,0.3,0.2,0.3l0.2-0.1v0c0.1,0,0.2-0.1,0.2,0.2c0,0.4,0.2,0.6,0.2,0.8c0,0.2,0.1,0.5,0.1,0.5
			s0.2-0.2,0.4-0.2c0.1-0.1,0.6,0,1,0c0.5-0.1,0.9-0.4,1.1-0.4C409.9,76.9,410.2,76.9,410.2,76.9z"/>
		<path class="st0" d="M405.8,70.8c-0.6,0.2-0.5,1.4-0.5,1.4c0.5-0.2,1.1,0,1.1,0C406.3,70.7,405.8,70.8,405.8,70.8z"/>
		<path class="st1" d="M405.6,75.8c-0.4-0.2-0.4-0.3-0.5-0.4c-0.2-0.1-0.6-0.1-1.5-0.7c-0.9-0.6-1-0.1-1.3-0.2
			c-0.4-0.1-0.7-0.4-0.7-0.4s0,0.5,0.2,0.9c0.1,0.1,0.2,0.3,0.2,0.3s0.1,0.1,0.1,0.1c0,0.3-0.6-0.2-0.6-0.2c-0.1,0.5,0.5,0.9,0.5,1
			c0,0.1,0.2,0.2,0.2,0.2s0,0.2-0.1,0.2c-0.1,0.1-0.4,0.2-0.4,0.2s0.6,0,0.8,0c0.2,0,0.6,0.3,1,0.4c0.5,0.1,0.8-0.2,0.9-0.1
			c0.2,0.1,0.4,0.1,0.4,0.1s0.1,0,0.1-0.2c0-0.2,0.1-0.4,0.2-0.8c0.1-0.3,0.1-0.2,0.4-0.2C405.8,76.1,405.9,75.9,405.6,75.8z"/>
		<path class="st0" d="M399,44.9c-0.2-0.6-0.8-1.4-0.3-1.7c0.5-0.3,0.8-0.1,1.2,0.2c0,0,0.4,0.3,0.6,0.4c0,0-0.7-1.7-1.9-1.8
			c0,0-1.7,0.1-0.9,1.9c0,0,0.1,0.3,0.7,0.9C398.3,44.8,399.2,45.6,399,44.9z"/>
		<path class="st0" d="M396.9,14.1c0.6-0.3,0.9-0.1,1.2,0.1c0,0,0.4,0.3,0.6,0.4c0,0-0.7-1.8-1.9-1.9c0,0-1.8,0.1-1,2
			c0,0,0.1,0.3,0.7,1c0,0,0.9,0.8,0.7,0.1C397,15.2,396.3,14.4,396.9,14.1z"/>
		<path class="st0" d="M400.7,14c0,0,0-1.1-0.4-1.2c0,0-0.4,0.1-0.5,1.3C399.7,14,400.1,13.8,400.7,14z"/>
		<path class="st0" d="M404.7,43.1c-0.1-1.7-0.7-1.6-0.7-1.6c-0.6,0.2-0.6,1.6-0.6,1.6C404.1,42.9,404.7,43.1,404.7,43.1z"/>
		<path class="st1" d="M402.4,18.4c-0.5-0.3-0.5-0.4-0.6-0.5c-0.2-0.1-0.7-0.1-1.7-0.8c-1-0.7-1.1-0.1-1.6-0.2
			c-0.4-0.1-0.8-0.5-0.8-0.5s-0.1,0.6,0.3,1.1c0.1,0.1,0.2,0.3,0.2,0.3s0.1,0.1,0.1,0.2c0,0.3-0.7-0.2-0.7-0.2
			c-0.1,0.6,0.6,1.1,0.6,1.2c0.1,0.1,0.2,0.2,0.2,0.2s-0.1,0.2-0.1,0.3c-0.1,0.1-0.5,0.3-0.5,0.3s0.7,0,0.9,0.1
			c0.2,0.1,0.7,0.4,1.2,0.5c0.5,0.1,0.9-0.2,1.1-0.1c0.2,0.1,0.5,0.1,0.5,0.1s0.1,0,0.1-0.2c0-0.2,0.1-0.5,0.2-1
			c0.1-0.4,0.1-0.3,0.5-0.3C402.5,18.7,402.7,18.5,402.4,18.4z"/>
		<path class="st0" d="M402.6,12.3c-0.7,0.2-0.6,1.7-0.6,1.7c0.6-0.2,1.3,0,1.3,0C403.2,12.2,402.6,12.3,402.6,12.3z"/>
		<path class="st1" d="M371.2,1.4v65.4c0,26.1,21.1,47.2,47.1,47.2s47.1-21.1,47.1-47.2V1.4H371.2z M444.7,88.8c0,0,1.4,0.4,1.3,1.8
			c0,0-0.8,0.8-2.7,0.4l0.1,0.1c1.4,1,0.9,1.6,0.9,1.6c-0.6,1.5-2.4,0.6-2.4,0.6c0.6,1.9-0.7,2.9-0.7,2.9c-0.2,0.1-0.4,0.1-0.4,0.1
			c-1.1,0-0.4,1.2-0.4,1.2c-1-0.7-0.8-1.6-0.8-1.6c-1.1-0.9,0-2.5,0-2.7c0-0.2-0.2-0.2-0.2-0.2c-0.8,1.1-0.5,2.3-0.5,2.3
			c-0.4,0.9-1.2,0.6-1.9,0.6c-1-0.1-0.7,1.3-0.7,1.3c-0.7-0.8-0.2-1.5-0.2-1.5l-0.1-0.2c-0.2-0.9,1.1-1.2,1.1-1.2s0.2-0.1,0.2-0.2
			c0.6-1.2,1.3-1.6,1.3-1.6c-0.5,0.1-0.9,0.3-1.4,1.4c-0.9,1-1.7,0.2-1.7,0.2c-0.6-0.1-0.7,0.9-0.7,0.9c-0.5-1,0.4-1.6,0.4-1.6
			c0.2-1.6,2.5-1.5,2.5-1.5c0.9-0.4,1.2-0.3,1.8-1.4c0.2-0.4,0.4-2.5,0.4-2.5c-1,0.4-2.7,0.8-2.7,0.8c-1.4,0.3-2.7,0.2-3.1,0.2
			c-1.1,0-2.9,0-4.8-0.8c-1.9-0.8-1.8-1-2.4-2.1c0,0-0.3-1.7-3-2.2v0l0.7,0.6c0,0,0.5,0.4,0.5,0.5c0.6,0.5,0.6,1.9,0.6,1.9
			c0,0.1,0.5,1.7,3,2.2c2.2,0.4,3.1,0.6,3.1,0.6s2.2,0.3,2.4,1.6c0,0-0.1,1-2,1.3c0,0,1.5,2.4-0.3,3.2c0,0-0.8,0.2-1.9-0.7
			c0,0,1.1,2.2-0.4,2.9c-1.3,0.6-2.4-1.2-2.4-1.2s0,2.1-1.5,2.5c0,0-1.2,0.2-2.4-1.4l-0.1,0.5c-0.1,1.5-2.4,1.1-2.4,1.1
			c-0.9,0.1-0.9,1.2-0.9,1.2c-0.4-0.5-0.1-1.5-0.1-1.5c-0.7-1.3,1-2.2,1-2.2c0.9-0.7,0.2-0.4,0.2-0.4c-0.9,0.6-0.5,0.5-1.6,1
			c-0.7,0.3-1.4-0.3-1.4-0.3s-0.5-0.9-1.3,0.6c0,0-0.2-1.2,0.8-1.7c0,0,0.2-0.5,0.7-0.8c0.9-0.4,1.1-0.2,1.8-0.1
			c0.8,0,0.1-0.4,0.1-0.4s-1.2-0.4-1.2-1.2c0-0.8,0.3-1.1,0.2-1.2c-0.2-0.5-0.5-0.5-1.2-0.9c0,0,0.4,0.1,1.9,0.2
			c0.9,0,1.6,0.3,1.6,1.8c0,0.6,0,0.8,0.3,1.2c0.3,0.3,2-1,2-1s2.1-1.2,3.3-1.8c1.2-0.6,1.6-0.9,2.1-1.2c0.1-0.1-3.4-0.2-4.4-1.6
			c0,0-0.9-1.1-0.3-2.7c0,0-0.5-0.7-2-0.8c-0.6,0-1.3,0-2.5,0.1c-1,0.1-3,0.2-3.8,1.2c-1.6,2-2.9,2.4-3.8,2.4c0,0.5-0.1,0.9-0.1,0.9
			c-0.7,0-1.4-0.1-2-0.4c-0.7-0.3-0.6-0.3-0.9-0.4c0,0,0.4,1.1-0.3,0.7l-0.3-0.2c0.4,0.7,0.3,1.1-0.5,1c0,0.6-0.4,1-0.4,1
			c-0.1,0-0.5,0-0.6,0c-0.1,0.3-0.3,0.5-0.6,0.6c-1.1,0.2-1.6-0.9-1.7-1.6c0-0.3-0.1-0.6-0.1-0.9c0,0.6-0.1,1.7-0.8,2.2
			c-1,0.7-1.6-0.4-1.8-1.2c-0.3-0.7-0.5-1.8-0.5-1.8s-0.5,1.5-1.5,2.1c-1,0.5-1.2,0.4-1.2,0.4s-1.1-0.3-1.1-1.6
			c-0.1-1.3,0-1.6,0-1.6S397,90,396,90.4c-1,0.4-1.4-0.3-1.4-1.6c0-1.3,0-1.5,0-1.5s-1.9,0.8-2.7,0.8c-0.8,0-1.3-0.2-1.4-0.7
			c-0.3-1-1.1,0.2-1.1,0.2s0.1-1.2,0.9-1.5c0.5-0.2,0.7-0.4,1.2-0.5c0.6-0.1,0.7-0.1,0.7-0.1s0-0.3-0.2-0.3c-0.2,0-0.4-0.1-0.7,0
			c-0.3,0.1-0.8,0.1-1.1-0.1c-0.7-0.3-0.3-1.2-0.8-1.3c-0.5-0.1-1,0.3-1,0.3s0.9-1.2,2-1.1c1.1,0.1,1.4,0.4,1.4,0.4s0.3,0,0.2-0.2
			c-0.2-0.2-0.4-0.3-0.6-0.4c-0.2-0.2-0.7-0.6-0.3-1.3c0.3-0.5,0.4-1,0.1-1.3c-0.3-0.3-0.8-0.2-0.8-0.2s0.9-0.7,1.5,0.1
			c0.3,0.4,1.1,1.3,1.3,1.8c0.3,0.6,0.8,1.6,1.3,1.9c0.4,0.3,1.3,0.6,1.8,0.8c0.5,0.3,1.8,1.1,3.2,0.9c0-0.1,0-0.2,0-0.2
			c-0.1-0.3-0.2-0.7-0.2-1c0,0-0.1-0.5-0.1-0.9c0-0.6,0.1-1,0.2-1.5c-0.3,0.4-0.8,0.9-1.3,1.1c-0.5,0.2-1.2,0-1.6-0.9
			c-0.4-0.9-0.3-2.2-0.1-2.6c0.2-0.4,0-0.5-0.1-0.1c-0.2,0.4-0.8,1.1-1.6,1.3c-0.8,0.1-1.3-0.3-1.7-1.6c-0.4-1.3-0.2-2-0.5-2.2
			c-0.2-0.3-0.5-0.6-1-0.4c-0.5,0.1-1.2,0.6-1.8,0.6c-0.6,0-0.8,0.1-1.2-0.3c-0.4-0.4-0.4-0.9-0.7-0.9c-0.3,0-0.8,0.3-0.8,0.3
			s0.4-0.8,0.9-0.9c0.4-0.1,1,0,1.2-0.3c0.2-0.3,0.3-0.5,0.8-0.6c0.5-0.2,1.1-0.3,1.1-0.3s-1-0.3-1.5-1c-0.4-0.5-0.4-1-0.3-1.6
			c0.2-1.6-1.4-1.2-1.4-1.2c1.3-1,1.7-0.2,2-0.3c0.6-0.3,1,0,1,0l0.3,0.3c0,0,0.3,0.3,0.6,1.1c0,0,0,0.6,0.4,0.8
			c0,0,0.1,0.1,0.3,0.5c0,0-0.1-0.7-0.3-0.9c-0.2-0.2-0.3-0.4,0-0.9c0.4-0.7,0.6-0.5,0.5-1c-0.1-0.6-0.8-0.7-0.8-0.7
			s1.3,0.1,1.6,0.4c0.3,0.3,1.2,1.1,0.5,2.2c-0.5,0.8-0.3,1.9,0.5,2.5c0.5,0.3,1.9,1.3,3.2,2.2l0,0c0.2,0.1,0.9,0.6,1,0.7
			c1.1,1.5,1.8,1.6,1.8,1.6s0,0.8,0.4,1.4c0.1,0.1,0.2,0.3,0.5,0.7c0.4,0.5,0.8,0.8,1.1,1.1c1.1,0.7,2.4,1.3,2.4,1.3
			c0,0.1,0.1,0.6,0.1,0.7c0.3,0.7,0.6,1.1,0.9,1.2c0.1,0.1,0.3,0.1,0.4,0.1c0.1,0,0.1,0,0.2,0c0.1,0,0.2,0,0.4-0.1l0,0
			c0.2,0,0.6-0.4,0.6-0.4l0.4-0.6c0-0.1,0.1-0.5,0.2-0.6c0-0.1,0-0.3,0-0.6c0-0.1,0-0.3,0-0.4c0,0,0,0,0,0l0-0.8
			c2.2-0.4,2.5-2.5,2.5-2.5s-0.3,0.2-0.4,0.4c-0.2,0.2-0.1-0.6-0.3-0.5c0,0-0.3,1.7-1.8,1.8c-1.5,0.1-1.3-0.9-1.3-0.9l-0.3,0
			c0,0.8-1.4,0.8-1.4,0.8c-0.8-0.2-1.5-0.6-1.7-1.5c0-0.1-0.3,0.4-0.3,0.4c-0.3-0.1-0.5-0.2-0.5-0.2c0.4,1.4,1.6,2,2.5,2.3l-0.1,0.9
			c-0.8-0.3-1.8-0.7-2.6-1.4c-1.4-1.3-1.7-2.3-1.5-3.2c0.3-0.9,1-0.6,1-0.6c-0.3-0.3-0.8-0.1-0.8-0.1c-0.7,0.4-0.5,1.2-0.5,1.2
			s-0.1,0.1-0.4-0.1c-0.4-0.2-0.7-0.6-0.7-0.6s0.5-1.1,0.9-1.2c0.4-0.1,1-0.1,1-0.1l-0.1-0.1c0,0-1-0.2-1.5-0.4
			c-0.7-0.3-0.8-1.3-0.8-1.3c0.6-0.4,0.3-0.3,1.1-0.6c0.3-0.1,0.9,0.2,1.1,0.3c-0.3-0.3-1.4-1.6-1.4-2.4c0-0.4,0.2-2,2.1-1.7
			c0.5,0.1,0.9,0.4,1.3,0.9c0.2,0.2,0.3,0.3,0.3,0.4c0.1-0.3,0.3-1.3,1-1.4c0.7-0.1,0.9,1.6,0.9,1.6c0,0.7,0.2-2,1.2-2
			c0.9,0,1.1,2.5,1.1,2.3c0,0,0.1-1.9,1-1.8c1,0,0.7,2,0.7,2s0.2-0.3,0.5-0.9c0.4-0.7,1.5-1,2.1-0.8c0.9,0.4,1.5,1.1,1.3,1.9
			c-0.2,1-1.3,1.9-1.3,1.9s0,0.2,0.1,1.2c0,0.9-0.9,2-0.9,2s0.8-0.3,1,0.6c0.3,0.9,0,1.9-1.5,3.2c-0.5,0.4-1.1,0.8-1.6,1
			c0,0,0,0,0,0c0.1,0.1,0.1,0.1,0.1,0.1l0.1,0.2c0.5-0.3,1-0.6,1.5-1c1.5-1.1,1.9-2.2,1.8-2.8c1.1-0.4,2.1-0.4,2.1-0.4
			c0,0.5,0,0.9-0.1,1.3c0.8-0.4,2.1-0.4,2.1-0.4c0.1,0.4,0,0.8,0,1.2c0.8,0,3.3,0,5.7-0.1c2.9-0.1,12.4,0,14.8,0.1
			c2.3,0,3.1-0.1,4.1,0c0.9,0,3-0.6,2.2-1.4c-0.6-0.6-1.9-0.5-2.9-0.5c-1.3,0-14.1,0-16.5,0c-4.5,0-7,0.1-8.1-0.7
			c-1.1-0.8-1.7-2.8-0.8-4.1c0.9-1.3,2.9-1.6,4.9-1.5l23.6,0.2c-1.4,2.3-2.7,1.3-2.9,1.2c0,0-0.2-0.2-0.5,0c0,0-0.2,0.3,0.2,0.5
			l0.4,0.2c-0.9,0.6-1.5,0.3-1.5,0.3c-0.5-0.3-1.1-1.1-1.1-1.1s-0.9,0-1.1,0c-0.2,0,0,0.5,0.2,0.5c0.1,0,0.4,0,0.6,0
			c0,0,0.3,0.5,1,0.8l0.7,0.2l-0.9,0.3c-0.6,0.1-1,0.2-1.6-0.1c-0.8-0.3-1.7-1.6-1.7-1.6s-0.9,0-1.1,0c-0.2,0,0,0.5,0.2,0.5
			c0.1,0,0.5-0.1,0.7,0c0,0,0.4,0.5,0.4,0.5l0.8,0.9c0,0-0.5,0.1-1.3,0c-0.8-0.1-0.8,0-1.4-0.5c-0.6-0.5-1.4-1.4-1.4-1.4
			s-0.6,0-0.9,0c-0.3,0,0.2,0.5,0.2,0.5l0.6,0.1l1,1.3c0,0-0.5,0-1,0.1c-0.5,0-1.3,0.1-1.8-0.3c-0.3-0.2-0.5-0.3-1.8-1.5
			c0,0-0.6,0-0.8,0c-0.3,0,0,0.3,0,0.3l0.7,0l1.4,1.3c0,0-0.3,0.1-0.9,0.1c-0.5,0-1.1,0.1-1.8-0.3c-0.6-0.4-1.3-1.5-1.4-1.5
			c-0.1,0-0.6,0-0.9,0c-0.2,0-0.2,0.3,0,0.3c0.3,0,0.6,0,0.6,0l1.2,1.4c0,0-0.5,0-1.2,0l-0.5,0c-0.5,0-0.6,0-1.3-0.3
			c-0.6-0.4-1.3-1.4-1.4-1.5c-0.1,0-0.6,0-0.8,0c-0.3,0-0.2,0.4,0,0.4c0.3,0,0.6,0,0.6,0l1.2,1.4c0,0-0.7,0.3-1.6,0
			c-0.9-0.3-1.6-0.8-2-0.9c-1-0.4-0.6-0.3-1.3-0.2c-1,0.1-1.6,0.9-1.3,1.5c0.6,1,2.6,0.9,4.1,0.9c1.5,0,17.7,0,19.3,0
			c1.6,0,2.6-0.2,4.5,0.8c0.8,0.4,2.3,2.7,0,4.3c-1.2,0.9-2.7,0.8-5.4,0.9c-1,0-1.1,0-1.8,0c-0.5,0-2.3-0.1-2.6-0.1
			c-0.7,0-2.5,0-2.5,0s1.4,0.2,2.1,0.9c0.5,0.5,1.5,1.3,2.2,1.3c0.8,0.1,3.8-0.9,6.1-0.3c0,0,1.8-1.7,4.4-0.5c0,0,0.4,2.3-1.7,2.8
			c0,0,1.4-0.1,2,1.3C446.9,87.7,446.7,88.7,444.7,88.8z M412.1,76.6c0.9,0.5,0.7,1.2,0.7,1.2s-0.4,0.4-0.7,0.6
			c-0.3,0.2-0.4,0.1-0.4,0.1s0.1-0.8-0.3-1c0,0-0.4-0.2-0.6-0.2l0-0.1c1.1-1,0.7-2.8,0.7-2.8s0.8-0.3,1.2-0.1
			c0.6,0.2,0.6,0.4,0.9,0.7c0,0-0.3,0.8-1,1.1c-0.4,0.2-0.6,0.2-0.9,0.3l-0.3,0C411.4,76.3,411.7,76.3,412.1,76.6z M453.4,69.2
			c-0.7-0.3-0.8-0.8-0.8-0.8s-0.7-0.1-0.7-0.6c0-0.9-0.4-1.2-0.4-1.2l-0.2-0.5c0,0,0.7,2.2,0.2,2.9c-0.4,0.7-0.9,0.6-0.9,0.6
			s-0.5,0.3-0.4,0.9c0.1,0.7,0.6,0.7,0.6,0.7s-0.5,0.1-1-0.6c-0.5-0.7-0.3-1.4-0.3-1.8c0,0-0.6-0.4-0.5-1.1c0.1-0.6,0-1.1,0-1.1
			s-0.3,0.5-0.3,1.1c0,0.6,0.2,0.8,0.2,0.8s-0.5,0.6-1,0.5c-0.4-0.1-0.6-0.2-0.6-0.2S447,69,446.7,69c-0.6-0.2-0.8,0.9-0.8,0.9
			s-0.1-0.8,0.2-1.2c0.3-0.4,0.1-0.8,0.1-0.8s-0.2-0.8,0.6-1.4c0.9-0.6,1.4-0.8,1.6-1.6c0.2-0.8-0.4-1.8-0.9-2.7
			c-0.5-0.9-1.6-1.7-3.2-1.8c-1.6,0-5,0.9-6.8,0.9c-1.8,0.1-3.9-0.1-6.4-1.2c-2.1-0.9-3.5-2.4-3.9-3.4l-2.4-0.7l0.1,0.2
			c0-0.1,1.3,1.2,1.3,1.3c0,0.1,0.2,0.6,0.2,0.6s0.7,1.5,3.6,2.9c2.3,1.1,3.9,1.3,3.9,1.3c0.3,0.3,1.2,0.7,1.8,1.2
			c0.4,0.4,1.3,1.1,1.5,2.1c0.2,1-0.7,2-0.7,2s-1.2,0.8-2.3-0.1c-0.4-0.3-0.6-0.8-0.6-1.3l0,0c-0.1,0.8-0.2,1.7-0.6,2.2
			c-0.6,0.9-1.1,1-1.1,1s-1.5-0.1-1.9-1c-0.2-0.5-0.3-1.3-0.3-1.9c0,0.9-0.2,2.9-1.8,3c-2,0.1-1.9-2.4-1.9-2.8l0-0.4h-0.2
			c0,0,0.4,1.1-0.2,1.9c-0.6,0.7-1.2,0.7-1.2,0.7s-0.8-0.1-1.4-0.9c-0.6-0.8-0.4-1.6-0.4-1.6s-0.6,1-1.9,1.2c-1.2,0.2-1.8,0-2.1-0.2
			c-0.8-0.5-1.3,0.2-1.7,0.6c0,0,0.1-1.1,0.8-1.4c0,0,0.1-1,0.7-1.2c0.3-0.1,0.8-0.3,1.4-0.4c-0.8,0.1-1.6,0-2-0.5
			c-0.4-0.6-1.2-0.7-1.2-0.7s-0.8-0.3-1.6,0.5c0,0,0.4-1.3,1.5-1.4c0,0,0.3-0.2,1-0.3c0.7-0.1,0.9-0.1,1.7,0.1
			c0.4,0.1,0.9,0.4,1.1,0.5c-0.4-0.3-1-0.8-1-1.4c0-0.9,0.4-1.1,0.3-1.2c-0.2-0.5-0.1-0.4-1-1.1c0,0,1.2-0.4,1.8,0.8
			c0.4,0.9,0.3,0.8,0.7,1.2c0.4,0.4,1.1,0.7,1.4,1.2c0.4,0.5,0.4,0.8,0.4,0.8s2.2-0.2,3.6-0.3c1.4-0.1,1.7,0.1,2.3-0.2
			c0.1-0.1-1.1-0.3-1.8-0.8c0,0-2.3-1.2-2.4-3.5c0,0-0.4-0.2-2-0.3c-0.7,0-1-0.3-3.4,0.3c-1,0.3-1.7,1-4.1,2.1
			c-1.3,0.6-2.5,1-3.4,1.1c0,0.6,0,1.2-0.2,1.7c0,0-1.5,0.1-2.6-0.5c0,0-0.7-0.3-1-0.8c0,0,0.5,1.1-0.8,0.9c0,0-0.4,2-1,2.3
			c0,0-0.5,0-1.1-0.3l0,0c-0.8,0.4-1.2,0.3-1.2,0.3s0.2,1.5-1.6,1.9c-1,0.3-1.7-0.3-1.9-0.6c-0.1-0.4-0.2-0.8-0.2-0.8
			s-0.8,1.8-2.2,1.5c-1.5-0.3-1.8-1.4-1.8-2c0-0.6,0.1-0.8,0.1-0.8c-0.1,0.1-1.5,2.2-3.3,1.7c-1.9-0.5-1.2-2.4-1.2-2.4l0.3-0.7
			c0,0-1.3,2.8-3.2,2.1c-2-0.7-1.3-2.7-0.5-3.2c0.8-0.5-2,0.8-2.8,0.3c-0.9-0.4-1.7-0.7-2.2-0.5c-0.5,0.2-0.7,0.8-0.7,0.8
			s0.2-1.6,1.4-1.9c0,0,0.7-1,1.5-1l1.4,0l-0.9-0.1c-0.7,0-1.5-0.5-1.8-0.7c-0.4-0.3-0.6-0.5-0.6-1.1c0-1.4-1.9-1.1-1.9-1.1
			s0.7-0.5,1.2-0.5c0.5,0,0.6-0.3,1.3-0.3c0,0,0.5,0.1,1.1,0.6c0.6,0.6,0.8,0.6,1,0.8l0.8,0.7c0,0-1-1.5-0.6-2.5
			c0.4-1,0.3-0.6,0.1-1.2c-0.2-0.5-1.5-0.6-1.5-0.6s1.8-0.7,2.9,0.5c0.6,0.6,1.5,1.7,1.8,2.9c0.3,0.9,0.3,1.3,1,1.6
			c0.7,0.4,1.2,1.6,3.7,1.7c2.5,0.1,3.1,0,3.1,0s0,0,0.1-0.1c-0.4-0.2-0.8-0.8-1-1.7c-0.7,0.4-1.8,0.9-3,0.6
			c-1.8-0.5-1.9-2.2-1.2-3.2l0.7-1c0,0-1.6,1.4-2.9,1.2c-1.3-0.2-1.5-2.4-1.3-3.2c0.1-0.8,0.2-1.3,0.4-1.8c0.2-0.4-0.2-0.9-0.8-1.2
			c-0.6-0.3-0.8-0.5-1.5-0.4c-0.7,0.1-1.2,0.1-2.3-0.8c-0.6-0.5-0.9-1.7-0.9-1.7c-0.3-0.9-1-0.5-1.8-0.7c0,0,2.1-0.9,3.2-0.4
			c0.9,0.4,1.6,0.9,2,1.2c0.4,0.3,1.6,0.6,1.6,0.6l-0.8-0.5l-1.8-1.6c0,0-1.1-0.7-0.6-1.7c0.4-0.9,0.5-1.5,0.5-1.5s0.6-1.4-1-2
			c0,0,1.5-0.1,1.9,0.9c0.4,1,1.4,3.4,1.7,4.1c0.4,0.9,1.1,2.2,1.1,2.2l-0.6-1.8l-0.3-1.3c0,0-0.1-1.2,0.6-1.2c1.3,0,1.5-0.8,1.7-1
			c0,0,0.6-0.8-0.6-1.5c0,0,1.4,0.2,1.5,0.9c0,0.4,0,0.7-0.1,0.9c-0.1,0.3-0.3,1.6-0.5,2.4c-0.2,0.8,0.9,2.4,1.3,3.3
			c0.5,0.9,1.5,1.5,2.6,2.5c0.4,0.3,0.7,0.7,1,0.9l0.9,0.2c0,0,0.8,2.1,4.4,3.4c0,0-0.1,2.2,1.9,2.5c0,0,1.8,0,1.8-2.7
			c0,0,2.8-1.1,3.8-2.7c0.9-1.6,0.8-1.5,0.8-1.5s0.7-0.2,1.7-0.2c0,0,0,0.2,0,0.9c0,0,0.5-0.2,0.8-0.4c0.3-0.2,0.8-0.3,0.8-0.3
			s0.5-0.1,0.9-0.2c0.1,0.2,0.2,0.5,0.5,0.6c1.4,0.2,4.5,0.2,6.7,0.1c3.2-0.1,13.8,0.2,16.4,0.2c2.6,0,7.6,0,8.6,0
			c1,0,2.5-1.3,1.5-2.3c-0.7-0.7-2.1-0.9-3.2-0.9l-22.7-0.1c-5,0-8.3,0.3-9.5-0.6c-0.3-0.3-0.6-0.6-0.9-1c0.3-0.5,0.4-1.1,0.4-1.1
			c-0.5-0.4-0.4-0.3-0.9-0.6c-0.1-0.6,0.1-1.3,0.4-1.8c1.1-2.1,3.4-2.6,5.6-2.6l29.6,0c-4.3,2.9-5.8,2.1-6.1,1.9
			c-0.3-0.2-0.5-0.2-0.5-0.2s-1-0.6-1.1-0.4c-0.2,0.3,0.1,0.5,0.4,0.7c0.2,0.1,0.5,0.3,0.5,0.3s1.4,0.6,0.4,0.9
			c-1.2,0.3-2.1,0.5-2.9,0c-0.8-0.5-1.4-1.2-1.4-1.2s-0.9,0-1.2,0c-0.2,0-0.1,0.4,0,0.4c0.2,0,0.8-0.1,1,0c0.1,0,0.5,0.5,0.5,0.5
			l0.6,0.6c0,0-0.2,0.3-1.1,0.4c-0.9,0.1-1.6,0.1-2.3-0.4c-0.7-0.5-1.6-1.5-1.6-1.5s-0.6,0-1,0c-0.3,0,0,0.4,0,0.4l0.8,0l1,1.2
			c0,0-0.3,0.4-0.9,0.4c-0.5,0-1.3,0.1-1.9-0.3c-0.4-0.3-0.5-0.3-2-1.7h-0.9c-0.3,0,0,0.4,0,0.4l0.8,0l1.5,1.2c0,0-0.3,0.4-0.9,0.4
			c-0.6,0-1.6,0.1-2.3-0.3c-0.7-0.4-1.5-1.6-1.6-1.6c-0.1,0-0.7,0-1,0c-0.3,0-0.2,0.4,0,0.4c0.3,0,0.6,0,0.6,0l1.3,1.6
			c0,0-0.8,0-1.5,0l-0.1,0c-0.6,0-1.4,0.1-2.1-0.3c-0.7-0.4-1.5-1.6-1.6-1.6c-0.1,0-0.7,0-0.9,0c-0.3,0-0.2,0.4,0,0.4
			c0.3,0,0.7,0,0.7,0l1.4,1.6c0,0-0.8,0.3-1.7,0c-1-0.3-1.6-0.6-2.3-0.8c-0.6-0.2-1.5-1-2.4-1c-0.9,0-2.2,1.5-1.3,2.6
			c0.9,1,3.3,0.9,5,0.9c1.7,0,24.9-0.3,26.7-0.3c1.8,0,3.6,0.4,4.6,1.8c0.2,0.3,1.9,2.9-0.1,4.6c-1.9,1.6-4.1,1.7-9.4,1.8
			c-1.1,0-1.1-0.1-1.9-0.1c-0.5,0-2.5,0-2.7-0.2c-0.5-0.4-1.2-0.7-1.5-0.9c0.2,0.1,0.6,0.4,1,1.1c0.4,0.7,2.4,1.3,3.2,1.4
			c0.9,0.1,2.5-0.2,4.5-0.5c2-0.3,4.2,1.2,4.2,1.2s1.5-1.7,2.8-0.7c0.6,0.5-0.1,1.1-0.6,1.6c0.6-0.4,1.4-0.8,2.2-0.2
			c1.2,1-0.3,2.2-0.9,2.7c0,0,1.8-1.3,2.7,0c0.7,1.1-0.6,2.2-1.2,2.5c0.5-0.3,1.5-0.7,2.1,0.5c0.5,1-0.6,2-1.2,2
			c0,0,0.8,0.5,0.7,1.5c-0.1,1-0.4,1.2-0.4,1.2s0,0.4,0.4,0.6c0.4,0.2,0.8,0.1,0.8,0.1S454.1,69.5,453.4,69.2z M396.5,42.8
			c0-0.4,0.2-2.3,2.3-1.9c0.6,0.1,1,0.5,1.5,1c0.2,0.3,0.3,0.4,0.3,0.5c0.1-0.3,0.4-1.5,1.1-1.6c0.8-0.1,1,1.9,1,1.9
			c0,0.8,0.2-2.4,1.3-2.3c1,0,1.2,2.9,1.2,2.6c0,0,0.1-2.2,1.1-2.1c1.1,0,0.8,2.3,0.8,2.3s0.2-0.4,0.6-1.1c0.4-0.8,1.7-1.2,2.3-0.9
			c1,0.4,1.6,1.2,1.4,2.2c-0.3,1.2-1.5,2.2-1.5,2.2s0,0.3,0.1,1.4c0,1.1-1,2.3-1,2.3s0.9-0.3,1.1,0.7c0.3,1,0,2.2-1.6,3.7
			c-0.7,0.7-1.7,1.2-2.5,1.5l-0.1-1c2.5-0.5,2.7-2.9,2.7-2.9s-0.3,0.2-0.5,0.4c-0.2,0.2-0.1-0.7-0.4-0.6c0,0-0.4,1.9-2,2.1
			c-1.6,0.1-1.5-1.1-1.5-1.1l-0.4,0c0,0.9-1.5,0.9-1.5,0.9c-0.9-0.2-1.7-0.7-1.9-1.8c0-0.1-0.4,0.5-0.4,0.5
			c-0.4-0.1-0.6-0.2-0.6-0.2c0.5,1.6,1.8,2.3,2.8,2.7l-0.1,1c-0.9-0.3-2-0.8-2.9-1.6c-1.6-1.6-1.9-2.7-1.6-3.8
			c0.3-1,1.2-0.7,1.2-0.7c-0.3-0.4-0.9-0.1-0.9-0.1c-0.8,0.5-0.6,1.4-0.6,1.4s-0.1,0.1-0.4-0.1c-0.4-0.2-0.8-0.7-0.8-0.7
			s0.5-1.3,1-1.3c0.5-0.1,1.1-0.1,1.1-0.1l-0.2-0.1c0,0-1.2-0.2-1.7-0.4c-0.8-0.3-0.9-1.5-0.9-1.5c0.6-0.4,0.3-0.3,1.2-0.6
			c0.4-0.1,0.9,0.2,1.2,0.3C397.6,45.1,396.5,43.8,396.5,42.8z M411,48.3c0.4,0.1,0.8,1.3,0.8,1.3s-0.4,0.5-0.8,0.7
			c-0.3,0.2-0.4,0.1-0.4,0.1s0.1-0.9-0.3-1.2c0,0-0.4-0.3-0.6-0.2l0-0.1c1.3-1.2,0.8-3.3,0.8-3.3s0.5-0.2,1,0c0.9,0.4,0.5,0.2,1,0.5
			c0,0-0.1,1-0.9,1.3c-0.4,0.2-0.5,0.3-0.8,0.3l-0.4,0.1C410.3,47.9,410.5,48.1,411,48.3z M455.3,38.3c-0.8-0.3-0.9-0.8-0.9-0.8
			s-0.7-0.1-0.7-0.6c0-0.9-0.4-1.3-0.4-1.3l-0.3-0.5c0,0,0.7,2.3,0.2,3c-0.5,0.7-1,0.7-1,0.7s-0.6,0.3-0.4,0.9
			c0.1,0.7,0.6,0.8,0.6,0.8s-0.5,0.1-1-0.6c-0.5-0.7-0.3-1.4-0.3-1.9c0,0-0.6-0.4-0.5-1.1c0.1-0.6,0-1.2,0-1.2s-0.4,0.6-0.4,1.2
			c0,0.6,0.2,0.8,0.2,0.8s-0.5,0.7-1,0.5c-0.5-0.1-0.6-0.2-0.6-0.2s-0.3,0.2-0.6,0.1c-0.6-0.2-0.8,1-0.8,1s-0.1-0.8,0.2-1.2
			c0.3-0.4,0.1-0.8,0.1-0.8s-0.2-0.8,0.7-1.4c0.9-0.6,1.4-0.8,1.6-1.7c0.2-0.8-0.5-1.9-1-2.8c-0.5-0.9-1.2-1.9-2.8-1.9
			c-1.7,0-6.3,1.1-8.2,1.1c-1.9,0-4.8-0.2-7.2-1.7c-1.8-1.1-3.5-3.4-3.5-3.4s0.5,4,3.9,5.2c2.6,0.9,5.4,1.2,5.4,1.2s0.7,0.6,1.2,1
			c0.4,0.4,1.9,2,2.4,2.9c0.6,0.9-0.5,1.9-0.5,1.9s-1.5,0.7-2.4-0.1c-0.9-0.8-1.2-1.3-1.2-1.3s0.6,1.5-0.1,2.5c-0.6,1-1.1,1-1.1,1
			s-1.6-0.1-2.1-1.1c-0.4-0.7-0.6-1.5-0.6-1.5s0.4,2.7-1.7,2.8c-2.1,0.1-2.1-1.8-2.1-2.2v-0.4l-0.2,0c0,0,0.4,1.2-0.2,1.9
			c-0.6,0.7-1.3,0.8-1.3,0.8s-0.9-0.1-1.5-0.9c-0.6-0.8-0.4-1.6-0.4-1.6s-1.3,1.1-2.6,1.3c-1.3,0.2-1.8-0.2-2.1-0.1
			c-0.4,0.1-1.3,0.2-1.8,0.6c0,0-0.1-1.3,0.9-1.5c0,0,0-0.9,0.7-1.1c0.6-0.3,2.9-0.7,2.9-0.7s-3,0.1-3.6-0.2
			c-0.7-0.3-1.3-0.8-1.3-0.8s-0.9,0.2-1.6,0.6c0,0,0.4-1.3,1.6-1.5c0,0,0.4-0.2,1-0.3c0.7-0.1,1-0.1,1.8,0.1
			c0.5,0.1,0.9,0.4,1.2,0.6c-0.4-0.3-1-0.9-1-1.5c0-0.9,0.4-1.1,0.4-1.2c-0.4-1.2-0.1-0.5-1-1.1c0,0,1.2-0.5,1.9,0.8
			c0.4,0.9,0.4,0.8,0.8,1.3c0.4,0.4,1.1,0.8,1.5,1.3c0.4,0.5,0.4,0.8,0.4,0.8s2.8,0.2,4.3,0c1.5-0.1,3.1-0.1,3.7-0.5
			c0.6-0.4,0.2-0.8-0.2-0.8c-0.4-0.1-4.2,0.2-6.1-1.5c-1.9-1.7-0.9-2.7-0.6-3.5c0.5-1.8-1.9-1.2-1.9-1.2s-1.4,0.4-2.2,0.8
			c-0.7,0.3-1.7,1-2.5,1.7c-0.8,0.7-1.7,1.5-4.2,2.7c-2,0.9-3.4,0.9-4.2,1c0.2,1.3-0.1,2.5-0.1,2.5c-1.3,0.1-2.6-0.3-3.5-1
			c-0.1,0.1-0.2,0.2-0.4,0.3c-0.3,0.2-0.3,0.2-0.9,0c-0.1,1.1-0.9,2.5-0.9,2.5c-0.6-0.1-1-0.3-1.4-0.5c-0.3,0.1-0.4,0.1-0.4,0.1
			s0.2,1.5-1.6,2c-1.1,0.3-1.8-0.3-2-0.7c-0.1-0.4-0.2-0.8-0.2-0.8s-0.8,1.9-2.3,1.5c-1.6-0.3-1.9-1.4-1.9-2.1
			c0-0.7,0.1-0.8,0.1-0.8s-1.5,2.3-3.5,1.8c-1.9-0.5-1.2-2.5-1.2-2.5l0.3-0.7c0,0-1.3,2.9-3.4,2.1c-2.1-0.7-1.4-2.8-0.6-3.3
			c0.9-0.5-2.1,0.8-3,0.3c-0.9-0.5-1.8-0.8-2.3-0.5c-0.5,0.3-0.7,0.8-0.7,0.8s0.2-1.7,1.5-2c0,0,0.7-1,1.6-1l1.5,0l-0.9-0.1
			c-0.8,0-1.6-0.5-1.9-0.7c-0.4-0.3-0.6-0.5-0.6-1.1c0.1-1.4-2-1.1-2-1.1s0.7-0.5,1.3-0.5c0.5,0,0.6-0.4,1.4-0.4
			c0,0,0.6,0.1,1.2,0.6c0.7,0.6,0.9,0.6,1.1,0.9l0.8,0.8c0,0-1.1-1.5-0.7-2.5c0.4-1-0.1-0.7-0.3-1.3c-0.2-0.5-1.2-0.6-1.2-0.6
			s1.9-0.8,3,0.5c0.6,0.7,1.3,1.9,1.3,3.1c-0.1,1.2,0.1,1.8,0.8,2.2c0.7,0.4,2.3,1.2,4.9,1.4c1,0,1.9,0.1,2.6,0
			c-0.8-0.2-1.7-2-1.1-3c-0.7,0.4-1.5,1.3-2.6,1c-1.9-0.5-2-2.3-1.3-3.3l0.7-1c0,0-1.7,1.4-3.1,1.2c-1.4-0.2-1.5-2.5-1.4-3.3
			c0.1-0.9,0.2-1.4,0.4-1.8c0.2-0.5-0.2-0.9-0.8-1.2c-0.6-0.3-0.8-0.5-1.5-0.4c-0.7,0.1-1.3,0.1-2.4-0.9c-0.6-0.6-0.9-1.8-0.9-1.8
			c-0.4-1-1.1-0.6-1.9-0.7c0,0,2.3-0.9,3.4-0.4c1,0.5,1.7,0.9,2.1,1.2c0.5,0.3,1.7,0.6,1.7,0.6l-0.8-0.5l-1.9-1.7
			c0,0-1.1-0.7-0.6-1.8c0.4-0.9,0.5-1.5,0.5-1.5s0.7-1.5-1.1-2.1c0,0,1.5-0.1,2,0.9c0.4,1,1.5,3.5,1.8,4.2c0.4,0.9,1.2,2.2,1.2,2.2
			l-0.6-1.8l-0.4-1.4c0,0-0.1-1.2,0.6-1.2c1.4,0,1.6-0.8,1.8-1.1c0,0,0.6-0.8-0.7-1.6c0,0,1.5,0.2,1.6,0.9c0,0.4,0,0.7-0.1,1
			c-0.1,0.3-0.3,1.6-0.5,2.5c-0.2,0.9-0.5,2.4,0,3.3c0.5,0.9,1.8,3,3,4.1c1.2,1,2.5,1.6,2.5,1.6s0.3,0.2,0.8,0.5c0,0,0.7,1,3.9,1.9
			c0,0,0,0,0,0l0,0c0,0,0,0,0,0c0,0.2,0.1,0.5,0.1,0.7c0.5,1.5,1.4,1.6,1.7,1.6c0.6,0,1.3-0.3,1.8-1.6c0.1-0.2,0.1-0.4,0.2-0.8l0,0
			c0.1-0.1,0.3-0.1,0.4-0.2c0.2-0.3,0.5-0.6,0.7-0.8c-0.4,0.2-0.8,0.4-1.1,0.5l-0.1-1c2.6-0.5,2.9-3,2.9-3s-0.3,0.3-0.5,0.4
			c-0.2,0.2-0.1-0.8-0.4-0.6c0,0-0.4,2-2.1,2.1c-1.7,0.1-1.6-1.2-1.6-1.2l-0.4,0c0,1-1.6,1-1.6,1c-0.9-0.2-1.8-0.7-2-1.9
			c0-0.1-0.4,0.5-0.4,0.5c-0.4-0.1-0.6-0.2-0.6-0.2c0.5,1.7,1.9,2.4,2.9,2.8l-0.1,1.1c-1-0.3-2.1-0.9-3-1.7c-1.7-1.6-2-2.8-1.7-3.9
			c0.3-1.1,1.2-0.7,1.2-0.7c-0.3-0.4-1-0.2-1-0.2c-0.9,0.5-0.6,1.4-0.6,1.4s-0.1,0.1-0.5-0.1c-0.5-0.3-0.9-0.8-0.9-0.8
			s0.6-1.3,1.1-1.4c0.5-0.1,1.1-0.1,1.1-0.1l-0.2-0.1c0,0-1.2-0.2-1.8-0.4c-0.9-0.3-1-1.6-1-1.6c0.7-0.4,0.3-0.3,1.3-0.7
			c0.4-0.1,1,0.2,1.3,0.4c-0.4-0.4-1.6-1.9-1.6-2.9c0-0.4,0.2-2.4,2.5-2c0.6,0.1,1,0.5,1.6,1.1c0.2,0.3,0.3,0.4,0.4,0.5
			c0.1-0.3,0.4-1.6,1.1-1.7c0.8-0.1,1,2,1,2c0,0.8,0.2-2.5,1.4-2.5c1,0,1.2,3,1.2,2.8c0,0,0.1-2.3,1.2-2.2c1.2,0,0.8,2.4,0.8,2.4
			s0.2-0.4,0.6-1.1c0.5-0.8,1.8-1.3,2.4-1c1.1,0.4,1.7,1.3,1.5,2.3c-0.3,1.3-1.5,2.3-1.5,2.3s0,0.3,0.1,1.4c0,1.1-1.1,2.4-1.1,2.4
			s0.9-0.3,1.2,0.8c0.2,0.6,0.1,1.2-0.2,1.9c1.1-0.8,2.6-0.4,2.6-0.4c0,0.4,0,0.5,0,0.7c0.1-0.1,0.5-0.3,0.9-0.4
			c1.5-0.5,2-0.4,2-0.4c0.3,0.4,0.3,0.8,0.2,1.2c0,0,0,0,0,0s4.7-0.5,7.8-0.9c3.1-0.4,14.6-0.7,17.3-0.6l8,0c1.1,0,2.5-0.1,2.5-1.1
			c0-1-2.2-0.9-3.4-0.9l-23.9-0.1c-5.3,0-8.6,0.1-9.8-0.9c-0.6-0.4-1.1-1.1-1.4-1.9c-0.1,0.4-0.3,1.2-1,1.4
			c-0.2,0.1-0.3,0.1-0.3,0.1c0,0-0.1,0.1,0,0c0,0-0.1,0-0.4,0l-0.6,0.2c0,0,0.2,0.2,0.7,0.4c0.4,0.2,0.9,1.3,0.9,1.3
			s-0.4,0.5-0.9,0.7c-0.3,0.2-0.5,0.1-0.5,0.1s0.2-1-0.3-1.3c0,0-0.4-0.3-0.7-0.2l0-0.1c1.3-1.3,0.8-3.5,0.8-3.5s0.6-0.4,1.1-0.3
			c0.9,0.3,0.7,0.3,1.2,0.6c-0.2-0.8-0.2-1.6,0.2-2.3c1.2-2.1,3.6-2.7,5.9-2.7c2.3,0,35.6,0.2,35.6,0.2s-0.6,1.3-1.7,1.6
			c0,0-0.5,0.3-1.3,0.1c-0.8-0.2-3.6-1-3.6-1l1.8,1c0,0-0.8,1-2.8,0.9c-1.9-0.1-3-0.6-3.3-0.8c-0.3-0.2-0.5-0.3-0.5-0.3
			s-0.3,0.3-0.1,0.5c0.2,0.2,0.2,0.1,0.4,0.2c0.3,0.1,0.6,0.3,0.6,0.3s1.4,0.5,0.3,0.8c-1.2,0.3-3.4,0.3-4.3-0.2
			c-0.8-0.5-1.5-1.2-1.5-1.2s-1,0-1.2,0c-0.2,0-0.2,0.4,0,0.4c0.2,0,0.8-0.1,1.1,0c0.1,0,0.5,0.5,0.5,0.5l0.6,0.6
			c0,0-0.3,0.3-1.2,0.4c-0.9,0.1-1.7,0.1-2.4-0.4c-0.7-0.5-1.7-1.6-1.7-1.6s-0.7,0-1,0c-0.4,0,0,0.4,0,0.4l0.8,0l1.1,1.2
			c0,0-0.3,0.4-0.9,0.4c-0.5,0-1.4,0.1-2-0.3c-0.4-0.3-0.6-0.3-2.1-1.7c0,0-0.6,0-1,0c-0.3,0-0.1,0.4-0.1,0.4l0.8,0l1.5,1.3
			c0,0-0.3,0.4-0.9,0.4c-0.6,0-1.7,0.1-2.4-0.3c-0.7-0.4-1.6-1.6-1.7-1.7c-0.1,0-0.8,0-1,0c-0.3,0-0.2,0.4,0,0.4c0.3,0,0.7,0,0.7,0
			l1.4,1.6c0,0-0.8,0-1.5,0l-0.1,0c-0.6,0-1.5,0.1-2.2-0.4c-0.8-0.4-1.6-1.6-1.7-1.7c-0.1,0-0.7,0-1,0c-0.3,0-0.2,0.4,0,0.4
			c0.3,0,0.7,0,0.7,0l1.4,1.6c0,0-0.9,0.3-1.8,0.1c-1-0.3-1.7-0.6-2.4-0.8c-0.7-0.2-1.1-0.3-1.9-0.2c-0.9,0-1.4,0.2-1.3,1.1
			c0.1,1.2,3.9,1,5.7,1c1.8,0,25.1-0.3,27-0.3c1.9,0,3.6-0.2,5.1,1.3c1.4,1.4,1.4,3.7-0.4,5.5c-1.7,1.5-5.9,1-7.2,1
			c-1.2,0-3,0-3.8,0c-0.6,0-1.9,0.4-2.2-0.2c-0.5-0.8-2.9-0.7-2.9-0.7s1.8,0.4,2.5,1.5c0.4,0.8,1.4,0.6,2.2,0.7
			c0.9,0.1,2,0.5,4.1,0.2c2.2-0.3,4.7-0.2,4.7-0.2s1.6-1.8,2.9-0.7c0.6,0.5-0.1,1.1-0.6,1.6c0.6-0.4,1.5-0.8,2.3-0.2
			c1.2,1-0.3,2.3-1,2.8c0,0,1.9-1.4,2.9,0c0.8,1.1-0.6,2.2-1.2,2.6c0.5-0.3,1.6-0.8,2.2,0.5c0.5,1-0.6,2.1-1.2,2
			c0,0,0.8,0.5,0.8,1.6c-0.1,1-0.5,1.2-0.5,1.2s0,0.5,0.4,0.7c0.4,0.2,0.9,0.1,0.9,0.1S456,38.7,455.3,38.3z"/>
		<path class="st0" d="M408.1,14.3c0.5,0.2,0,1.8,0,1.8s0.9-0.6,1.3-1.5c0.4-0.8-0.3-2-1.2-1.9c-1.2,0.1-1.7,1.9-1.7,1.9
			C406.9,14,407.6,14.1,408.1,14.3z"/>
		<path class="st1" d="M407.7,19.7c0,0,0-0.2-0.2-0.3c-0.1-0.1,0-0.2,0-0.2s0-0.1,0.1-0.2c0-0.1,0.7-0.3,0.6-1c0,0-0.6,0.1-0.6-0.1
			c0-0.1,0-0.1,0-0.1s0.1-0.2,0.2-0.3c0.1-0.1,0.1-0.9,0.1-0.9s-0.2,0.2-0.7,0.3c-0.4,0.1-0.5-0.4-1.5,0.2c-1.1,0.6-1.8,0.7-2,0.9
			c-0.2,0.2-0.5,0.4-0.5,0.4c-0.3,0.1,0,0.3,0.2,0.3l0.2-0.1l0,0c0.1,0,0.2-0.1,0.2,0.2c0,0.4,0.2,0.8,0.2,1c0,0.2,0.1,0.6,0.1,0.6
			s0.3-0.2,0.5-0.3c0.2-0.1,0.6,0.1,1.2,0c0.5-0.1,1-0.4,1.2-0.5C407.3,19.7,407.7,19.7,407.7,19.7z"/>
		<path class="st0" d="M405.4,14c0,0,0.2-1.4-0.3-1.4c-0.4-0.1-0.5,1.4-0.5,1.4C405.2,13.8,405.4,14,405.4,14z"/>
		<path class="st1" d="M400.2,45.9c-0.4-0.1-0.8-0.5-0.8-0.5s-0.1,0.6,0.3,1c0.1,0.1,0.2,0.3,0.2,0.3s0.1,0.1,0.1,0.2
			c0,0.3-0.6-0.2-0.6-0.2c-0.1,0.6,0.6,1.1,0.6,1.2c0,0.1,0.2,0.2,0.2,0.2s-0.1,0.2-0.1,0.2c-0.1,0.1-0.4,0.3-0.4,0.3s0.6,0,0.8,0.1
			c0.2,0.1,0.6,0.4,1.1,0.5c0.5,0.1,0.9-0.2,1-0.1C402.7,49,403,49,403,49s0.1,0,0.1-0.2c0-0.2,0.1-0.5,0.2-0.9
			c0.1-0.4,0.1-0.3,0.4-0.3c0.2,0,0.3-0.2,0-0.3c-0.5-0.3-0.5-0.4-0.5-0.4c-0.2-0.1-0.7-0.1-1.6-0.8C400.7,45.4,400.6,46,400.2,45.9
			z"/>
		<path class="st0" d="M402.2,43.1c0,0,0-1.1-0.4-1.2c0,0-0.4,0.1-0.5,1.2C401.4,43.1,401.8,42.9,402.2,43.1z"/>
	</g>
	<g>
		<g>
			<path class="st2" d="M9,47.8c-3.3,0-5.7-0.4-8.2-1.2v-1.4c0-2.5-0.1-3.4-0.2-5h1c0,1.2,0.5,2.5,1.3,3.4c1.2,1.4,3.4,2.1,5.8,2.1
				c3.7,0,7.6-1,7.6-6.3c0-3.8-2.5-5.3-5.6-7.4l-3-2c-3.9-2.6-6.1-4.7-6.1-9c0-1.7,0.5-8.7,10.9-8.7c4.3,0,7.7,0.6,7.7,0.6
				S20,14.3,20,15.8c0,1.3,0.1,2.3,0.1,3.5h-0.9c-0.1-1.5-0.6-2.6-1.4-3.4c-1.2-1.2-3-1.6-5.4-1.6c-5.5,0-6.8,2.7-6.8,5.6
				c0,3.2,1.6,4.3,5.1,6.6l3.3,2.2c3.4,2.3,6.6,4.1,6.6,9.5C20.7,47.6,11.2,47.8,9,47.8z"/>
			<path class="st2" d="M34.8,48c-3.9,0-5.7-1.4-6.5-4.1c-0.4-1.2-0.4-3.6-0.4-5c0-4.8,0.1-8.5,0.1-13.3h-3.3V25
				c1.5-0.6,2.2-1.1,3-1.7c1.7-1.4,4.2-5.5,4.2-5.5h0.7v5.7h8.6v2.1h-8.6v13.8c0,3.8,0.6,6.4,4.9,6.4c1.9,0,3.3-0.7,3.3-0.7l0.3,0.8
				C41.2,45.7,39.2,48,34.8,48z"/>
			<path class="st2" d="M60.7,47.8c-2.1,0-3.5-1.2-3.5-3.3c-0.7,1.1-2.8,3.3-6.7,3.3c-6.7,0-6.8-5.2-6.8-6.3c0-1.4,0.4-4.7,4.7-5.9
				c2.1-0.6,5.7-0.7,8.7-0.7v-2.2c0-1.6,0-3.4-0.3-4.5c-0.7-2.2-2.5-3-4.8-3c-3.7,0-5.2,2.8-5.3,2.9l-0.7-0.5c0.5-1.7,2.8-4.9,8-4.9
				c3.8,0,5.7,1.2,6.8,2.9c1,1.5,1.1,3.7,1.1,6.3c0,3.7-0.2,8-0.2,9.8c0,1.5,0,3.4,2.1,3.4c0.5,0,0.8-0.1,1.2-0.4l0.5,0.6
				C64,46.9,62.8,47.8,60.7,47.8z M57.1,36.4c-3.6,0.2-5.1,0.4-6.3,0.9c-2,0.8-2.5,2.4-2.5,3.9c0,0.8,0.2,4.2,4.3,4.2
				c2.9,0,4.3-1.3,4.5-1.4V36.4z"/>
			<path class="st2" d="M78.4,48c-3.9,0-5.7-1.4-6.5-4.1c-0.4-1.2-0.4-3.6-0.4-5c0-4.8,0.1-8.5,0.1-13.3h-3.3V25
				c1.5-0.6,2.2-1.1,3-1.7c1.7-1.4,4.2-5.5,4.2-5.5h0.7v5.7h8.6v2.1h-8.6v13.8c0,3.8,0.6,6.4,4.9,6.4c1.9,0,3.3-0.7,3.3-0.7l0.3,0.8
				C84.7,45.7,82.8,48,78.4,48z"/>
			<path class="st2" d="M92.2,33.8v0.1c0,1.3,0.1,2.5,0.3,3.7c1.2,7,6.2,7.6,8.8,7.6c2.1,0,4-0.4,5.8-1.3l0.4,0.7
				c-1.7,2.1-5.2,3.3-8.6,3.3c-8.1,0-11.3-5-11.3-11.9c0-4.2,1.8-13.2,11.4-13.2c3.9,0,6.4,1.7,7.5,3.6c1.3,2.1,1.6,4.3,1.6,6.6v0.8
				H92.2z M103.2,31.6c0-2.1-0.1-6.9-5.5-6.9c-5.1,0-5.5,5.5-5.5,7.4h10.9V31.6z"/>
			<path class="st2" d="M119.4,47.8c-3.5,0-5.7-0.8-6.3-1v-1.1c0-2.5-0.1-3.3-0.3-4.8h0.9c0.1,1.7,0.9,2.8,1.2,3.1
				c1.3,1.5,2.8,1.9,4.8,1.9c0.8,0,4.8,0.1,4.8-4c0-2.2-1.4-3.1-3.4-4.3l-3.6-2.2c-1.9-1.2-3.9-2.8-3.9-6c0-1.5,0.3-4.3,3.3-5.8
				c1.3-0.6,3.2-0.8,4.8-0.8c3.3,0,6.1,0.5,6.1,0.5c-0.1,0.6-0.2,2.8-0.2,2.8c0.1,1.4,0,1.9,0.1,2.7h-0.9c-0.1-1.4-0.7-2.2-1-2.7
				c-0.3-0.4-1.6-1.6-4.1-1.6c-4.2,0-4.3,2.9-4.3,3.7c0,2.1,1.7,3.1,2.9,3.8l3.4,2c2.3,1.3,4.9,2.9,4.9,6.6
				C128.6,46.7,123.2,47.8,119.4,47.8z"/>
			<path class="st2" d="M155.3,48.1c-7.7,0-11.8-5-11.8-12.3c0-5.8,3-13,12.3-13c7.7,0,11.8,5,11.8,12.3
				C167.6,40.8,164.6,48.1,155.3,48.1z M155.6,24.6c-0.5,0-2.4,0-3.9,1.3c-1.6,1.4-3.2,4-3.2,9.6c0,2.9,0.8,10.7,7.1,10.7
				c0.5,0,2.4,0,3.9-1.3c1.6-1.4,3.2-4,3.2-9.6C162.7,32.4,161.8,24.6,155.6,24.6z"/>
			<path class="st2" d="M189.4,14h-0.5c-0.9-2-2.1-3.3-4.5-3.3c-0.9,0-2.1,0.3-2.9,1.1c-1.3,1.3-1.4,3.1-1.4,6.3v5.4h5.6v2.1h-5.6
				v14.5c0,3.3,0.1,4.5,0.6,5.3c0.8,1.3,3.1,1.4,3.9,1.4v0.8c-2.1-0.1-4.5-0.2-6.4-0.2c-1.9,0-4,0-6.3,0.2v-0.7
				c0.7-0.1,1.8-0.3,2.6-1.2c0.9-1,1-2.5,1-7.1v-13h-3.3V25c1.5-0.6,2.5-1.2,3.3-1.8c0-2,0.1-5.2,0.4-6.8c0.4-2.2,1.7-7.4,9.6-7.4
				c2.6,0,4.7,0.7,5.8,1.6V11L189.4,14z"/>
			<path class="st2" d="M207.1,14.5c-0.9,1-1,2.5-1,7.1v26.3c0,1.2,0.1,4.6-0.3,6.1c-1.3,6.2-6.3,7.2-9.9,7.2l-0.1-0.8
				c3.1-0.6,5-2.3,5.4-6.8c0.1-1.7,0.1-5,0.1-9.8V20c0-4.1-0.2-4.9-1.1-5.8c-0.4-0.4-1.3-0.7-2.3-0.8v-0.8c2.1,0.1,3.9,0.2,5.8,0.2
				c1.9,0,3.7,0,5.9-0.2v0.8C209.1,13.4,207.9,13.6,207.1,14.5z"/>
			<path class="st2" d="M217.9,33.8v0.1c0,1.3,0.1,2.5,0.3,3.7c1.2,7,6.2,7.6,8.8,7.6c2.1,0,4-0.4,5.8-1.3l0.4,0.7
				c-1.7,2.1-5.2,3.3-8.6,3.3c-8.1,0-11.3-5-11.3-11.9c0-4.2,1.8-13.2,11.4-13.2c3.9,0,6.4,1.7,7.5,3.6c1.3,2.1,1.6,4.3,1.6,6.6v0.8
				H217.9z M228.8,31.6c0-2.1-0.1-6.9-5.5-6.9c-5.1,0-5.5,5.5-5.5,7.4h10.9V31.6z"/>
			<path class="st2" d="M254.4,28.3H254c-0.4-0.6-1.6-2.3-4.5-2.3c-1.4,0-2.4,0.4-3.3,1.1v13c0,3.3,0.1,4.5,0.6,5.3
				c0.8,1.3,3.1,1.4,3.9,1.4v0.8c-2.1-0.1-4.5-0.2-6.4-0.2c-1.9,0-4,0-6.3,0.2v-0.7c0.7-0.1,1.8-0.3,2.6-1.2c0.9-1,1-2.5,1-7.1v-7.2
				c0-3.3-0.1-4.6-0.6-5.4c-0.7-1.1-2.3-1.1-2.9-1.1v-0.9c0.7,0.1,2.9-0.1,5.1-0.5c1-0.2,2-0.4,2.6-0.6l0.2,0.2v3.3
				c0.6-0.7,2.7-3.2,6.4-3.2c2.2,0,3.3,0.8,3.9,1.3v0.4L254.4,28.3z"/>
			<path class="st2" d="M265.8,47.8c-3.5,0-5.7-0.8-6.3-1v-1.1c0-2.5-0.1-3.3-0.3-4.8h0.9c0.1,1.7,0.9,2.8,1.2,3.1
				c1.3,1.5,2.8,1.9,4.8,1.9c0.8,0,4.8,0.1,4.8-4c0-2.2-1.4-3.1-3.4-4.3l-3.6-2.2c-1.9-1.2-3.9-2.8-3.9-6c0-1.5,0.3-4.3,3.3-5.8
				c1.3-0.6,3.2-0.8,4.8-0.8c3.3,0,6.1,0.5,6.1,0.5c-0.1,0.6-0.2,2.8-0.2,2.8c0.1,1.4,0,1.9,0.1,2.7h-0.9c-0.1-1.4-0.7-2.2-1-2.7
				c-0.3-0.4-1.6-1.6-4.1-1.6c-4.2,0-4.3,2.9-4.3,3.7c0,2.1,1.7,3.1,2.9,3.8l3.4,2c2.3,1.3,4.9,2.9,4.9,6.6
				C275,46.7,269.6,47.8,265.8,47.8z"/>
			<path class="st2" d="M284.5,33.8v0.1c0,1.3,0.1,2.5,0.3,3.7c1.2,7,6.2,7.6,8.8,7.6c2.1,0,4-0.4,5.8-1.3l0.4,0.7
				c-1.7,2.1-5.2,3.3-8.6,3.3c-8.1,0-11.3-5-11.3-11.9c0-4.2,1.8-13.2,11.4-13.2c3.9,0,6.4,1.7,7.5,3.6c1.3,2.1,1.6,4.3,1.6,6.6v0.8
				H284.5z M295.4,31.6c0-2.1-0.1-6.9-5.5-6.9c-5.1,0-5.5,5.5-5.5,7.4h10.9V31.6z"/>
			<path class="st2" d="M325.4,25.6c-0.3,0.5-0.8,1.9-1,2.4l-9.5,25.6c-1.5,3.9-3.2,8.1-9.5,8.1c-2.5,0-4.3-0.6-5.6-1.7v-0.5
				l1.8-2.4h0.5c1.1,2,3,2.2,4.1,2.2c3.6,0,5-3.2,7-8.5l0.6-1.7l-8.2-20.9c-0.2-0.5-0.7-1.9-1-2.4c-0.3-0.5-0.8-1.6-2.5-1.6v-0.8
				c1.5,0.1,3.7,0.2,5.1,0.2c1.4,0,3.9-0.2,5.4-0.2V24c-0.3,0-1.5,0.1-2.2,0.7c-0.3,0.3-0.5,0.6-0.5,1.1c0,0.7,0.3,1.6,0.8,3.1
				l3.6,9.6c1.2,3.1,1.6,5,1.6,5l5-14.6c0.5-1.5,0.7-2.3,0.7-3c0-0.5-0.2-0.8-0.5-1.1c-0.5-0.5-1.6-0.7-2.1-0.7v-0.8
				c1.5,0.1,2.8,0.2,4.2,0.2c1.4,0,3.1-0.1,4.6-0.2V24C326.3,24,325.5,25.5,325.4,25.6z"/>
		</g>
		<g>
			<path class="st2" d="M33.1,94.6c-2.5,0-4.4-0.3-6.3-0.9v-1.1c0-1.9-0.1-2.7-0.2-3.8h0.7c0,0.9,0.4,1.9,1,2.6
				c0.9,1.1,2.6,1.6,4.4,1.6c2.9,0,5.8-0.8,5.8-4.8c0-2.9-1.9-4.1-4.3-5.7L32,81c-3-2-4.7-3.6-4.7-6.9c0-1.3,0.4-6.7,8.4-6.7
				c3.3,0,6,0.4,6,0.4s-0.1,1.1-0.1,2.2c0,1,0,1.8,0.1,2.7h-0.7c-0.1-1.2-0.4-2-1.1-2.6c-0.9-0.9-2.3-1.3-4.1-1.3
				c-4.2,0-5.2,2-5.2,4.3c0,2.5,1.3,3.3,3.9,5.1l2.5,1.7c2.6,1.8,5.1,3.2,5.1,7.3C42,94.5,34.7,94.6,33.1,94.6z"/>
			<path class="st2" d="M52.9,94.8c-3,0-4.4-1.1-5-3.2c-0.3-0.9-0.3-2.7-0.3-3.8c0-3.7,0-6.5,0.1-10.2h-2.6v-0.4
				c1.2-0.5,1.7-0.8,2.3-1.3c1.3-1.1,3.3-4.2,3.3-4.2h0.5v4.4h6.6v1.6h-6.6v10.6c0,2.9,0.4,4.9,3.8,4.9c1.5,0,2.6-0.6,2.6-0.6
				l0.2,0.6C57.8,93,56.3,94.8,52.9,94.8z"/>
			<path class="st2" d="M72.8,94.7c-1.6,0-2.7-0.9-2.7-2.5c-0.6,0.8-2.2,2.6-5.1,2.6c-5.1,0-5.3-4-5.3-4.8c0-1.1,0.3-3.6,3.6-4.6
				c1.6-0.4,4.4-0.6,6.7-0.6V83c0-1.2,0-2.7-0.2-3.4c-0.6-1.7-2-2.3-3.7-2.3c-2.9,0-4,2.2-4.1,2.2l-0.6-0.4c0.4-1.3,2.2-3.8,6.2-3.8
				c2.9,0,4.4,0.9,5.2,2.2c0.7,1.2,0.8,2.9,0.8,4.8c0,2.8-0.1,6.2-0.1,7.5c0,1.2,0,2.6,1.6,2.6c0.4,0,0.7-0.1,0.9-0.3l0.4,0.4
				C75.4,93.9,74.4,94.7,72.8,94.7z M70,85.9c-2.8,0.1-4,0.3-4.9,0.7c-1.6,0.7-1.9,1.8-1.9,3c0,0.7,0.1,3.2,3.3,3.2
				c2.2,0,3.3-1,3.5-1.1V85.9z"/>
			<path class="st2" d="M86.4,94.8c-3,0-4.4-1.1-5-3.2c-0.3-0.9-0.3-2.7-0.3-3.8c0-3.7,0-6.5,0.1-10.2h-2.6v-0.4
				c1.2-0.5,1.7-0.8,2.3-1.3c1.3-1.1,3.3-4.2,3.3-4.2h0.5v4.4h6.6v1.6h-6.6v10.6c0,2.9,0.4,4.9,3.8,4.9c1.5,0,2.6-0.6,2.6-0.6
				l0.2,0.6C91.3,93,89.8,94.8,86.4,94.8z"/>
			<path class="st2" d="M97.1,83.9L97.1,83.9c0,1.1,0,2,0.2,2.9c0.9,5.4,4.7,5.9,6.8,5.9c1.6,0,3.1-0.3,4.5-1l0.3,0.5
				c-1.3,1.6-4,2.6-6.6,2.6c-6.2,0-8.7-3.9-8.7-9.1c0-3.2,1.4-10.2,8.8-10.2c3,0,4.9,1.3,5.8,2.7c1,1.6,1.2,3.3,1.2,5.1v0.7H97.1z
				 M105.5,82.2c0-1.6-0.1-5.3-4.2-5.3c-4,0-4.2,4.2-4.2,5.7h8.4V82.2z"/>
			<path class="st2" d="M118,94.7c-2.7,0-4.4-0.6-4.9-0.8v-0.8c0-1.9-0.1-2.5-0.2-3.7h0.7c0.1,1.3,0.7,2.2,0.9,2.4
				c1,1.2,2.2,1.4,3.7,1.4c0.7,0,3.7,0,3.7-3.1c0-1.7-1.1-2.4-2.7-3.3l-2.8-1.7c-1.5-0.9-3-2.2-3-4.6c0-1.2,0.2-3.3,2.6-4.4
				c1-0.5,2.4-0.7,3.7-0.7c2.5,0,4.7,0.4,4.7,0.4c-0.1,0.4-0.1,2.1-0.1,2.2c0,1.1,0,1.5,0.1,2.1h-0.7c0-1.1-0.5-1.7-0.8-2.1
				c-0.2-0.3-1.2-1.3-3.2-1.3c-3.3,0-3.3,2.2-3.3,2.9c0,1.6,1.3,2.4,2.2,2.9l2.6,1.6c1.8,1,3.8,2.2,3.8,5.1
				C125,93.8,120.9,94.7,118,94.7z"/>
			<path class="st2" d="M155.7,94.3c-1.1,0-3.1,0.1-4.2,0.2v-0.6c0.6,0,1.3-0.2,1.7-0.5c0.2-0.2,0.4-0.5,0.4-0.9
				c0-0.5-0.3-1.5-0.7-2.4l-2.4-6.7h-8.4l-2.6,6.7c-0.3,0.9-0.7,1.9-0.7,2.4c0,0.4,0.1,0.7,0.4,0.9c0.4,0.4,1,0.5,1.6,0.5v0.6
				c0,0-2.5-0.2-3.7-0.2c-1.1,0-2.2,0-3.3,0.2v-0.6c1.5-0.1,2-1.2,2.1-1.4c0.2-0.2,0.7-1.5,1.4-3.2l9.2-21.9l1.8-0.3l7.9,21.7
				c0.7,2,1.2,3.3,1.5,3.7c0.1,0.2,0.6,1.3,2.1,1.3v0.6C158.6,94.4,156.8,94.3,155.7,94.3z M147.8,75.9c-0.9-2.5-1.3-4-1.3-4
				l-3.7,9.6h7.1L147.8,75.9z"/>
			<path class="st2" d="M166.2,94.7c-2.7,0-4.4-0.6-4.9-0.8v-0.8c0-1.9-0.1-2.5-0.2-3.7h0.7c0.1,1.3,0.7,2.2,0.9,2.4
				c1,1.2,2.2,1.4,3.7,1.4c0.7,0,3.7,0,3.7-3.1c0-1.7-1.1-2.4-2.7-3.3l-2.8-1.7c-1.5-0.9-3-2.2-3-4.6c0-1.2,0.2-3.3,2.6-4.4
				c1-0.5,2.4-0.7,3.7-0.7c2.5,0,4.7,0.4,4.7,0.4c-0.1,0.4-0.1,2.1-0.1,2.2c0,1.1,0,1.5,0.1,2.1H172c0-1.1-0.5-1.7-0.8-2.1
				c-0.2-0.3-1.2-1.3-3.2-1.3c-3.3,0-3.3,2.2-3.3,2.9c0,1.6,1.3,2.4,2.2,2.9l2.6,1.6c1.8,1,3.8,2.2,3.8,5.1
				C173.3,93.8,169.1,94.7,166.2,94.7z"/>
			<path class="st2" d="M182.3,94.7c-2.7,0-4.4-0.6-4.9-0.8v-0.8c0-1.9-0.1-2.5-0.2-3.7h0.7c0.1,1.3,0.7,2.2,0.9,2.4
				c1,1.2,2.2,1.4,3.7,1.4c0.7,0,3.7,0,3.7-3.1c0-1.7-1.1-2.4-2.7-3.3l-2.8-1.7c-1.5-0.9-3-2.2-3-4.6c0-1.2,0.2-3.3,2.6-4.4
				c1-0.5,2.4-0.7,3.7-0.7c2.5,0,4.7,0.4,4.7,0.4c-0.1,0.4-0.1,2.1-0.1,2.2c0,1.1,0,1.5,0.1,2.1H188c0-1.1-0.5-1.7-0.8-2.1
				c-0.2-0.3-1.2-1.3-3.2-1.3c-3.3,0-3.3,2.2-3.3,2.9c0,1.6,1.3,2.4,2.2,2.9l2.6,1.6c1.8,1,3.8,2.2,3.8,5.1
				C189.3,93.8,185.2,94.7,182.3,94.7z"/>
			<path class="st2" d="M196.6,83.9L196.6,83.9c0,1.1,0,2,0.2,2.9c0.9,5.4,4.7,5.9,6.8,5.9c1.6,0,3.1-0.3,4.5-1l0.3,0.5
				c-1.3,1.6-4,2.6-6.6,2.6c-6.2,0-8.7-3.9-8.7-9.1c0-3.2,1.4-10.2,8.8-10.2c3,0,4.9,1.3,5.8,2.7c1,1.6,1.2,3.3,1.2,5.1v0.7H196.6z
				 M205.1,82.2c0-1.6-0.1-5.3-4.2-5.3c-4,0-4.2,4.2-4.2,5.7h8.4V82.2z"/>
			<path class="st2" d="M240.7,94.3c-1.4,0-2.7,0-4.5,0.2v-0.6c0.8-0.1,1.5-0.4,1.9-0.8c0.9-0.9,0.8-2.2,0.9-3.9c0-0.7,0-2.3,0-3.4
				c0-3.8-0.1-5.5-1-6.9c-0.3-0.5-1.4-1.6-3.6-1.6c-1.9,0-3.3,0.7-4.4,1.5c0.2,0.3,0.2,0.8,0.3,0.9c0.2,0.7,0.2,2.1,0.2,3.3v5.7
				c0,3.2,0.1,3.8,0.9,4.5c0.4,0.4,1.1,0.6,1.8,0.7v0.6c-1.6-0.1-2.9-0.2-4.4-0.2c-1.4,0-2.7,0-4.4,0.2v-0.6
				c0.8-0.1,1.4-0.4,1.8-0.8c0.9-0.9,0.8-2.2,0.9-3.9c0-0.7,0-2.3,0-3.4c0-1.7,0-3.4-0.2-4.9c-0.2-1.7-1.3-3.5-4.4-3.5
				c-0.5,0-2.3,0.1-3.9,1v10.4c0,3.2,0.1,3.8,0.9,4.5c0.4,0.4,1.1,0.6,1.8,0.7v0.6c-1.6-0.1-2.9-0.2-4.4-0.2c-1.4,0-2.7,0-4.5,0.2
				v-0.6c0.5,0,1.4-0.2,2-0.9c0.7-0.8,0.7-1.9,0.7-5.4V82c0-2.6,0-3.5-0.4-4.2c-0.6-0.8-1.8-0.8-2.2-0.9v-0.7c0.5,0,2.2,0,3.9-0.4
				c0.8-0.1,1.5-0.3,2-0.5l0.2,0.1v2.2c0.3-0.3,2.7-2.3,6-2.3c3,0,4.7,1.4,5.3,2.7c0.9-0.9,3.2-2.8,6.6-2.8c3.5,0,5.5,1.7,6,4.3
				c0.2,0.7,0.2,2.3,0.2,3.4v5.8c0,3.2,0.1,3.8,0.9,4.5c0.4,0.4,1.1,0.6,1.8,0.7v0.6C243.5,94.4,242.1,94.3,240.7,94.3z"/>
			<path class="st2" d="M266.6,89.5c-1.5,3.2-4.5,5.3-8.9,5.3c-1.8,0-4-0.4-5.6-1.3l-2.1,1.3l-0.2-0.1c0.2-1.5,0.2-4.5,0.2-7.6V71.2
				c0-2.6,0-3.5-0.4-4.2c-0.5-0.8-1.7-0.8-2.2-0.9v-0.7c0.5,0,2.5-0.1,4.1-0.4c0.8-0.2,1.6-0.3,2-0.5l0.1,0.1
				c-0.1,1.5-0.2,4.5-0.2,7.6v5.3c0.2-0.2,2.2-2.2,5.8-2.2c5.3,0,8.4,3.8,8.4,9C267.7,86.4,267.2,88.1,266.6,89.5z M257.2,77.3
				c-0.2,0-2.1-0.1-3.7,1v13.4c0.2,0.2,1.4,1.5,4.3,1.5c5.2,0,6-4.6,6-8.3C263.9,83.4,263.5,77.3,257.2,77.3z"/>
			<path class="st2" d="M275.7,94.3c-1.4,0-2.9,0-4.7,0.2v-0.6c0.7-0.1,1.6-0.2,2.2-0.9c0.7-0.8,0.7-2,0.7-5.5V71.2
				c0-2.6,0-3.5-0.4-4.2c-0.6-0.8-1.8-0.8-2.2-0.9v-0.7c0.5,0,2.5-0.1,4.1-0.4c0.8-0.2,1.6-0.3,2-0.5l0.1,0.1
				c-0.1,1.5-0.2,4.5-0.2,7.6v16.4c0,3.2,0.1,3.8,0.9,4.5c0.4,0.4,1.3,0.6,2,0.7v0.6C278.6,94.4,277.1,94.3,275.7,94.3z"/>
			<path class="st2" d="M299.2,77.6c-0.2,0.4-0.7,1.5-0.8,1.8l-7.3,19.7c-1.1,3-2.4,6.2-7.3,6.2c-2,0-3.3-0.4-4.3-1.3v-0.4l1.4-1.9
				h0.4c0.8,1.5,2.3,1.7,3.2,1.7c2.7,0,3.8-2.5,5.4-6.6l0.5-1.3L284,79.5c-0.2-0.4-0.6-1.5-0.8-1.8c-0.2-0.4-0.7-1.2-1.9-1.2v-0.6
				c1.1,0.1,2.8,0.2,4,0.2c1.1,0,3-0.1,4.1-0.2v0.6c-0.2,0-1.1,0.1-1.7,0.5c-0.2,0.2-0.4,0.5-0.4,0.9c0,0.5,0.2,1.3,0.7,2.4l2.8,7.4
				c0.9,2.4,1.3,3.9,1.3,3.9l3.8-11.3c0.4-1.2,0.6-1.8,0.6-2.3c0-0.4-0.1-0.6-0.4-0.9c-0.4-0.4-1.2-0.5-1.6-0.5v-0.6
				c1.1,0,2.1,0.2,3.3,0.2c1.1,0,2.4-0.1,3.5-0.2v0.6C299.9,76.4,299.3,77.5,299.2,77.6z"/>
		</g>
	</g>
	<g>
		<path class="st2" d="M537.3,47.5h-12.7c-3,0-6-0.1-9,0.1v-0.8c0.7-0.1,1.8-0.3,2.6-1.2c0.9-1,1-2.5,1-7.1V20.1
			c0-3.9-0.1-4.7-0.9-5.7c-0.5-0.6-1.3-0.9-2.5-1v-0.8c2.9,0.2,4.8,0.2,7.8,0.2h13.6c0,0-0.1,4,0.2,6.5h-0.9
			c-0.1-1.7-0.6-2.8-1.3-3.4c-1.1-1-2.6-1-4.7-1h-6.5v13.5h5.9c2.2,0,3.3-0.2,4.1-1c0.9-0.9,0.9-2.2,1-3h0.8c0,1.2-0.1,1.7-0.1,5
			c0,3.3,0.1,3.7,0.2,4.9h-0.9c0-0.9-0.1-2.1-1-3c-0.8-0.8-2.2-1-4.2-1h-5.8v12.3c0,2.4,0.6,2.7,3.4,2.7h3.1c2.3,0,3.8-0.1,4.8-1.1
			c0.7-0.7,1.2-1.9,1.3-3.7h0.9C537.2,43.1,537.3,47.5,537.3,47.5z M534,5.2L523.1,10l-0.4-0.6l7.8-7.3l0.4-0.1l3.3,2.3L534,5.2z"/>
		<path class="st2" d="M552.1,48c-3.9,0-5.7-1.4-6.5-4.1c-0.4-1.2-0.4-3.6-0.4-5c0-4.8,0.1-8.5,0.1-13.3H542V25
			c1.5-0.6,2.2-1.1,3-1.7c1.7-1.4,4.2-5.5,4.2-5.5h0.7v5.7h8.6v2.1h-8.6v13.8c0,3.8,0.6,6.4,4.9,6.4c1.9,0,3.3-0.7,3.3-0.7l0.3,0.8
			C558.5,45.7,556.5,48,552.1,48z"/>
		<path class="st2" d="M578,47.8c-2.1,0-3.5-1.2-3.5-3.3c-0.7,1.1-2.8,3.3-6.7,3.3c-6.7,0-6.8-5.2-6.8-6.3c0-1.4,0.4-4.7,4.7-5.9
			c2.1-0.6,5.7-0.7,8.7-0.7v-2.2c0-1.6,0-3.4-0.3-4.5c-0.7-2.2-2.5-3-4.8-3c-3.7,0-5.2,2.8-5.3,2.9l-0.7-0.5c0.5-1.7,2.8-4.9,8-4.9
			c3.8,0,5.7,1.2,6.8,2.9c1,1.5,1.1,3.7,1.1,6.3c0,3.7-0.2,8-0.2,9.8c0,1.5,0,3.4,2.1,3.4c0.5,0,0.8-0.1,1.2-0.4l0.5,0.6
			C581.3,46.9,580,47.8,578,47.8z M574.4,36.4c-3.6,0.2-5.1,0.4-6.3,0.9c-2,0.8-2.5,2.4-2.5,3.9c0,0.8,0.2,4.2,4.3,4.2
			c2.9,0,4.3-1.3,4.5-1.4V36.4z"/>
		<path class="st2" d="M595.6,48c-3.9,0-5.7-1.4-6.5-4.1c-0.4-1.2-0.4-3.6-0.4-5c0-4.8,0.1-8.5,0.1-13.3h-3.3V25
			c1.5-0.6,2.2-1.1,3-1.7c1.7-1.4,4.2-5.5,4.2-5.5h0.7v5.7h8.6v2.1h-8.6v13.8c0,3.8,0.6,6.4,4.9,6.4c1.9,0,3.3-0.7,3.3-0.7l0.3,0.8
			C602,45.7,600,48,595.6,48z"/>
		<path class="st2" d="M611.7,47.8c-3.5,0-5.7-0.8-6.3-1v-1.1c0-2.5-0.1-3.3-0.3-4.8h0.9c0.1,1.7,0.9,2.8,1.2,3.1
			c1.3,1.5,2.8,1.9,4.8,1.9c0.8,0,4.8,0.1,4.8-4c0-2.2-1.4-3.1-3.4-4.3l-3.6-2.2c-1.9-1.2-3.9-2.8-3.9-6c0-1.5,0.3-4.3,3.3-5.8
			c1.3-0.6,3.2-0.8,4.8-0.8c3.3,0,6.1,0.5,6.1,0.5c-0.1,0.6-0.2,2.8-0.2,2.8c0.1,1.4,0,1.9,0.1,2.7h-0.9c-0.1-1.4-0.7-2.2-1-2.7
			c-0.3-0.4-1.6-1.6-4.1-1.6c-4.2,0-4.3,2.9-4.3,3.7c0,2.1,1.7,3.1,2.9,3.8l3.4,2c2.3,1.3,4.9,2.9,4.9,6.6
			C620.9,46.7,615.5,47.8,611.7,47.8z"/>
		<path class="st2" d="M657.2,47.3c-1,0.2-2.1,0.4-2.7,0.6l-0.2-0.1V45c-0.3,0.3-3.1,3-7.6,3c-6.8,0-10.9-4.9-10.9-11.7
			c0-2.6,0.5-4.8,1.3-6.6c1.9-4.1,5.9-6.9,11.6-6.9c2.7,0,4.8,0.4,5.5,0.6v-6c0-3.3-0.1-4.7-0.6-5.5c-0.7-1.1-2.3-1.1-2.8-1.1V10
			c0.6,0,3.3-0.1,5.5-0.5c1-0.2,2-0.4,2.5-0.6L659,9c-0.2,1.9-0.2,5.8-0.2,9.9v20.6c0,3.3,0.1,4.7,0.6,5.4c0.7,1.1,2.3,1.1,2.8,1.1
			v0.8C661.5,46.8,659.3,46.9,657.2,47.3z M654.2,26.8c-0.2-0.3-1.9-2-5.6-2c-6.7,0-7.8,6-7.8,10.8c0,2,0.4,9.9,8.6,9.9
			c0.3,0,2.8,0.1,4.8-1.3V26.8z"/>
		<path class="st2" d="M670.7,33.8v0.1c0,1.3,0.1,2.5,0.3,3.7c1.2,7,6.2,7.6,8.8,7.6c2.1,0,4-0.4,5.8-1.3l0.4,0.7
			c-1.7,2.1-5.2,3.3-8.6,3.3c-8.1,0-11.3-5-11.3-11.9c0-4.2,1.8-13.2,11.4-13.2c3.9,0,6.4,1.7,7.5,3.6c1.3,2.1,1.6,4.3,1.6,6.6v0.8
			H670.7z M681.6,31.6c0-2.1-0.1-6.9-5.5-6.9c-5.1,0-5.5,5.5-5.5,7.4h10.9V31.6z"/>
		<path class="st2" d="M710.1,14.5c-0.9,1-1,2.5-1,7.1v26.3c0,1.2,0.1,4.6-0.3,6.1c-1.3,6.2-6.3,7.2-9.9,7.2l-0.1-0.8
			c3.1-0.6,5-2.3,5.4-6.8c0.1-1.7,0.1-5,0.1-9.8V20c0-4.1-0.2-4.9-1.1-5.8c-0.4-0.4-1.3-0.7-2.3-0.8v-0.8c2.1,0.1,3.9,0.2,5.8,0.2
			c1.9,0,3.7,0,5.9-0.2v0.8C712,13.4,710.9,13.6,710.1,14.5z"/>
		<path class="st2" d="M720.8,33.8v0.1c0,1.3,0.1,2.5,0.3,3.7c1.2,7,6.2,7.6,8.8,7.6c2.1,0,4-0.4,5.8-1.3l0.4,0.7
			c-1.7,2.1-5.2,3.3-8.6,3.3c-8.1,0-11.3-5-11.3-11.9c0-4.2,1.8-13.2,11.4-13.2c3.9,0,6.4,1.7,7.5,3.6c1.3,2.1,1.6,4.3,1.6,6.6v0.8
			H720.8z M731.8,31.6c0-2.1-0.1-6.9-5.5-6.9c-5.1,0-5.5,5.5-5.5,7.4h10.9V31.6z"/>
		<path class="st2" d="M757.4,28.3h-0.4c-0.4-0.6-1.6-2.3-4.5-2.3c-1.4,0-2.4,0.4-3.3,1.1v13c0,3.3,0.1,4.5,0.6,5.3
			c0.8,1.3,3.1,1.4,3.9,1.4v0.8c-2.1-0.1-4.5-0.2-6.4-0.2s-4,0-6.3,0.2v-0.7c0.7-0.1,1.8-0.3,2.6-1.2c0.9-1,1-2.5,1-7.1v-7.2
			c0-3.3-0.1-4.6-0.6-5.4c-0.7-1.1-2.3-1.1-2.9-1.1v-0.9c0.7,0.1,2.9-0.1,5.1-0.5c1-0.2,2-0.4,2.6-0.6L749,23v3.3
			c0.6-0.7,2.7-3.2,6.4-3.2c2.2,0,3.3,0.8,3.9,1.3v0.4L757.4,28.3z"/>
		<path class="st2" d="M768.8,47.8c-3.5,0-5.7-0.8-6.3-1v-1.1c0-2.5-0.1-3.3-0.3-4.8h0.9c0.1,1.7,0.9,2.8,1.2,3.1
			c1.3,1.5,2.8,1.9,4.8,1.9c0.8,0,4.8,0.1,4.8-4c0-2.2-1.4-3.1-3.4-4.3l-3.6-2.2c-1.9-1.2-3.9-2.8-3.9-6c0-1.5,0.3-4.3,3.3-5.8
			c1.3-0.6,3.2-0.8,4.8-0.8c3.3,0,6.1,0.5,6.1,0.5c-0.1,0.6-0.2,2.8-0.2,2.8c0.1,1.4,0,1.9,0.1,2.7h-0.9c-0.1-1.4-0.7-2.2-1-2.7
			c-0.3-0.4-1.6-1.6-4.1-1.6c-4.2,0-4.3,2.9-4.3,3.7c0,2.1,1.7,3.1,2.9,3.8l3.4,2c2.3,1.3,4.9,2.9,4.9,6.6
			C777.9,46.7,772.5,47.8,768.8,47.8z"/>
		<path class="st2" d="M787.4,33.8v0.1c0,1.3,0.1,2.5,0.3,3.7c1.2,7,6.2,7.6,8.8,7.6c2.1,0,4-0.4,5.8-1.3l0.4,0.7
			c-1.7,2.1-5.2,3.3-8.6,3.3c-8.1,0-11.3-5-11.3-11.9c0-4.2,1.8-13.2,11.4-13.2c3.9,0,6.4,1.7,7.5,3.6c1.3,2.1,1.6,4.3,1.6,6.6v0.8
			H787.4z M798.4,31.6c0-2.1-0.1-6.9-5.5-6.9c-5.1,0-5.5,5.5-5.5,7.4h10.9V31.6z"/>
		<path class="st2" d="M828.3,25.6c-0.3,0.5-0.8,1.9-1,2.4l-9.5,25.6c-1.5,3.9-3.2,8.1-9.5,8.1c-2.5,0-4.3-0.6-5.6-1.7v-0.5l1.8-2.4
			h0.5c1.1,2,3,2.2,4.1,2.2c3.6,0,5-3.2,7-8.5l0.6-1.7l-8.2-20.9c-0.2-0.5-0.7-1.9-1-2.4c-0.3-0.5-0.8-1.6-2.5-1.6v-0.8
			c1.5,0.1,3.7,0.2,5.1,0.2c1.4,0,3.9-0.2,5.4-0.2V24c-0.3,0-1.5,0.1-2.2,0.7c-0.3,0.3-0.5,0.6-0.5,1.1c0,0.7,0.3,1.6,0.8,3.1
			l3.6,9.6c1.2,3.1,1.6,5,1.6,5l5-14.6c0.5-1.5,0.7-2.3,0.7-3c0-0.5-0.2-0.8-0.5-1.1c-0.5-0.5-1.6-0.7-2.1-0.7v-0.8
			c1.5,0.1,2.8,0.2,4.2,0.2c1.4,0,3.1-0.1,4.6-0.2V24C829.2,24,828.4,25.5,828.3,25.6z"/>
		<path class="st2" d="M528.1,94.3c-1.1,0-3.1,0.1-4.2,0.2v-0.6c0.6,0,1.3-0.2,1.7-0.5c0.2-0.2,0.4-0.5,0.4-0.9
			c0-0.5-0.3-1.5-0.7-2.4l-2.4-6.7h-8.4l-2.6,6.7c-0.3,0.9-0.7,1.9-0.7,2.4c0,0.4,0.1,0.7,0.4,0.9c0.4,0.4,1,0.5,1.6,0.5v0.6
			c0,0-2.5-0.2-3.7-0.2c-1.1,0-2.2,0-3.3,0.2v-0.6c1.5-0.1,2-1.2,2.1-1.4c0.2-0.2,0.7-1.5,1.4-3.2l9.2-21.9l1.8-0.3l7.9,21.7
			c0.7,2,1.2,3.3,1.5,3.7c0.1,0.2,0.6,1.3,2.1,1.3v0.6C531,94.4,529.2,94.3,528.1,94.3z M520.2,75.9c-0.9-2.5-1.3-4-1.3-4l-3.7,9.6
			h7.1L520.2,75.9z"/>
		<path class="st2" d="M537.9,94.7c-2.7,0-4.4-0.6-4.9-0.8v-0.8c0-1.9-0.1-2.5-0.2-3.7h0.7c0.1,1.3,0.7,2.2,0.9,2.4
			c1,1.2,2.2,1.4,3.7,1.4c0.7,0,3.7,0,3.7-3.1c0-1.7-1.1-2.4-2.7-3.3l-2.8-1.7c-1.5-0.9-3-2.2-3-4.6c0-1.2,0.2-3.3,2.6-4.4
			c1-0.5,2.4-0.7,3.7-0.7c2.5,0,4.7,0.4,4.7,0.4c-0.1,0.4-0.1,2.1-0.1,2.2c0,1.1,0,1.5,0.1,2.1h-0.7c0-1.1-0.5-1.7-0.8-2.1
			c-0.2-0.3-1.2-1.3-3.2-1.3c-3.3,0-3.3,2.2-3.3,2.9c0,1.6,1.3,2.4,2.2,2.9l2.6,1.6c1.8,1,3.8,2.2,3.8,5.1
			C545,93.8,540.8,94.7,537.9,94.7z"/>
		<path class="st2" d="M553.3,94.7c-2.7,0-4.4-0.6-4.9-0.8v-0.8c0-1.9-0.1-2.5-0.2-3.7h0.7c0.1,1.3,0.7,2.2,0.9,2.4
			c1,1.2,2.2,1.4,3.7,1.4c0.7,0,3.7,0,3.7-3.1c0-1.7-1.1-2.4-2.7-3.3l-2.8-1.7c-1.5-0.9-3-2.2-3-4.6c0-1.2,0.2-3.3,2.6-4.4
			c1-0.5,2.4-0.7,3.7-0.7c2.5,0,4.7,0.4,4.7,0.4c-0.1,0.4-0.1,2.1-0.1,2.2c0,1.1,0,1.5,0.1,2.1H559c0-1.1-0.5-1.7-0.8-2.1
			c-0.2-0.3-1.2-1.3-3.2-1.3c-3.3,0-3.3,2.2-3.3,2.9c0,1.6,1.3,2.4,2.2,2.9l2.6,1.6c1.8,1,3.8,2.2,3.8,5.1
			C560.3,93.8,556.2,94.7,553.3,94.7z"/>
		<path class="st2" d="M567,83.9L567,83.9c0,1.1,0,2,0.2,2.9c0.9,5.4,4.7,5.9,6.8,5.9c1.6,0,3.1-0.3,4.5-1l0.3,0.5
			c-1.3,1.6-4,2.6-6.6,2.6c-6.2,0-8.7-3.9-8.7-9.1c0-3.2,1.4-10.2,8.8-10.2c3,0,4.9,1.3,5.8,2.7c1,1.6,1.2,3.3,1.2,5.1v0.7H567z
			 M575.4,82.2c0-1.6-0.1-5.3-4.2-5.3c-4,0-4.2,4.2-4.2,5.7h8.4V82.2z"/>
		<path class="st2" d="M610.3,94.3c-1.4,0-2.7,0-4.5,0.2v-0.6c0.8-0.1,1.5-0.4,1.9-0.8c0.9-0.9,0.8-2.2,0.9-3.9c0-0.7,0-2.3,0-3.4
			c0-3.8-0.1-5.5-1-6.9c-0.3-0.5-1.4-1.6-3.6-1.6c-1.9,0-3.3,0.7-4.4,1.5c0.2,0.3,0.2,0.8,0.3,0.9c0.2,0.7,0.2,2.1,0.2,3.3v5.7
			c0,3.2,0.1,3.8,0.9,4.5c0.4,0.4,1.1,0.6,1.8,0.7v0.6c-1.6-0.1-2.9-0.2-4.4-0.2s-2.7,0-4.4,0.2v-0.6c0.8-0.1,1.4-0.4,1.8-0.8
			c0.9-0.9,0.8-2.2,0.9-3.9c0-0.7,0-2.3,0-3.4c0-1.7,0-3.4-0.2-4.9c-0.2-1.7-1.3-3.5-4.4-3.5c-0.5,0-2.3,0.1-3.9,1v10.4
			c0,3.2,0.1,3.8,0.9,4.5c0.4,0.4,1.1,0.6,1.8,0.7v0.6c-1.6-0.1-2.9-0.2-4.4-0.2c-1.4,0-2.7,0-4.5,0.2v-0.6c0.5,0,1.4-0.2,2-0.9
			c0.7-0.8,0.7-1.9,0.7-5.4V82c0-2.6,0-3.5-0.4-4.2c-0.6-0.8-1.8-0.8-2.2-0.9v-0.7c0.5,0,2.2,0,3.9-0.4c0.8-0.1,1.6-0.3,2-0.5
			l0.2,0.1v2.2c0.3-0.3,2.7-2.3,6-2.3c3,0,4.7,1.4,5.3,2.7c0.9-0.9,3.2-2.8,6.6-2.8c3.5,0,5.5,1.7,6,4.3c0.2,0.7,0.2,2.3,0.2,3.4
			v5.8c0,3.2,0.1,3.8,0.9,4.5c0.4,0.4,1.1,0.6,1.8,0.7v0.6C613.1,94.4,611.7,94.3,610.3,94.3z"/>
		<path class="st2" d="M635.6,89.5c-1.5,3.2-4.5,5.3-8.9,5.3c-1.8,0-4-0.4-5.6-1.3l-2.1,1.3l-0.2-0.1c0.2-1.5,0.2-4.5,0.2-7.6V71.2
			c0-2.6,0-3.5-0.4-4.2c-0.5-0.8-1.7-0.8-2.2-0.9v-0.7c0.5,0,2.5-0.1,4.1-0.4c0.8-0.2,1.6-0.3,2-0.5l0.1,0.1
			c-0.1,1.5-0.2,4.5-0.2,7.6v5.3c0.2-0.2,2.2-2.2,5.8-2.2c5.3,0,8.4,3.8,8.4,9C636.6,86.4,636.2,88.1,635.6,89.5z M626.1,77.3
			c-0.2,0-2.1-0.1-3.7,1v13.4c0.2,0.2,1.4,1.5,4.3,1.5c5.2,0,6-4.6,6-8.3C632.8,83.4,632.5,77.3,626.1,77.3z"/>
		<path class="st2" d="M643.9,94.3c-1.4,0-2.9,0-4.7,0.2v-0.6c0.7-0.1,1.5-0.2,2.2-0.9c0.7-0.8,0.7-2,0.7-5.5V71.2
			c0-2.6,0-3.5-0.4-4.2c-0.6-0.8-1.8-0.8-2.2-0.9v-0.7c0.5,0,2.5-0.1,4.1-0.4c0.8-0.2,1.6-0.3,2-0.5l0.1,0.1
			c-0.1,1.5-0.2,4.5-0.2,7.6v16.4c0,3.2,0.1,3.8,0.9,4.5c0.4,0.4,1.3,0.6,2,0.7v0.6C646.9,94.4,645.4,94.3,643.9,94.3z"/>
		<path class="st2" d="M654.5,83.9L654.5,83.9c0,1.1,0,2,0.2,2.9c0.9,5.4,4.7,5.9,6.8,5.9c1.6,0,3.1-0.3,4.5-1l0.3,0.5
			c-1.3,1.6-4,2.6-6.6,2.6c-6.2,0-8.7-3.9-8.7-9.1c0-3.2,1.4-10.2,8.8-10.2c3,0,4.9,1.3,5.8,2.7c1,1.6,1.2,3.3,1.2,5.1v0.7H654.5z
			 M662.9,82.2c0-1.6-0.1-5.3-4.2-5.3c-4,0-4.2,4.2-4.2,5.7h8.4V82.2z M664.2,67.7l-7,5.6l-0.5-0.3l4.4-6.9l0.2-0.1l2.9,1.1
			L664.2,67.7z"/>
		<path class="st2" d="M673,83.9L673,83.9c0,1.1,0,2,0.2,2.9c0.9,5.4,4.7,5.9,6.8,5.9c1.6,0,3.1-0.3,4.5-1l0.3,0.5
			c-1.3,1.6-4,2.6-6.6,2.6c-6.2,0-8.7-3.9-8.7-9.1c0-3.2,1.4-10.2,8.8-10.2c3,0,4.9,1.3,5.8,2.7c1,1.6,1.2,3.3,1.2,5.1v0.7H673z
			 M681.4,82.2c0-1.6-0.1-5.3-4.2-5.3c-4,0-4.2,4.2-4.2,5.7h8.4V82.2z"/>
		<path class="st2" d="M711.4,94.3c-0.8,0.1-1.6,0.3-2,0.5l-0.2-0.1v-2.2c-0.2,0.2-2.4,2.3-5.8,2.3c-5.3,0-8.4-3.8-8.4-9
			c0-2,0.4-3.7,1-5.1c1.5-3.2,4.5-5.3,8.9-5.3c2,0,3.7,0.3,4.2,0.5v-4.6c0-2.6,0-3.6-0.4-4.2c-0.6-0.8-1.8-0.8-2.2-0.9v-0.7
			c0.5,0,2.5,0,4.2-0.4c0.7-0.1,1.5-0.3,2-0.5l0.1,0.1c-0.1,1.5-0.2,4.5-0.2,7.6v15.8c0,2.6,0,3.6,0.4,4.2c0.6,0.8,1.8,0.8,2.2,0.9
			v0.7C714.7,93.9,713,94,711.4,94.3z M709.1,78.5c-0.2-0.2-1.4-1.5-4.3-1.5c-5.2,0-6,4.6-6,8.3c0,1.5,0.3,7.6,6.6,7.6
			c0.2,0,2.1,0.1,3.7-1V78.5z"/>
		<path class="st2" d="M721,83.9L721,83.9c0,1.1,0,2,0.2,2.9c0.9,5.4,4.7,5.9,6.8,5.9c1.6,0,3.1-0.3,4.5-1l0.3,0.5
			c-1.3,1.6-4,2.6-6.6,2.6c-6.2,0-8.7-3.9-8.7-9.1c0-3.2,1.4-10.2,8.8-10.2c3,0,4.9,1.3,5.8,2.7c1,1.6,1.2,3.3,1.2,5.1v0.7H721z
			 M729.5,82.2c0-1.6-0.1-5.3-4.2-5.3c-4,0-4.2,4.2-4.2,5.7h8.4V82.2z"/>
		<path class="st2" d="M741.2,94.7c-2.7,0-4.4-0.6-4.9-0.8v-0.8c0-1.9-0.1-2.5-0.2-3.7h0.7c0.1,1.3,0.7,2.2,0.9,2.4
			c1,1.2,2.2,1.4,3.7,1.4c0.7,0,3.7,0,3.7-3.1c0-1.7-1.1-2.4-2.7-3.3l-2.8-1.7c-1.5-0.9-3-2.2-3-4.6c0-1.2,0.2-3.3,2.6-4.4
			c1-0.5,2.4-0.7,3.7-0.7c2.5,0,4.7,0.4,4.7,0.4c-0.1,0.4-0.1,2.1-0.1,2.2c0,1.1,0,1.5,0.1,2.1H747c0-1.1-0.5-1.7-0.8-2.1
			c-0.2-0.3-1.2-1.3-3.2-1.3c-3.3,0-3.3,2.2-3.3,2.9c0,1.6,1.3,2.4,2.2,2.9l2.6,1.6c1.8,1,3.8,2.2,3.8,5.1
			C748.3,93.8,744.1,94.7,741.2,94.7z"/>
		<path class="st2" d="M775.1,94.4h-9.8c-2.3,0-4.7,0-6.9,0.1v-0.6c0.6,0,1.4-0.2,2-0.9c0.7-0.8,0.7-1.9,0.7-5.4V73.3
			c0-3,0-3.6-0.7-4.4c-0.4-0.4-1-0.7-1.9-0.8v-0.6c2.2,0.1,3.7,0.1,6,0.1H775c0,0,0,3.1,0.1,5h-0.7c0-1.3-0.4-2.2-1-2.7
			c-0.8-0.7-2-0.7-3.6-0.7h-5v10.4h4.5c1.7,0,2.6-0.1,3.2-0.8c0.7-0.7,0.7-1.7,0.7-2.3h0.7c0,0.9-0.1,1.3-0.1,3.9
			c0,2.5,0.1,2.9,0.1,3.8h-0.7c0-0.7-0.1-1.6-0.8-2.3c-0.6-0.7-1.7-0.7-3.2-0.7h-4.4v9.5c0,1.8,0.4,2.1,2.7,2.1h2.4
			c1.8,0,2.9,0,3.7-0.8c0.5-0.6,0.9-1.4,1-2.9h0.7C775.1,91,775.1,94.4,775.1,94.4z M772.5,61.8l-8.4,3.8l-0.3-0.4l6-5.6l0.3-0.1
			l2.6,1.8L772.5,61.8z"/>
		<path class="st2" d="M785.8,94.8c-3,0-4.4-1.1-5-3.2c-0.3-0.9-0.3-2.7-0.3-3.8c0-3.7,0-6.5,0.1-10.2H778v-0.4
			c1.2-0.5,1.7-0.8,2.3-1.3c1.3-1.1,3.3-4.2,3.3-4.2h0.5v4.4h6.6v1.6h-6.6v10.6c0,2.9,0.4,4.9,3.8,4.9c1.5,0,2.6-0.6,2.6-0.6
			l0.2,0.6C790.7,93,789.2,94.8,785.8,94.8z"/>
		<path class="st2" d="M805,94.7c-1.6,0-2.7-0.9-2.7-2.5c-0.6,0.8-2.2,2.6-5.1,2.6c-5.1,0-5.3-4-5.3-4.8c0-1.1,0.3-3.6,3.6-4.6
			c1.6-0.4,4.4-0.6,6.7-0.6V83c0-1.2,0-2.7-0.2-3.4c-0.6-1.7-2-2.3-3.7-2.3c-2.9,0-4,2.2-4.1,2.2l-0.6-0.4c0.4-1.3,2.2-3.8,6.2-3.8
			c2.9,0,4.4,0.9,5.2,2.2c0.7,1.2,0.8,2.9,0.8,4.8c0,2.8-0.1,6.2-0.1,7.5c0,1.2,0,2.6,1.6,2.6c0.4,0,0.7-0.1,0.9-0.3l0.4,0.4
			C807.6,93.9,806.6,94.7,805,94.7z M802.2,85.9c-2.8,0.1-4,0.3-4.9,0.7c-1.5,0.7-1.9,1.8-1.9,3c0,0.7,0.1,3.2,3.3,3.2
			c2.2,0,3.3-1,3.5-1.1V85.9z"/>
		<path class="st2" d="M817.9,94.8c-3,0-4.4-1.1-5-3.2c-0.3-0.9-0.3-2.7-0.3-3.8c0-3.7,0-6.5,0.1-10.2h-2.6v-0.4
			c1.2-0.5,1.7-0.8,2.3-1.3c1.3-1.1,3.3-4.2,3.3-4.2h0.5v4.4h6.6v1.6h-6.6v10.6c0,2.9,0.4,4.9,3.8,4.9c1.5,0,2.6-0.6,2.6-0.6
			l0.2,0.6C822.8,93,821.3,94.8,817.9,94.8z"/>
		<path class="st2" d="M829.6,94.7c-2.7,0-4.4-0.6-4.9-0.8v-0.8c0-1.9-0.1-2.5-0.2-3.7h0.7c0.1,1.3,0.7,2.2,0.9,2.4
			c1,1.2,2.2,1.4,3.7,1.4c0.7,0,3.7,0,3.7-3.1c0-1.7-1.1-2.4-2.7-3.3l-2.8-1.7c-1.5-0.9-3-2.2-3-4.6c0-1.2,0.2-3.3,2.6-4.4
			c1-0.5,2.4-0.7,3.7-0.7c2.5,0,4.7,0.4,4.7,0.4c-0.1,0.4-0.1,2.1-0.1,2.2c0,1.1,0,1.5,0.1,2.1h-0.7c0-1.1-0.5-1.7-0.8-2.1
			c-0.2-0.3-1.2-1.3-3.2-1.3c-3.3,0-3.3,2.2-3.3,2.9c0,1.6,1.3,2.4,2.2,2.9l2.6,1.6c1.8,1,3.8,2.2,3.8,5.1
			C836.7,93.8,832.5,94.7,829.6,94.7z"/>
	</g>
</g>
</svg>
