<?xml version="1.0" encoding="utf-8"?>
<!-- Generator: Adobe Illustrator 21.1.0, SVG Export Plug-In . SVG Version: 6.00 Build 0)  -->
<svg version="1.1" id="Layer_2" xmlns="http://www.w3.org/2000/svg" xmlns:xlink="http://www.w3.org/1999/xlink" x="0px" y="0px"
	 viewBox="0 0 462.9 114" style="enable-background:new 0 0 462.9 114;" xml:space="preserve">
<style type="text/css">
	.st0{fill-rule:evenodd;clip-rule:evenodd;fill:none;}
	.st1{fill-rule:evenodd;clip-rule:evenodd;fill:#FFFFFF;}
	.st2{fill:#FFFFFF;}
</style>
<g>
	<g>
		<path class="st0" d="M49.9,62.8c0.2,0.1,0.4,0.2,0.4,0.2S50.1,62.9,49.9,62.8z"/>
		<path class="st0" d="M64.1,53c-0.1-0.1-0.2-0.1-0.2-0.1S64,53,64.1,53z"/>
		<path class="st0" d="M78.8,57.7c0.1-0.1,0.3-0.3,0.6-0.5C79.1,57.4,78.8,57.7,78.8,57.7z"/>
		<path class="st1" d="M34.1,46.9l0.2-0.1v0c0.1-0.1,0.2-0.1,0.2,0.2c0,0.4,0.2,0.7,0.2,1c0,0.2,0.1,0.6,0.1,0.6s0.3-0.2,0.5-0.3
			c0.2-0.1,0.6,0.1,1.1,0c0.5-0.1,1-0.4,1.2-0.5c0.2-0.1,0.6-0.1,0.6-0.1s0-0.2-0.2-0.3c-0.1-0.1,0-0.2,0-0.2s0-0.1,0.1-0.2
			c0-0.1,0.7-0.3,0.6-0.9c0,0-0.5,0.1-0.6-0.1c0-0.1,0-0.1,0-0.1s0.1-0.2,0.2-0.3c0.1-0.1,0.1-0.8,0.1-0.8s-0.2,0.2-0.7,0.3
			c-0.4,0.1-0.4-0.4-1.5,0.2c-1.1,0.6-1.8,0.7-1.9,0.9c-0.2,0.2-0.5,0.4-0.5,0.4C33.7,46.7,33.9,46.9,34.1,46.9z"/>
		<path class="st0" d="M59.2,65.9c0-0.2,0-0.4,0-0.4S59.2,65.7,59.2,65.9z"/>
		<path class="st0" d="M82.2,62.3c-0.2,0.1-0.2,0.2-0.2,0.2S82.1,62.4,82.2,62.3z"/>
		<path class="st0" d="M38.6,42.6c0.5,0.2,0,1.7,0,1.7s0.8-0.6,1.2-1.4c0.4-0.8-0.3-1.9-1.2-1.9c-1.2,0.1-1.6,1.8-1.6,1.8
			C37.4,42.3,38.1,42.4,38.6,42.6z"/>
		<path class="st0" d="M35.9,42.3c0,0,0.2-1.3-0.3-1.4c-0.4-0.1-0.5,1.3-0.5,1.3C35.7,42.1,35.9,42.3,35.9,42.3z"/>
		<path class="st0" d="M49.3,64.5c0.8-0.1,1.4-0.3,1.4-0.3S50,64.4,49.3,64.5z"/>
		<path class="st0" d="M33.4,71.6c0,0,0-0.9-0.4-1c0,0-0.4,0.1-0.5,1.1C32.6,71.7,32.9,71.5,33.4,71.6z"/>
		<path class="st0" d="M31.7,72.2c0,0-0.6-1.5-1.7-1.6c0,0-1.6,0.1-0.9,1.7c0,0,0.1,0.3,0.6,0.8c0,0,0.8,0.7,0.6,0.1
			c-0.2-0.6-0.8-1.2-0.3-1.5c0.5-0.3,0.8-0.1,1.1,0.1C31.2,71.8,31.5,72.1,31.7,72.2z"/>
		<path class="st0" d="M37.4,71.7c0,0,0.1-1.1-0.3-1.2c-0.4,0-0.4,1.1-0.4,1.1C37.2,71.5,37.4,71.7,37.4,71.7z"/>
		<path class="st0" d="M39.8,71.9c0.4,0.2,0,1.5,0,1.5s0.8-0.5,1.1-1.2c0.3-0.7-0.2-1.7-1-1.6c-1.1,0.1-1.5,1.6-1.5,1.6
			C38.7,71.7,39.4,71.8,39.8,71.9z"/>
		<path class="st0" d="M37.7,82.3L37.7,82.3C37.7,82.3,37.7,82.2,37.7,82.3L37.7,82.3z"/>
		<path class="st1" d="M39.5,76.4c0,0,0-0.2-0.2-0.3c-0.1,0,0-0.2,0-0.2s0-0.1,0.1-0.2c0-0.1,0.6-0.3,0.6-0.8c0,0-0.5,0.1-0.5-0.1
			c0-0.1,0-0.1,0-0.1s0.1-0.1,0.2-0.3c0.1-0.1,0.1-0.7,0.1-0.7s-0.2,0.2-0.6,0.3c-0.4,0.1-0.4-0.4-1.3,0.2c-0.9,0.5-1.6,0.6-1.7,0.8
			c-0.2,0.2-0.4,0.4-0.4,0.4c-0.2,0.1,0,0.3,0.2,0.3l0.2-0.1v0c0.1,0,0.2-0.1,0.2,0.2c0,0.4,0.2,0.6,0.2,0.8c0,0.2,0.1,0.5,0.1,0.5
			s0.2-0.2,0.4-0.2c0.2-0.1,0.6,0,1,0c0.5-0.1,0.9-0.4,1.1-0.4C39.1,76.4,39.5,76.4,39.5,76.4z"/>
		<path class="st0" d="M35,70.2c-0.6,0.2-0.5,1.4-0.5,1.4c0.6-0.2,1.1,0,1.1,0C35.5,70.2,35,70.2,35,70.2z"/>
		<path class="st1" d="M34.9,75.3c-0.4-0.2-0.4-0.3-0.5-0.4c-0.2-0.1-0.6-0.1-1.5-0.7c-0.9-0.6-1-0.1-1.4-0.2
			c-0.4-0.1-0.7-0.4-0.7-0.4s0,0.5,0.2,0.9c0.1,0.1,0.2,0.3,0.2,0.3s0.1,0.1,0.1,0.1c0,0.3-0.6-0.2-0.6-0.2c-0.1,0.5,0.5,0.9,0.6,1
			c0,0.1,0.2,0.2,0.2,0.2s0,0.2-0.1,0.2c-0.1,0.1-0.4,0.2-0.4,0.2s0.6,0,0.8,0c0.2,0,0.6,0.3,1,0.4c0.5,0.1,0.8-0.2,1-0.1
			c0.2,0.1,0.4,0.1,0.4,0.1s0.1,0,0.1-0.2c0-0.2,0.1-0.4,0.2-0.8c0.1-0.3,0.1-0.2,0.4-0.2C35,75.6,35.1,75.4,34.9,75.3z"/>
		<path class="st0" d="M28.1,44.1c-0.2-0.7-0.8-1.4-0.3-1.8c0.5-0.3,0.9-0.1,1.2,0.2c0,0,0.4,0.3,0.6,0.4c0,0-0.7-1.7-1.9-1.8
			c0,0-1.7,0.1-1,2c0,0,0.1,0.3,0.7,0.9C27.4,43.9,28.3,44.7,28.1,44.1z"/>
		<path class="st0" d="M26,12.8c0.6-0.3,0.9-0.1,1.2,0.2c0,0,0.4,0.3,0.6,0.4c0,0-0.7-1.8-2-1.9c0,0-1.8,0.1-1,2.1
			c0,0,0.1,0.3,0.7,1c0,0,1,0.8,0.7,0.1C26.1,14,25.4,13.2,26,12.8z"/>
		<path class="st0" d="M29.8,12.8c0,0,0-1.1-0.4-1.2c0,0-0.5,0.1-0.5,1.3C28.9,12.8,29.3,12.6,29.8,12.8z"/>
		<path class="st0" d="M33.9,42.2c-0.1-1.7-0.7-1.6-0.7-1.6c-0.6,0.2-0.6,1.6-0.6,1.6C33.3,42.1,33.9,42.2,33.9,42.2z"/>
		<path class="st1" d="M31.6,17.3C31,17,31.1,16.8,31,16.8c-0.2-0.1-0.7-0.1-1.8-0.8c-1-0.7-1.1-0.1-1.6-0.2
			c-0.4-0.1-0.8-0.6-0.8-0.6s-0.1,0.6,0.3,1.1c0.1,0.1,0.2,0.3,0.2,0.3s0.1,0.1,0.1,0.2c0,0.3-0.7-0.2-0.7-0.2
			c-0.1,0.6,0.6,1.1,0.6,1.2c0.1,0.1,0.2,0.2,0.2,0.2s-0.1,0.2-0.1,0.3c-0.1,0.1-0.5,0.3-0.5,0.3s0.7,0,0.9,0.1
			c0.2,0.1,0.7,0.4,1.2,0.5c0.5,0.1,0.9-0.2,1.1-0.1c0.2,0.1,0.5,0.1,0.5,0.1s0.1,0,0.1-0.2c0-0.2,0.1-0.5,0.2-1
			c0.1-0.4,0.2-0.3,0.5-0.3C31.7,17.6,31.8,17.3,31.6,17.3z"/>
		<path class="st0" d="M31.7,11.1c-0.7,0.2-0.6,1.7-0.6,1.7c0.7-0.2,1.3,0,1.3,0C32.4,11,31.7,11.1,31.7,11.1z"/>
		<path class="st1" d="M0,0v66.2C0,92.6,21.3,114,47.7,114s47.7-21.4,47.7-47.8V0H0z M74.4,88.5c0,0,1.4,0.4,1.3,1.8
			c0,0-0.9,0.8-2.8,0.4l0.1,0.1c1.4,1.1,0.9,1.6,0.9,1.6C73.4,94,71.5,93,71.5,93c0.6,1.9-0.7,2.9-0.7,2.9c-0.2,0.1-0.4,0.1-0.4,0.1
			c-1.1,0-0.4,1.2-0.4,1.2c-1-0.7-0.8-1.6-0.8-1.6c-1.1-0.9,0-2.5,0-2.7c0-0.2-0.2-0.2-0.2-0.2c-0.8,1.1-0.5,2.3-0.5,2.3
			c-0.4,0.9-1.2,0.6-1.9,0.6c-1-0.1-0.7,1.3-0.7,1.3c-0.7-0.9-0.2-1.5-0.2-1.5l-0.1-0.2c-0.2-0.9,1.1-1.2,1.1-1.2s0.2-0.1,0.2-0.2
			c0.6-1.2,1.3-1.6,1.3-1.6c-0.5,0.1-0.9,0.3-1.4,1.4c-0.9,1-1.8,0.2-1.8,0.2c-0.6-0.2-0.7,0.9-0.7,0.9c-0.5-1,0.4-1.6,0.4-1.6
			c0.2-1.6,2.5-1.5,2.5-1.5c0.9-0.4,1.2-0.3,1.8-1.4c0.2-0.4,0.4-2.6,0.4-2.6c-1,0.4-2.7,0.8-2.7,0.8c-1.4,0.3-2.7,0.2-3.1,0.2
			c-1.1,0-3,0-4.8-0.8c-1.9-0.8-1.8-1-2.5-2.1c0,0-0.3-1.7-3-2.2v0l0.7,0.6c0,0,0.5,0.4,0.5,0.5c0.6,0.5,0.6,1.9,0.6,1.9
			c0,0.1,0.5,1.8,3,2.2c2.2,0.4,3.1,0.7,3.1,0.7s2.2,0.3,2.4,1.6c0,0-0.1,1-2,1.3c0,0,1.6,2.5-0.3,3.2c0,0-0.8,0.2-1.9-0.7
			c0,0,1.1,2.2-0.4,2.9c-1.3,0.6-2.5-1.2-2.5-1.2s0,2.1-1.5,2.5c0,0-1.2,0.2-2.4-1.5l-0.1,0.5c-0.1,1.5-2.5,1.1-2.5,1.1
			c-0.9,0.1-0.9,1.2-0.9,1.2c-0.4-0.5-0.1-1.5-0.1-1.5c-0.8-1.3,1-2.2,1-2.2c0.9-0.7,0.3-0.4,0.3-0.4c-0.9,0.6-0.5,0.5-1.7,1
			c-0.7,0.3-1.4-0.3-1.4-0.3s-0.5-0.9-1.3,0.6c0,0-0.2-1.2,0.8-1.7c0,0,0.2-0.5,0.7-0.8c0.9-0.4,1.1-0.2,1.8-0.1
			c0.8,0,0.1-0.4,0.1-0.4s-1.2-0.4-1.2-1.3c0-0.8,0.3-1.2,0.2-1.2c-0.2-0.5-0.5-0.5-1.2-0.9c0,0,0.4,0.1,2,0.2
			c0.9,0,1.6,0.3,1.6,1.8c0,0.6,0,0.8,0.3,1.2c0.3,0.3,2-1,2-1s2.2-1.2,3.3-1.8c1.2-0.6,1.6-0.9,2.1-1.2c0.1-0.1-3.4-0.2-4.5-1.6
			c0,0-0.9-1.1-0.3-2.7c0,0-0.6-0.8-2-0.9c-0.6,0-1.3,0-2.5,0.1c-1,0.1-3,0.2-3.8,1.2c-1.6,2.1-2.9,2.4-3.8,2.4
			c0,0.5-0.1,0.9-0.1,0.9c-0.7,0-1.4-0.1-2.1-0.4c-0.7-0.3-0.6-0.3-0.9-0.5c0,0,0.4,1.1-0.3,0.7l-0.3-0.2c0.4,0.8,0.3,1.1-0.5,1
			c0,0.6-0.5,1-0.5,1c-0.1,0-0.5,0-0.6,0c-0.1,0.3-0.3,0.5-0.6,0.6c-1.1,0.2-1.6-0.9-1.7-1.6c0-0.3-0.1-0.6-0.1-0.9
			c0,0.6-0.1,1.7-0.8,2.2c-1,0.7-1.6-0.4-1.8-1.2c-0.3-0.8-0.5-1.8-0.5-1.8s-0.5,1.5-1.5,2.1c-1,0.6-1.3,0.4-1.3,0.4
			s-1.1-0.3-1.2-1.7C27,88.3,27,88,27,88s-0.9,1.8-1.9,2.2c-1,0.4-1.4-0.3-1.4-1.6c0-1.3,0-1.5,0-1.5s-1.9,0.8-2.8,0.8
			c-0.8,0-1.3-0.2-1.4-0.7c-0.3-1-1.1,0.2-1.1,0.2s0.1-1.2,0.9-1.5c0.5-0.2,0.7-0.4,1.2-0.5c0.6-0.1,0.7-0.1,0.7-0.1s0-0.3-0.2-0.3
			c-0.2,0-0.4-0.1-0.7,0c-0.3,0.1-0.8,0.1-1.2-0.1c-0.7-0.3-0.3-1.2-0.8-1.3c-0.5-0.1-1,0.3-1,0.3s0.9-1.2,2-1.2
			c1.1,0.1,1.4,0.4,1.4,0.4s0.3,0,0.2-0.2c-0.2-0.2-0.4-0.3-0.6-0.4c-0.2-0.2-0.7-0.6-0.3-1.3c0.3-0.5,0.4-1,0.1-1.3
			c-0.3-0.3-0.8-0.3-0.8-0.3s1-0.7,1.5,0.1c0.3,0.4,1.1,1.3,1.4,1.9c0.3,0.6,0.8,1.6,1.3,1.9c0.4,0.3,1.3,0.6,1.8,0.8
			c0.5,0.3,1.9,1.1,3.2,1c0-0.1,0-0.2,0-0.2c-0.1-0.3-0.2-0.7-0.2-1c0,0-0.1-0.5-0.1-0.9c0-0.6,0.1-1,0.2-1.5
			c-0.3,0.4-0.8,0.9-1.3,1.1c-0.5,0.2-1.2,0-1.6-0.9c-0.4-0.9-0.3-2.2-0.1-2.6c0.2-0.4,0-0.5-0.2-0.1c-0.2,0.4-0.8,1.2-1.6,1.3
			c-0.8,0.1-1.4-0.3-1.8-1.6c-0.4-1.3-0.2-2-0.5-2.2c-0.2-0.3-0.5-0.6-1-0.4c-0.5,0.1-1.2,0.6-1.9,0.6c-0.6,0-0.8,0.1-1.2-0.3
			c-0.4-0.4-0.4-0.9-0.7-0.9c-0.3,0-0.8,0.3-0.8,0.3s0.4-0.8,0.9-0.9c0.5-0.1,1,0,1.2-0.3c0.2-0.3,0.3-0.5,0.8-0.6
			c0.5-0.2,1.1-0.3,1.1-0.3s-1-0.3-1.5-1.1c-0.4-0.5-0.4-1-0.3-1.7c0.2-1.7-1.4-1.3-1.4-1.3c1.3-1,1.7-0.2,2-0.3c0.6-0.3,1,0,1,0
			l0.3,0.3c0,0,0.3,0.3,0.6,1.1c0,0,0,0.6,0.4,0.8c0,0,0.1,0.1,0.3,0.5c0,0-0.1-0.7-0.3-0.9c-0.2-0.2-0.3-0.4,0-0.9
			c0.4-0.7,0.6-0.5,0.5-1c-0.1-0.6-0.8-0.7-0.8-0.7s1.4,0.1,1.7,0.4c0.3,0.4,1.2,1.1,0.5,2.2c-0.5,0.8-0.3,1.9,0.5,2.5
			c0.5,0.3,2,1.4,3.3,2.2l0,0c0.2,0.1,0.9,0.6,1,0.7c1.1,1.6,1.8,1.7,1.8,1.7s0,0.8,0.4,1.4c0.1,0.1,0.2,0.4,0.5,0.7
			c0.4,0.5,0.8,0.8,1.2,1.1c1.1,0.7,2.4,1.3,2.4,1.3c0,0.1,0.1,0.6,0.1,0.7c0.3,0.7,0.6,1.1,0.9,1.3c0.1,0.1,0.3,0.1,0.4,0.1
			c0.1,0,0.1,0,0.2,0c0.1,0,0.2,0,0.4-0.1l0,0c0.2,0,0.6-0.5,0.6-0.5l0.4-0.6c0-0.1,0.1-0.5,0.2-0.6c0-0.1,0-0.4,0-0.6
			c0-0.1,0-0.3,0-0.4c0,0,0,0,0,0l0-0.9c2.2-0.5,2.5-2.5,2.5-2.5s-0.3,0.2-0.4,0.4c-0.2,0.2-0.1-0.7-0.3-0.5c0,0-0.3,1.7-1.8,1.8
			c-1.5,0.1-1.3-1-1.3-1l-0.3,0c0,0.8-1.4,0.8-1.4,0.8c-0.8-0.2-1.6-0.6-1.7-1.6c0-0.1-0.3,0.4-0.3,0.4c-0.3-0.1-0.5-0.2-0.5-0.2
			c0.5,1.4,1.6,2,2.5,2.4l-0.1,0.9c-0.8-0.3-1.8-0.7-2.6-1.4c-1.5-1.4-1.7-2.4-1.5-3.3c0.3-0.9,1-0.6,1-0.6
			c-0.3-0.3-0.8-0.1-0.8-0.1c-0.7,0.4-0.5,1.2-0.5,1.2S29,78,28.7,77.8c-0.4-0.2-0.8-0.6-0.8-0.6s0.5-1.1,0.9-1.2
			c0.4-0.1,1-0.1,1-0.1l-0.1-0.1c0,0-1-0.2-1.5-0.4c-0.7-0.3-0.9-1.3-0.9-1.3c0.6-0.4,0.3-0.3,1.1-0.6c0.3-0.1,0.9,0.2,1.1,0.3
			c-0.3-0.3-1.4-1.6-1.4-2.4c0-0.4,0.2-2,2.1-1.7c0.5,0.1,0.9,0.4,1.4,0.9c0.2,0.2,0.3,0.3,0.3,0.4c0.1-0.3,0.3-1.3,1-1.4
			c0.7-0.1,0.9,1.6,0.9,1.6c0,0.7,0.2-2,1.2-2c0.9,0,1.1,2.5,1.1,2.3c0,0,0.1-1.9,1-1.9c1,0,0.7,2,0.7,2s0.2-0.3,0.5-0.9
			c0.4-0.7,1.5-1,2.1-0.8c0.9,0.4,1.5,1.1,1.3,1.9c-0.3,1.1-1.3,1.9-1.3,1.9s0,0.2,0.1,1.2c0,0.9-1,2-1,2s0.8-0.3,1,0.6
			c0.3,0.9,0,1.9-1.5,3.3c-0.5,0.4-1.1,0.8-1.6,1c0,0,0,0,0,0c0.1,0.1,0.1,0.1,0.1,0.2l0.1,0.2c0.5-0.3,1-0.6,1.5-1
			c1.5-1.2,1.9-2.3,1.9-2.9c1.1-0.4,2.1-0.4,2.1-0.4c0,0.5,0,0.9-0.1,1.3c0.8-0.4,2.1-0.4,2.1-0.4c0.1,0.4,0,0.9,0,1.2
			c0.8,0,3.4,0,5.8-0.1c2.9-0.1,12.6,0,15,0.1c2.3,0,3.2-0.1,4.1,0c0.9,0,3-0.6,2.2-1.5c-0.6-0.6-2-0.5-3-0.5c-1.3,0-14.3,0-16.7,0
			c-4.6,0-7.1,0.1-8.2-0.7c-1.1-0.8-1.7-2.9-0.8-4.2c0.9-1.3,2.9-1.6,4.9-1.6l23.9,0.2c-1.4,2.3-2.7,1.3-3,1.2c0,0-0.2-0.2-0.5,0
			c0,0-0.2,0.3,0.2,0.5l0.4,0.2c-0.9,0.6-1.5,0.3-1.5,0.3c-0.6-0.3-1.1-1.1-1.1-1.1s-1,0-1.1,0c-0.2,0,0,0.5,0.2,0.5
			c0.1,0,0.4,0,0.6,0c0,0,0.3,0.5,1,0.8l0.7,0.2l-0.9,0.3c-0.6,0.1-1,0.2-1.6-0.1c-0.8-0.3-1.7-1.6-1.7-1.6s-1,0-1.1,0
			c-0.2,0,0,0.5,0.2,0.5c0.1,0,0.5-0.1,0.7,0c0,0,0.4,0.5,0.4,0.5l0.8,0.9c0,0-0.5,0.1-1.3,0c-0.8-0.1-0.8,0-1.4-0.5
			c-0.6-0.5-1.4-1.4-1.4-1.4s-0.6,0-0.9,0c-0.3,0,0.2,0.5,0.2,0.5l0.6,0.1l1,1.3c0,0-0.5,0-1,0.1c-0.5,0-1.3,0.1-1.8-0.3
			c-0.3-0.2-0.5-0.3-1.9-1.5c0,0-0.6,0-0.8,0c-0.3,0,0,0.3,0,0.3l0.7,0l1.4,1.3c0,0-0.4,0.1-0.9,0.1c-0.5,0-1.1,0.1-1.8-0.3
			c-0.6-0.4-1.3-1.5-1.4-1.5c-0.1,0-0.6,0-0.9,0c-0.3,0-0.2,0.3,0,0.3c0.3,0,0.6,0,0.6,0l1.2,1.4c0,0-0.5,0-1.2,0l-0.5,0
			c-0.5,0-0.6,0-1.3-0.4c-0.6-0.4-1.3-1.5-1.4-1.5c-0.1,0-0.6,0-0.8,0c-0.3,0-0.2,0.4,0,0.4c0.3,0,0.6,0,0.6,0l1.2,1.4
			c0,0-0.7,0.3-1.6,0c-0.9-0.3-1.6-0.8-2-1c-1-0.4-0.6-0.3-1.3-0.2c-1,0.1-1.6,0.9-1.3,1.5c0.6,1,2.6,0.9,4.2,0.9
			c1.5,0,17.9,0,19.6,0c1.6,0,2.6-0.2,4.6,0.8c0.8,0.4,2.3,2.7,0,4.4c-1.2,0.9-2.8,0.8-5.4,0.9c-1,0-1.1,0-1.8,0
			c-0.5,0-2.3-0.1-2.6-0.1c-0.7,0-2.5,0-2.5,0s1.4,0.2,2.1,0.9c0.6,0.6,1.6,1.3,2.3,1.3c0.8,0.1,3.8-1,6.2-0.3c0,0,1.8-1.8,4.4-0.5
			c0,0,0.4,2.4-1.7,2.9c0,0,1.5-0.1,2,1.3C76.6,87.4,76.4,88.4,74.4,88.5z M41.3,76.1c0.9,0.5,0.7,1.2,0.7,1.2s-0.4,0.4-0.8,0.6
			C41,78.1,40.9,78,40.9,78s0.1-0.8-0.3-1.1c0,0-0.4-0.2-0.6-0.2l0-0.1c1.2-1,0.7-2.9,0.7-2.9s0.8-0.3,1.2-0.1
			c0.6,0.2,0.7,0.4,0.9,0.8c0,0-0.3,0.8-1,1.1c-0.4,0.2-0.6,0.2-0.9,0.3l-0.3,0C40.7,75.8,41,75.9,41.3,76.1z M83.2,68.6
			c-0.7-0.3-0.8-0.8-0.8-0.8s-0.7-0.1-0.7-0.6c0-0.9-0.4-1.3-0.4-1.3L81,65.5c0,0,0.7,2.2,0.2,2.9c-0.5,0.7-0.9,0.7-0.9,0.7
			s-0.5,0.3-0.4,0.9c0.1,0.7,0.6,0.7,0.6,0.7s-0.5,0.1-1-0.6c-0.5-0.7-0.3-1.4-0.3-1.8c0,0-0.6-0.4-0.5-1.1c0.1-0.6,0-1.1,0-1.1
			s-0.3,0.5-0.3,1.1c0,0.6,0.2,0.8,0.2,0.8s-0.5,0.6-1,0.5c-0.4-0.1-0.6-0.2-0.6-0.2s-0.3,0.2-0.6,0.1c-0.6-0.2-0.8,1-0.8,1
			s-0.1-0.8,0.2-1.2c0.3-0.4,0.1-0.8,0.1-0.8s-0.2-0.8,0.6-1.4c0.9-0.6,1.4-0.8,1.6-1.6c0.2-0.8-0.4-1.9-0.9-2.8
			c-0.5-0.9-1.6-1.8-3.3-1.8c-1.6,0-5,0.9-6.8,0.9c-1.8,0.1-3.9-0.1-6.4-1.2c-2.1-0.9-3.6-2.5-4-3.5l-2.4-0.7l0.1,0.2
			c0-0.1,1.3,1.3,1.3,1.3c0,0.1,0.2,0.6,0.2,0.6s0.7,1.5,3.6,2.9c2.4,1.1,3.9,1.3,3.9,1.3c0.3,0.3,1.2,0.7,1.8,1.2
			c0.4,0.4,1.3,1.1,1.5,2.1c0.2,1-0.7,2-0.7,2s-1.2,0.8-2.3-0.1c-0.4-0.3-0.6-0.8-0.6-1.3l0,0c-0.1,0.8-0.3,1.8-0.6,2.3
			c-0.6,1-1.1,1-1.1,1s-1.5-0.1-2-1.1c-0.3-0.5-0.3-1.4-0.3-1.9c0,0.9-0.2,2.9-1.8,3c-2.1,0.1-1.9-2.4-1.9-2.8l0-0.4h-0.2
			c0,0,0.4,1.2-0.2,1.9c-0.6,0.7-1.2,0.8-1.2,0.8s-0.8-0.1-1.4-0.9c-0.6-0.8-0.4-1.6-0.4-1.6s-0.6,1-1.9,1.2c-1.3,0.2-1.8,0-2.1-0.2
			c-0.8-0.5-1.3,0.2-1.7,0.6c0,0,0.1-1.1,0.8-1.4c0,0,0.1-1,0.7-1.2c0.3-0.1,0.8-0.3,1.4-0.4c-0.8,0.1-1.6,0-2-0.5
			c-0.4-0.6-1.2-0.7-1.2-0.7s-0.8-0.3-1.6,0.6c0,0,0.4-1.3,1.5-1.5c0,0,0.3-0.2,1-0.3c0.7-0.1,0.9-0.1,1.8,0.1
			c0.5,0.2,0.9,0.4,1.1,0.6c-0.4-0.3-1-0.8-1-1.4c0-0.9,0.4-1.1,0.3-1.2c-0.2-0.5-0.1-0.5-1-1.1c0,0,1.2-0.4,1.8,0.8
			c0.4,0.9,0.3,0.8,0.7,1.2c0.4,0.4,1.1,0.8,1.4,1.3c0.4,0.5,0.4,0.8,0.4,0.8s2.2-0.2,3.6-0.4c1.4-0.1,1.8,0.1,2.3-0.2
			c0.1-0.1-1.1-0.3-1.8-0.9c0,0-2.3-1.2-2.4-3.5c0,0-0.4-0.2-2-0.3c-0.7,0-1-0.3-3.5,0.3c-1,0.3-1.7,1-4.2,2.2
			c-1.3,0.6-2.6,1-3.5,1.2c0,0.6,0,1.2-0.2,1.8c0,0-1.6,0.1-2.6-0.5c0,0-0.7-0.4-1-0.8c0,0,0.5,1.1-0.8,0.9c0,0-0.4,2.1-1,2.3
			c0,0-0.5,0-1.1-0.3l0,0c-0.8,0.4-1.2,0.3-1.2,0.3s0.2,1.5-1.6,2c-1.1,0.3-1.8-0.3-1.9-0.6c-0.1-0.4-0.2-0.8-0.2-0.8
			s-0.8,1.9-2.3,1.5c-1.5-0.3-1.8-1.4-1.8-2c0-0.6,0.1-0.8,0.1-0.8c-0.1,0.1-1.5,2.3-3.3,1.8c-1.9-0.5-1.2-2.4-1.2-2.4l0.3-0.7
			c0,0-1.3,2.8-3.3,2.1c-2-0.7-1.4-2.8-0.5-3.3c0.8-0.5-2,0.8-2.9,0.3c-0.9-0.5-1.7-0.7-2.2-0.5c-0.5,0.2-0.7,0.8-0.7,0.8
			s0.2-1.6,1.4-1.9c0,0,0.7-1,1.6-1l1.4,0l-0.9-0.1c-0.8,0-1.6-0.5-1.8-0.7c-0.4-0.3-0.6-0.5-0.6-1.1c0-1.4-2-1.1-2-1.1
			s0.7-0.5,1.2-0.5c0.5,0,0.6-0.4,1.3-0.4c0,0,0.5,0.1,1.1,0.6c0.6,0.6,0.8,0.6,1,0.8l0.8,0.7c0,0-1-1.5-0.6-2.5
			c0.4-1,0.3-0.7,0.1-1.3c-0.2-0.5-1.5-0.6-1.5-0.6s1.8-0.7,2.9,0.5c0.6,0.7,1.5,1.7,1.8,2.9c0.3,1,0.3,1.3,1,1.7
			c0.7,0.4,1.2,1.6,3.8,1.8c2.6,0.1,3.1,0,3.1,0s0,0,0.1-0.1c-0.4-0.2-0.8-0.9-1-1.7c-0.7,0.4-1.8,0.9-3,0.6
			c-1.8-0.5-1.9-2.2-1.2-3.2l0.7-1c0,0-1.6,1.4-2.9,1.2c-1.3-0.2-1.5-2.4-1.4-3.3c0.1-0.8,0.2-1.3,0.4-1.8c0.2-0.4-0.2-0.9-0.8-1.2
			c-0.6-0.3-0.8-0.5-1.5-0.4c-0.7,0.1-1.2,0.1-2.3-0.8c-0.6-0.5-0.9-1.8-0.9-1.8c-0.4-1-1.1-0.5-1.8-0.7c0,0,2.2-0.9,3.3-0.4
			c0.9,0.4,1.6,0.9,2.1,1.2c0.4,0.3,1.6,0.6,1.6,0.6l-0.8-0.5l-1.9-1.7c0,0-1.1-0.7-0.6-1.8c0.4-0.9,0.5-1.5,0.5-1.5s0.6-1.4-1.1-2
			c0,0,1.5-0.1,1.9,0.9c0.4,1,1.4,3.5,1.7,4.2c0.4,0.9,1.1,2.2,1.1,2.2l-0.6-1.8L18.5,44c0,0-0.1-1.2,0.6-1.2c1.3,0,1.6-0.8,1.7-1.1
			c0,0,0.6-0.8-0.6-1.5c0,0,1.5,0.2,1.5,0.9c0,0.4,0,0.7-0.1,1c-0.1,0.3-0.3,1.6-0.5,2.5c-0.2,0.9,0.9,2.5,1.4,3.3
			c0.5,0.9,1.6,1.5,2.7,2.6c0.4,0.4,0.7,0.7,1,1l0.9,0.2c0,0,0.8,2.1,4.4,3.4c0,0-0.1,2.3,1.9,2.5c0,0,1.8,0,1.8-2.7
			c0,0,2.9-1.1,3.8-2.7c0.9-1.6,0.8-1.5,0.8-1.5s0.7-0.2,1.7-0.2c0,0,0,0.2,0,0.9c0,0,0.5-0.2,0.8-0.4c0.3-0.2,0.8-0.3,0.8-0.3
			s0.5-0.1,0.9-0.2c0.1,0.2,0.2,0.5,0.5,0.6c1.4,0.2,4.5,0.2,6.7,0.2c3.2-0.1,14,0.2,16.6,0.2c2.6,0,7.7,0,8.8,0
			c1,0,2.5-1.3,1.5-2.3c-0.7-0.7-2.1-0.9-3.3-0.9L52,48c-5.1,0-8.4,0.3-9.6-0.6c-0.3-0.3-0.7-0.6-0.9-1c0.3-0.5,0.4-1.1,0.4-1.1
			c-0.5-0.4-0.4-0.3-0.9-0.6c-0.1-0.6,0.1-1.3,0.4-1.8c1.1-2.1,3.5-2.6,5.7-2.6l30,0c-4.3,2.9-5.9,2.1-6.2,2
			c-0.3-0.2-0.5-0.2-0.5-0.2s-1-0.6-1.2-0.4c-0.2,0.3,0.1,0.6,0.4,0.7c0.2,0.1,0.5,0.3,0.5,0.3s1.4,0.6,0.4,0.9
			c-1.2,0.3-2.1,0.5-3,0c-0.8-0.5-1.4-1.2-1.4-1.2s-1,0-1.2,0c-0.2,0-0.2,0.4,0,0.4c0.2,0,0.8-0.1,1,0c0.1,0,0.5,0.5,0.5,0.5
			l0.6,0.6c0,0-0.2,0.3-1.1,0.4c-0.9,0.1-1.6,0.1-2.3-0.4c-0.7-0.5-1.6-1.6-1.6-1.6s-0.6,0-1,0c-0.3,0,0,0.4,0,0.4l0.8,0l1.1,1.2
			c0,0-0.3,0.4-0.9,0.4c-0.5,0-1.3,0.1-2-0.3c-0.4-0.3-0.5-0.3-2.1-1.7h-0.9c-0.3,0,0,0.4,0,0.4l0.8,0l1.5,1.3c0,0-0.3,0.4-0.9,0.4
			c-0.6,0-1.6,0.1-2.4-0.3c-0.7-0.4-1.5-1.6-1.6-1.7c-0.1,0-0.7,0-1,0c-0.3,0-0.2,0.4,0,0.4c0.3,0,0.7,0,0.7,0l1.4,1.6
			c0,0-0.8,0-1.5,0l-0.1,0c-0.6,0-1.4,0.1-2.2-0.3c-0.7-0.4-1.5-1.6-1.6-1.7c-0.1,0-0.7,0-0.9,0c-0.3,0-0.2,0.4,0,0.4
			c0.3,0,0.7,0,0.7,0l1.4,1.6c0,0-0.8,0.3-1.8,0c-1-0.3-1.7-0.6-2.3-0.8c-0.6-0.2-1.6-1-2.4-1c-0.9,0-2.2,1.6-1.3,2.7
			c0.9,1,3.3,0.9,5,0.9c1.7,0,25.2-0.3,27-0.3c1.8,0,3.6,0.4,4.7,1.9c0.3,0.3,1.9,3-0.1,4.7c-1.9,1.6-4.1,1.8-9.5,1.8
			c-1.1,0-1.1-0.1-2-0.1c-0.6,0-2.5,0-2.8-0.2c-0.6-0.4-1.2-0.7-1.6-0.9c0.2,0.1,0.6,0.4,1.1,1.1c0.4,0.7,2.4,1.3,3.2,1.4
			c0.9,0.1,2.5-0.2,4.6-0.5c2.1-0.3,4.3,1.3,4.3,1.3s1.5-1.8,2.8-0.7c0.6,0.5-0.1,1.1-0.6,1.6c0.6-0.4,1.5-0.8,2.2-0.2
			c1.2,1-0.3,2.3-1,2.8c0,0,1.8-1.4,2.8,0c0.7,1.1-0.6,2.2-1.2,2.6c0.5-0.3,1.6-0.8,2.1,0.5c0.5,1-0.6,2-1.2,2c0,0,0.8,0.5,0.7,1.5
			c-0.1,1-0.4,1.2-0.4,1.2s0,0.4,0.4,0.6c0.4,0.2,0.8,0.1,0.8,0.1S83.9,68.9,83.2,68.6z M25.6,41.9c0-0.4,0.2-2.3,2.4-2
			c0.6,0.1,1,0.5,1.5,1c0.2,0.3,0.3,0.4,0.3,0.5c0.1-0.3,0.4-1.5,1.1-1.7c0.8-0.1,1,1.9,1,1.9c0,0.8,0.2-2.4,1.4-2.4
			c1,0,1.2,2.9,1.2,2.7c0,0,0.1-2.2,1.1-2.2c1.1,0,0.8,2.4,0.8,2.4s0.2-0.4,0.6-1.1c0.4-0.8,1.7-1.2,2.3-0.9c1,0.4,1.7,1.2,1.4,2.2
			c-0.3,1.2-1.5,2.2-1.5,2.2s0,0.3,0.1,1.4c0,1.1-1,2.3-1,2.3s0.9-0.3,1.2,0.7c0.3,1,0,2.2-1.7,3.8c-0.7,0.7-1.7,1.2-2.5,1.5l-0.1-1
			c2.5-0.5,2.8-2.9,2.8-2.9s-0.3,0.2-0.5,0.4c-0.2,0.2-0.1-0.8-0.4-0.6c0,0-0.4,2-2,2.1c-1.7,0.1-1.5-1.1-1.5-1.1l-0.4,0
			c0,0.9-1.5,1-1.5,1c-0.9-0.2-1.7-0.7-1.9-1.8c0-0.1-0.4,0.5-0.4,0.5c-0.4-0.1-0.6-0.2-0.6-0.2c0.5,1.6,1.8,2.4,2.8,2.7l-0.1,1
			c-0.9-0.3-2-0.8-2.9-1.7C27,51.2,26.7,50,27,49c0.3-1.1,1.2-0.7,1.2-0.7c-0.3-0.4-0.9-0.2-0.9-0.2c-0.8,0.5-0.6,1.4-0.6,1.4
			s-0.1,0.1-0.4-0.1c-0.4-0.2-0.8-0.7-0.8-0.7s0.6-1.3,1-1.4c0.5-0.1,1.1-0.1,1.1-0.1L27.3,47c0,0-1.2-0.2-1.7-0.4
			c-0.8-0.3-0.9-1.6-0.9-1.6c0.6-0.4,0.3-0.3,1.2-0.6c0.4-0.1,1,0.2,1.2,0.3C26.7,44.3,25.6,42.9,25.6,41.9z M40.2,47.5
			c0.4,0.1,0.8,1.3,0.8,1.3s-0.4,0.5-0.8,0.7c-0.3,0.2-0.4,0.1-0.4,0.1s0.1-1-0.3-1.2c0,0-0.4-0.3-0.6-0.2l0-0.1
			c1.3-1.2,0.8-3.3,0.8-3.3s0.6-0.2,1,0c0.9,0.4,0.5,0.2,1,0.5c0,0-0.1,1-0.9,1.4c-0.4,0.2-0.5,0.3-0.8,0.3l-0.4,0.1
			C39.6,47.1,39.8,47.3,40.2,47.5z M85.1,37.4c-0.8-0.3-0.9-0.8-0.9-0.8s-0.7-0.1-0.7-0.6c0-0.9-0.4-1.3-0.4-1.3l-0.3-0.5
			c0,0,0.7,2.3,0.2,3c-0.5,0.7-1,0.7-1,0.7s-0.6,0.3-0.4,0.9c0.1,0.7,0.6,0.8,0.6,0.8s-0.5,0.1-1.1-0.6c-0.5-0.7-0.3-1.4-0.3-1.9
			c0,0-0.6-0.4-0.5-1.1c0.1-0.6,0-1.2,0-1.2s-0.4,0.6-0.4,1.2c0,0.6,0.2,0.8,0.2,0.8s-0.5,0.7-1,0.5c-0.5-0.1-0.6-0.2-0.6-0.2
			s-0.3,0.2-0.6,0.1c-0.6-0.2-0.8,1-0.8,1s-0.1-0.9,0.2-1.3c0.3-0.4,0.1-0.8,0.1-0.8s-0.2-0.8,0.7-1.4c0.9-0.6,1.5-0.8,1.7-1.7
			c0.2-0.9-0.5-1.9-1-2.8c-0.5-0.9-1.2-1.9-2.9-1.9c-1.7,0-6.4,1.1-8.3,1.1c-1.9,0-4.9-0.2-7.3-1.7c-1.8-1.1-3.5-3.4-3.5-3.4
			s0.5,4,4,5.2c2.6,0.9,5.5,1.2,5.5,1.2s0.7,0.6,1.3,1c0.5,0.4,1.9,2,2.4,2.9c0.6,0.9-0.5,1.9-0.5,1.9s-1.5,0.7-2.4-0.1
			c-0.9-0.8-1.2-1.3-1.2-1.3s0.6,1.5-0.1,2.5c-0.7,1-1.1,1.1-1.1,1.1s-1.6-0.1-2.1-1.1c-0.4-0.8-0.6-1.5-0.6-1.5s0.4,2.7-1.7,2.8
			c-2.2,0.1-2.2-1.8-2.2-2.2v-0.4l-0.2,0c0,0,0.4,1.2-0.2,2C57.1,39,56.4,39,56.4,39s-0.9-0.1-1.5-0.9c-0.6-0.8-0.4-1.6-0.4-1.6
			s-1.3,1.1-2.6,1.3c-1.3,0.2-1.8-0.2-2.2-0.1c-0.4,0.1-1.3,0.2-1.8,0.6c0,0-0.1-1.3,0.9-1.5c0,0,0-0.9,0.7-1.2
			c0.6-0.3,2.9-0.7,2.9-0.7s-3,0.1-3.6-0.2c-0.7-0.3-1.3-0.8-1.3-0.8s-0.9,0.2-1.7,0.6c0,0,0.4-1.3,1.6-1.5c0,0,0.4-0.2,1-0.3
			c0.7-0.1,1-0.1,1.8,0.1c0.5,0.2,0.9,0.4,1.2,0.6c-0.4-0.3-1-0.9-1-1.5c0-0.9,0.4-1.1,0.4-1.2c-0.4-1.2-0.1-0.5-1.1-1.1
			c0,0,1.3-0.5,1.9,0.8c0.4,0.9,0.4,0.8,0.8,1.3c0.4,0.4,1.1,0.8,1.5,1.3c0.4,0.5,0.4,0.8,0.4,0.8s2.8,0.2,4.3,0
			c1.5-0.1,3.1-0.1,3.7-0.5c0.6-0.4,0.2-0.8-0.2-0.9C61.8,32.4,58,32.7,56,31c-2-1.7-0.9-2.7-0.6-3.5c0.5-1.8-1.9-1.2-1.9-1.2
			s-1.4,0.4-2.2,0.8c-0.7,0.3-1.7,1-2.5,1.7c-0.9,0.7-1.7,1.5-4.3,2.7c-2,0.9-3.4,0.9-4.3,1C40.3,33.8,40,35,40,35
			c-1.4,0.1-2.6-0.3-3.5-1.1c-0.1,0.1-0.2,0.2-0.4,0.3c-0.3,0.2-0.3,0.2-0.9,0c-0.1,1.1-0.9,2.6-0.9,2.6c-0.6-0.1-1-0.3-1.4-0.5
			c-0.3,0.1-0.4,0.1-0.4,0.1s0.2,1.5-1.6,2c-1.1,0.3-1.8-0.3-2-0.7c-0.1-0.4-0.2-0.9-0.2-0.9s-0.8,1.9-2.4,1.6
			c-1.6-0.4-1.9-1.5-1.9-2.1c0-0.7,0.1-0.9,0.1-0.9S23,37.9,21,37.4c-2-0.5-1.2-2.5-1.2-2.5l0.3-0.7c0,0-1.3,2.9-3.4,2.2
			c-2.1-0.7-1.4-2.8-0.6-3.4c0.9-0.5-2.1,0.8-3,0.3c-0.9-0.5-1.8-0.8-2.3-0.5C10.2,33,10,33.6,10,33.6s0.2-1.7,1.5-2
			c0,0,0.7-1,1.6-1l1.5,0l-1-0.1c-0.8,0-1.6-0.5-1.9-0.8c-0.4-0.3-0.6-0.5-0.6-1.1c0.1-1.4-2.1-1.1-2.1-1.1s0.7-0.5,1.3-0.5
			c0.5,0,0.7-0.4,1.4-0.4c0,0,0.6,0.1,1.2,0.6c0.7,0.6,0.9,0.6,1.1,0.9l0.8,0.8c0,0-1.1-1.5-0.7-2.6c0.4-1-0.1-0.7-0.3-1.3
			c-0.2-0.5-1.2-0.6-1.2-0.6s1.9-0.8,3.1,0.5c0.6,0.7,1.4,1.9,1.3,3.2c-0.1,1.2,0.1,1.8,0.8,2.2c0.7,0.4,2.3,1.3,5,1.4
			c1,0,1.9,0.1,2.6,0c-0.8-0.2-1.7-2-1.1-3c-0.7,0.4-1.5,1.3-2.6,1c-1.9-0.5-2-2.3-1.3-3.3l0.7-1c0,0-1.7,1.4-3.1,1.2
			c-1.4-0.2-1.6-2.5-1.4-3.4c0.1-0.9,0.2-1.4,0.4-1.8c0.2-0.5-0.2-0.9-0.8-1.2c-0.6-0.3-0.8-0.5-1.5-0.4c-0.7,0.1-1.3,0.1-2.4-0.9
			c-0.6-0.6-0.9-1.8-0.9-1.8c-0.4-1-1.1-0.6-1.9-0.7c0,0,2.3-1,3.4-0.4c1,0.5,1.7,0.9,2.2,1.2c0.5,0.3,1.7,0.6,1.7,0.6l-0.8-0.6
			l-2-1.7c0,0-1.1-0.7-0.6-1.8c0.4-1,0.5-1.6,0.5-1.6s0.7-1.5-1.1-2.1c0,0,1.6-0.1,2,0.9c0.5,1.1,1.5,3.5,1.8,4.3
			c0.4,0.9,1.2,2.2,1.2,2.2l-0.6-1.8l-0.4-1.4c0,0-0.1-1.2,0.6-1.2c1.4,0,1.6-0.8,1.8-1.1c0,0,0.6-0.8-0.7-1.6c0,0,1.5,0.2,1.6,0.9
			c0,0.4,0,0.7-0.1,1c-0.1,0.3-0.3,1.7-0.5,2.5c-0.2,0.9-0.5,2.4,0,3.3c0.5,0.9,1.9,3,3,4.1c1.2,1.1,2.6,1.6,2.6,1.6
			s0.3,0.2,0.8,0.5c0,0,0.7,1,4,1.9c0,0,0,0,0,0l0,0c0,0,0,0,0,0c0,0.2,0.1,0.5,0.1,0.7c0.5,1.5,1.4,1.6,1.8,1.6
			c0.6,0,1.3-0.3,1.8-1.6c0.1-0.2,0.1-0.4,0.2-0.8l0,0c0.1-0.1,0.3-0.1,0.5-0.2c0.2-0.3,0.5-0.6,0.7-0.8c-0.4,0.2-0.8,0.4-1.2,0.5
			l-0.1-1c2.6-0.5,2.9-3.1,2.9-3.1s-0.3,0.3-0.5,0.4C35.9,22,36,21,35.7,21.2c0,0-0.4,2.1-2.1,2.2c-1.8,0.1-1.6-1.2-1.6-1.2l-0.4,0
			c0,1-1.6,1-1.6,1c-0.9-0.2-1.8-0.7-2-1.9c0-0.1-0.4,0.5-0.4,0.5c-0.4-0.1-0.6-0.2-0.6-0.2c0.5,1.7,1.9,2.5,2.9,2.9l-0.1,1.1
			c-1-0.3-2.2-0.9-3.1-1.7c-1.7-1.7-2-2.9-1.7-4c0.3-1.1,1.2-0.8,1.2-0.8c-0.3-0.4-1-0.2-1-0.2c-0.9,0.5-0.6,1.5-0.6,1.5
			s-0.1,0.1-0.5-0.1c-0.5-0.3-0.9-0.8-0.9-0.8s0.6-1.4,1.1-1.4C25,18,25.7,18,25.7,18l-0.2-0.2c0,0-1.2-0.2-1.8-0.4
			c-0.9-0.3-1-1.6-1-1.6c0.7-0.4,0.3-0.3,1.3-0.7c0.4-0.1,1,0.2,1.3,0.4c-0.4-0.4-1.6-1.9-1.6-3c0-0.4,0.2-2.4,2.5-2
			c0.6,0.1,1.1,0.5,1.6,1.1c0.2,0.3,0.3,0.4,0.4,0.5c0.1-0.3,0.4-1.6,1.2-1.7c0.8-0.1,1,2,1,2c0,0.8,0.2-2.5,1.4-2.5
			c1,0,1.2,3.1,1.3,2.8c0,0,0.1-2.3,1.2-2.3c1.2,0,0.8,2.5,0.8,2.5s0.2-0.4,0.6-1.1c0.5-0.9,1.8-1.3,2.5-1c1.1,0.4,1.8,1.3,1.5,2.3
			c-0.3,1.3-1.6,2.3-1.6,2.3s0,0.3,0.1,1.5c0,1.2-1.1,2.4-1.1,2.4s0.9-0.3,1.2,0.8c0.2,0.6,0.1,1.2-0.2,1.9c1.1-0.8,2.6-0.4,2.6-0.4
			c0,0.4,0,0.5,0,0.8c0.1-0.1,0.5-0.3,0.9-0.4c1.5-0.5,2-0.4,2-0.4c0.3,0.4,0.3,0.8,0.2,1.2c0,0,0,0,0,0s4.7-0.5,7.9-0.9
			c3.2-0.4,14.8-0.7,17.5-0.6l8.1,0c1.1,0,2.5-0.1,2.5-1.2c0-1-2.3-0.9-3.4-1l-24.2-0.1c-5.3,0-8.7,0.1-10-0.9
			c-0.6-0.4-1.1-1.1-1.4-1.9c-0.1,0.4-0.3,1.2-1,1.4c-0.2,0.1-0.3,0.1-0.3,0.1c0,0-0.1,0.1,0,0c0,0-0.1,0-0.4,0l-0.7,0.2
			c0,0,0.2,0.2,0.7,0.4c0.4,0.2,0.9,1.3,0.9,1.3s-0.4,0.5-0.9,0.8c-0.3,0.2-0.5,0.1-0.5,0.1s0.2-1-0.3-1.3c0,0-0.4-0.3-0.7-0.2
			l0-0.1c1.4-1.3,0.8-3.5,0.8-3.5s0.6-0.4,1.1-0.3c0.9,0.3,0.7,0.3,1.2,0.6c-0.2-0.8-0.2-1.6,0.2-2.4c1.2-2.2,3.6-2.7,6-2.7
			c2.4,0,36,0.2,36,0.2s-0.7,1.3-1.7,1.6c0,0-0.5,0.3-1.3,0.1c-0.8-0.2-3.7-1-3.7-1l1.9,1c0,0-0.8,1-2.8,0.9c-1.9-0.1-3-0.6-3.4-0.8
			c-0.3-0.2-0.5-0.3-0.5-0.3s-0.3,0.3-0.1,0.5c0.2,0.2,0.2,0.1,0.4,0.3c0.3,0.1,0.6,0.3,0.6,0.3s1.4,0.5,0.3,0.9
			c-1.2,0.3-3.4,0.3-4.3-0.2c-0.8-0.5-1.5-1.2-1.5-1.2s-1,0-1.3,0c-0.2,0-0.2,0.4,0,0.4c0.2,0,0.8-0.1,1.1,0c0.1,0,0.5,0.5,0.5,0.5
			l0.7,0.7c0,0-0.3,0.4-1.2,0.4C65.8,15,65,15,64.2,14.5c-0.7-0.5-1.7-1.6-1.7-1.6s-0.7,0-1,0c-0.4,0,0,0.4,0,0.4l0.9,0l1.1,1.2
			c0,0-0.3,0.4-1,0.4c-0.6,0-1.4,0.1-2-0.3c-0.4-0.3-0.6-0.3-2.2-1.7c0,0-0.6,0-1,0c-0.3,0-0.1,0.4-0.1,0.4l0.8,0l1.6,1.3
			c0,0-0.3,0.4-1,0.4c-0.6,0-1.7,0.1-2.5-0.4c-0.8-0.4-1.6-1.7-1.7-1.7c-0.1,0-0.8,0-1,0c-0.3,0-0.2,0.4,0,0.4c0.3,0,0.7,0,0.7,0
			l1.4,1.6c0,0-0.8,0-1.6,0l-0.1,0c-0.6,0-1.5,0.1-2.3-0.4c-0.8-0.4-1.6-1.7-1.7-1.7c-0.1,0-0.7,0-1,0c-0.3,0-0.2,0.4,0,0.4
			c0.3,0,0.7,0,0.7,0l1.4,1.6c0,0-0.9,0.4-1.9,0.1c-1-0.3-1.7-0.6-2.4-0.8c-0.7-0.2-1.1-0.3-2-0.2c-0.9,0-1.4,0.2-1.3,1.1
			c0.1,1.2,4,1,5.8,1c1.8,0,25.4-0.3,27.3-0.3c1.9,0,3.7-0.2,5.1,1.3c1.4,1.5,1.4,3.8-0.4,5.5c-1.7,1.6-6,1-7.3,1c-1.2,0-3,0-3.9,0
			c-0.6,0-1.9,0.4-2.3-0.2c-0.5-0.8-2.9-0.7-2.9-0.7s1.8,0.4,2.5,1.5c0.4,0.8,1.5,0.6,2.3,0.7c1,0.1,2,0.5,4.2,0.2
			c2.2-0.3,4.8-0.2,4.8-0.2s1.6-1.8,3-0.7c0.6,0.5-0.1,1.1-0.6,1.6c0.6-0.4,1.5-0.9,2.3-0.2c1.3,1-0.3,2.3-1,2.8c0,0,1.9-1.4,2.9,0
			c0.8,1.1-0.7,2.2-1.2,2.6c0.5-0.3,1.7-0.8,2.2,0.5c0.5,1.1-0.6,2.1-1.3,2c0,0,0.8,0.5,0.8,1.6c-0.1,1.1-0.5,1.2-0.5,1.2
			s0,0.5,0.5,0.7c0.5,0.2,0.9,0.1,0.9,0.1S85.8,37.7,85.1,37.4z"/>
		<path class="st0" d="M37.4,13.1c0.5,0.2,0,1.8,0,1.8s0.9-0.6,1.3-1.5c0.4-0.8-0.3-2-1.2-2c-1.3,0.1-1.7,1.9-1.7,1.9
			C36.1,12.8,36.9,12.9,37.4,13.1z"/>
		<path class="st1" d="M37,18.6c0,0,0-0.2-0.2-0.3c-0.1-0.1,0-0.2,0-0.2s0-0.1,0.1-0.2c0-0.1,0.7-0.3,0.6-1c0,0-0.6,0.1-0.6-0.1
			c0-0.1,0-0.1,0-0.1s0.1-0.2,0.2-0.3c0.1-0.1,0.1-0.9,0.1-0.9s-0.2,0.2-0.7,0.3c-0.4,0.1-0.5-0.4-1.6,0.2c-1.1,0.6-1.9,0.8-2,0.9
			c-0.2,0.2-0.5,0.4-0.5,0.4c-0.3,0.1,0,0.3,0.2,0.3l0.2-0.1l0,0c0.1,0,0.2-0.1,0.2,0.2c0,0.4,0.2,0.8,0.2,1c0,0.2,0.1,0.6,0.1,0.6
			s0.3-0.2,0.5-0.3c0.2-0.1,0.7,0.1,1.2,0c0.5-0.1,1-0.4,1.3-0.5C36.6,18.6,37,18.6,37,18.6z"/>
		<path class="st0" d="M34.6,12.8c0,0,0.2-1.4-0.3-1.4c-0.4-0.1-0.5,1.4-0.5,1.4C34.4,12.6,34.6,12.8,34.6,12.8z"/>
		<path class="st1" d="M29.4,45.1c-0.4-0.1-0.8-0.5-0.8-0.5s-0.1,0.6,0.3,1c0.1,0.1,0.2,0.3,0.2,0.3s0.1,0.1,0.1,0.2
			c0,0.3-0.7-0.2-0.7-0.2C28.3,46.5,29,46.9,29,47c0,0.1,0.2,0.2,0.2,0.2s-0.1,0.2-0.1,0.2c-0.1,0.1-0.4,0.3-0.4,0.3s0.6,0,0.9,0.1
			c0.2,0.1,0.6,0.4,1.1,0.5c0.5,0.1,0.9-0.2,1.1-0.1c0.2,0.1,0.5,0.1,0.5,0.1s0.1,0,0.1-0.2c0-0.2,0.1-0.5,0.2-0.9
			c0.1-0.4,0.1-0.3,0.4-0.3c0.2,0,0.3-0.2,0-0.3c-0.5-0.3-0.5-0.4-0.5-0.4c-0.2-0.1-0.7-0.1-1.7-0.8C29.9,44.6,29.8,45.2,29.4,45.1z
			"/>
		<path class="st0" d="M31.4,42.2c0,0,0-1.1-0.4-1.2c0,0-0.4,0.1-0.5,1.2C30.5,42.3,30.9,42.1,31.4,42.2z"/>
	</g>
	<g>
		<path class="st2" d="M140.2,47c-3.3,0-5.8-0.4-8.3-1.2v-1.4c0-2.5-0.1-3.5-0.2-5h1c0,1.2,0.5,2.5,1.3,3.4c1.2,1.4,3.4,2.1,5.8,2.1
			c3.8,0,7.7-1,7.7-6.3c0-3.9-2.5-5.4-5.7-7.5l-3.1-2c-4-2.6-6.2-4.7-6.2-9.1c0-1.8,0.5-8.9,11-8.9c4.4,0,7.8,0.6,7.8,0.6
			s-0.1,1.4-0.1,3c0,1.3,0.1,2.4,0.1,3.5h-0.9c-0.1-1.6-0.6-2.6-1.4-3.4c-1.2-1.2-3.1-1.7-5.4-1.7c-5.6,0-6.9,2.7-6.9,5.6
			c0,3.3,1.7,4.4,5.2,6.7l3.3,2.2c3.4,2.3,6.7,4.2,6.7,9.7C152,46.8,142.3,47,140.2,47z"/>
		<path class="st2" d="M166.3,47.2c-3.9,0-5.7-1.4-6.6-4.2c-0.4-1.2-0.4-3.6-0.4-5c0-4.9,0.1-8.6,0.1-13.5H156v-0.5
			c1.6-0.6,2.3-1.1,3-1.7c1.7-1.4,4.3-5.6,4.3-5.6h0.7v5.7h8.7v2.1H164v14c0,3.9,0.6,6.4,5,6.4c1.9,0,3.4-0.8,3.4-0.8l0.3,0.8
			C172.7,44.9,170.7,47.2,166.3,47.2z"/>
		<path class="st2" d="M192.5,47c-2.1,0-3.5-1.2-3.5-3.3c-0.8,1.1-2.8,3.4-6.8,3.4c-6.8,0-6.9-5.3-6.9-6.3c0-1.4,0.4-4.8,4.7-6
			c2.1-0.6,5.7-0.8,8.9-0.8v-2.3c0-1.6,0-3.5-0.3-4.5c-0.8-2.3-2.6-3.1-4.9-3.1c-3.8,0-5.3,2.8-5.4,3l-0.8-0.5c0.5-1.7,2.8-5,8.1-5
			c3.8,0,5.7,1.2,6.9,3c1,1.6,1.1,3.8,1.1,6.3c0,3.7-0.2,8.1-0.2,9.9c0,1.6,0,3.4,2.1,3.4c0.5,0,0.9-0.1,1.2-0.4l0.5,0.6
			C195.8,46.1,194.5,47,192.5,47z M188.8,35.5c-3.6,0.2-5.2,0.4-6.4,0.9c-2,0.9-2.5,2.4-2.5,4c0,0.9,0.2,4.2,4.3,4.2
			c2.9,0,4.4-1.3,4.6-1.4V35.5z"/>
		<path class="st2" d="M210.3,47.2c-3.9,0-5.7-1.4-6.6-4.2c-0.4-1.2-0.4-3.6-0.4-5c0-4.9,0.1-8.6,0.1-13.5h-3.4v-0.5
			c1.6-0.6,2.3-1.1,3-1.7c1.7-1.4,4.3-5.6,4.3-5.6h0.7v5.7h8.7v2.1h-8.7v14c0,3.9,0.6,6.4,5,6.4c1.9,0,3.4-0.8,3.4-0.8l0.3,0.8
			C216.8,44.9,214.8,47.2,210.3,47.2z"/>
		<path class="st2" d="M224.4,32.8v0.1c0,1.3,0.1,2.5,0.3,3.7c1.2,7.1,6.2,7.7,8.9,7.7c2.1,0,4.1-0.4,5.9-1.3l0.4,0.7
			c-1.7,2.1-5.3,3.4-8.7,3.4c-8.2,0-11.4-5.1-11.4-12c0-4.2,1.8-13.4,11.5-13.4c3.9,0,6.4,1.8,7.6,3.6c1.3,2.1,1.6,4.3,1.6,6.7v0.9
			H224.4z M235.5,30.6c0-2.1-0.1-7-5.5-7c-5.2,0-5.5,5.5-5.5,7.5h11.1V30.6z"/>
		<path class="st2" d="M251.9,47c-3.5,0-5.8-0.8-6.4-1V45c0-2.5-0.1-3.3-0.3-4.8h0.9c0.1,1.8,0.9,2.8,1.2,3.2
			c1.3,1.6,2.8,1.9,4.9,1.9c0.9,0,4.8,0.1,4.8-4c0-2.2-1.4-3.1-3.5-4.4l-3.6-2.3c-1.9-1.2-3.9-2.8-3.9-6.1c0-1.6,0.3-4.3,3.4-5.8
			c1.3-0.6,3.2-0.9,4.9-0.9c3.3,0,6.2,0.5,6.2,0.5c-0.1,0.6-0.2,2.8-0.2,2.8c0.1,1.4,0,1.9,0.1,2.7h-0.9c-0.1-1.4-0.7-2.3-1-2.7
			c-0.3-0.4-1.6-1.7-4.2-1.7c-4.3,0-4.4,2.9-4.4,3.8c0,2.1,1.7,3.1,3,3.9l3.4,2c2.3,1.3,4.9,2.9,4.9,6.7
			C261.1,45.9,255.7,47,251.9,47z"/>
		<path class="st2" d="M288.2,47.3c-7.8,0-11.9-5-11.9-12.5c0-5.9,3.1-13.1,12.5-13.1c7.8,0,11.9,5,11.9,12.5
			C300.6,40,297.6,47.3,288.2,47.3z M288.5,23.5c-0.5,0-2.5,0-4,1.3c-1.7,1.4-3.3,4.1-3.3,9.7c0,3,0.9,10.8,7.1,10.8
			c0.5,0,2.5,0,4-1.3c1.7-1.4,3.3-4.1,3.3-9.7C295.7,31.4,294.8,23.5,288.5,23.5z"/>
		<path class="st2" d="M322.7,12.8h-0.5c-0.9-2-2.1-3.3-4.5-3.3c-0.9,0-2.1,0.3-3,1.1c-1.3,1.3-1.4,3.2-1.4,6.4v5.5h5.7v2.1h-5.7
			v14.7c0,3.4,0.1,4.6,0.6,5.4c0.9,1.3,3.2,1.4,4,1.4v0.9c-2.1-0.1-4.6-0.2-6.4-0.2c-1.9,0-4.1,0-6.4,0.2V46
			c0.7-0.1,1.8-0.3,2.6-1.2c0.9-1,1-2.5,1-7.1V24.5h-3.3v-0.5c1.6-0.6,2.6-1.2,3.3-1.8c0-2,0.1-5.3,0.4-6.9c0.4-2.3,1.8-7.5,9.7-7.5
			c2.6,0,4.7,0.8,5.8,1.7v0.5L322.7,12.8z"/>
		<path class="st2" d="M340.6,13.3c-0.9,1-1,2.5-1,7.1v26.6c0,1.2,0.1,4.7-0.3,6.2c-1.3,6.3-6.3,7.3-10,7.3l-0.1-0.9
			c3.1-0.6,5.1-2.3,5.4-6.9c0.1-1.8,0.1-5,0.1-9.9V18.9c0-4.1-0.2-5-1.1-5.9c-0.4-0.4-1.3-0.8-2.3-0.9v-0.8c2.1,0.1,4,0.2,5.8,0.2
			s3.7,0,6-0.2v0.8C342.6,12.2,341.4,12.4,340.6,13.3z"/>
		<path class="st2" d="M351.5,32.8v0.1c0,1.3,0.1,2.5,0.3,3.7c1.2,7.1,6.2,7.7,8.9,7.7c2.1,0,4.1-0.4,5.9-1.3l0.4,0.7
			c-1.7,2.1-5.3,3.4-8.7,3.4c-8.2,0-11.4-5.1-11.4-12c0-4.2,1.8-13.4,11.5-13.4c3.9,0,6.4,1.8,7.6,3.6c1.3,2.1,1.6,4.3,1.6,6.7v0.9
			H351.5z M362.6,30.6c0-2.1-0.1-7-5.5-7c-5.2,0-5.5,5.5-5.5,7.5h11.1V30.6z"/>
		<path class="st2" d="M388.5,27.2h-0.4c-0.4-0.6-1.6-2.3-4.6-2.3c-1.4,0-2.5,0.4-3.3,1.1v13.1c0,3.4,0.1,4.6,0.6,5.4
			c0.9,1.3,3.2,1.4,4,1.4v0.9c-2.1-0.1-4.6-0.2-6.4-0.2c-1.9,0-4.1,0-6.4,0.2V46c0.7-0.1,1.8-0.3,2.6-1.2c0.9-1,1-2.5,1-7.1v-7.3
			c0-3.4-0.1-4.7-0.6-5.5c-0.8-1.1-2.3-1.1-2.9-1.1v-0.9c0.7,0.1,3-0.1,5.2-0.5c1-0.2,2-0.4,2.6-0.6l0.2,0.2v3.3
			c0.6-0.8,2.7-3.2,6.4-3.2c2.3,0,3.4,0.8,3.9,1.3v0.4L388.5,27.2z"/>
		<path class="st2" d="M400,47c-3.5,0-5.8-0.8-6.4-1V45c0-2.5-0.1-3.3-0.3-4.8h0.9c0.1,1.8,0.9,2.8,1.2,3.2c1.3,1.6,2.8,1.9,4.9,1.9
			c0.9,0,4.8,0.1,4.8-4c0-2.2-1.4-3.1-3.5-4.4l-3.6-2.3c-1.9-1.2-3.9-2.8-3.9-6.1c0-1.6,0.3-4.3,3.4-5.8c1.3-0.6,3.2-0.9,4.9-0.9
			c3.3,0,6.2,0.5,6.2,0.5c-0.1,0.6-0.2,2.8-0.2,2.8c0.1,1.4,0,1.9,0.1,2.7h-0.9c-0.1-1.4-0.7-2.3-1-2.7c-0.3-0.4-1.6-1.7-4.2-1.7
			c-4.3,0-4.4,2.9-4.4,3.8c0,2.1,1.7,3.1,3,3.9l3.4,2c2.3,1.3,4.9,2.9,4.9,6.7C409.3,45.9,403.9,47,400,47z"/>
		<path class="st2" d="M418.9,32.8v0.1c0,1.3,0.1,2.5,0.3,3.7c1.2,7.1,6.2,7.7,8.9,7.7c2.1,0,4.1-0.4,5.9-1.3l0.4,0.7
			c-1.7,2.1-5.3,3.4-8.7,3.4c-8.2,0-11.4-5.1-11.4-12c0-4.2,1.8-13.4,11.5-13.4c3.9,0,6.4,1.8,7.6,3.6c1.3,2.1,1.6,4.3,1.6,6.7v0.9
			H418.9z M430,30.6c0-2.1-0.1-7-5.5-7c-5.2,0-5.5,5.5-5.5,7.5H430V30.6z"/>
		<path class="st2" d="M460.3,24.6c-0.3,0.5-0.9,1.9-1,2.4l-9.7,25.9c-1.5,4-3.2,8.2-9.6,8.2c-2.6,0-4.3-0.6-5.6-1.8v-0.5l1.8-2.5
			h0.5c1.1,2,3.1,2.3,4.2,2.3c3.6,0,5-3.3,7.1-8.6l0.6-1.7L440.3,27c-0.2-0.5-0.8-1.9-1-2.4c-0.3-0.5-0.9-1.6-2.5-1.6v-0.8
			c1.5,0.1,3.7,0.2,5.2,0.2c1.4,0,3.9-0.2,5.4-0.2v0.8c-0.3,0-1.5,0.1-2.2,0.7c-0.3,0.3-0.5,0.6-0.5,1.1c0,0.7,0.3,1.7,0.9,3.1
			l3.6,9.7c1.2,3.1,1.7,5.1,1.7,5.1l5-14.8c0.5-1.6,0.8-2.4,0.8-3.1c0-0.5-0.2-0.8-0.5-1.1c-0.5-0.5-1.6-0.7-2.1-0.7v-0.8
			c1.5,0.1,2.8,0.2,4.3,0.2c1.4,0,3.1-0.1,4.6-0.2v0.8C461.2,22.9,460.4,24.4,460.3,24.6z"/>
	</g>
	<g>
		<path class="st2" d="M138.2,94.4c-2.6,0-4.5-0.3-6.4-0.9v-1.1c0-1.9-0.1-2.7-0.2-3.9h0.7c0,0.9,0.4,1.9,1,2.6
			c0.9,1.1,2.6,1.7,4.5,1.7c2.9,0,5.9-0.8,5.9-4.9c0-3-1.9-4.1-4.4-5.8l-2.4-1.6c-3.1-2-4.7-3.6-4.7-7c0-1.4,0.4-6.8,8.5-6.8
			c3.4,0,6,0.5,6,0.5s-0.1,1.1-0.1,2.3c0,1,0,1.8,0.1,2.7h-0.7c-0.1-1.2-0.5-2-1.1-2.6c-0.9-0.9-2.4-1.3-4.2-1.3
			c-4.3,0-5.3,2.1-5.3,4.3c0,2.5,1.3,3.4,4,5.2l2.6,1.7c2.6,1.8,5.2,3.2,5.2,7.4C147.3,94.2,139.9,94.4,138.2,94.4z"/>
		<path class="st2" d="M158.3,94.5c-3,0-4.4-1.1-5.1-3.2c-0.3-0.9-0.3-2.8-0.3-3.9c0-3.8,0-6.6,0.1-10.4h-2.6v-0.4
			c1.2-0.5,1.7-0.8,2.3-1.3C154,74.2,156,71,156,71h0.5v4.4h6.7v1.6h-6.7v10.7c0,3,0.5,5,3.8,5c1.5,0,2.6-0.6,2.6-0.6l0.2,0.6
			C163.2,92.8,161.7,94.5,158.3,94.5z"/>
		<path class="st2" d="M178.4,94.4c-1.7,0-2.7-0.9-2.7-2.6c-0.6,0.8-2.2,2.6-5.2,2.6c-5.2,0-5.3-4.1-5.3-4.9c0-1.1,0.3-3.7,3.6-4.6
			c1.6-0.5,4.4-0.6,6.8-0.6v-1.7c0-1.2,0-2.7-0.2-3.5c-0.6-1.7-2-2.4-3.8-2.4c-2.9,0-4.1,2.2-4.1,2.3l-0.6-0.4
			c0.4-1.3,2.2-3.8,6.2-3.8c2.9,0,4.4,0.9,5.3,2.3c0.7,1.2,0.8,2.9,0.8,4.9c0,2.8-0.1,6.2-0.1,7.6c0,1.2,0,2.6,1.7,2.6
			c0.4,0,0.7-0.1,0.9-0.3l0.4,0.5C181,93.7,180,94.4,178.4,94.4z M175.6,85.5c-2.8,0.1-4,0.3-4.9,0.7c-1.6,0.7-1.9,1.9-1.9,3.1
			c0,0.7,0.1,3.3,3.3,3.3c2.2,0,3.4-1,3.5-1.1V85.5z"/>
		<path class="st2" d="M192.2,94.5c-3,0-4.4-1.1-5.1-3.2c-0.3-0.9-0.3-2.8-0.3-3.9c0-3.8,0-6.6,0.1-10.4h-2.6v-0.4
			c1.2-0.5,1.7-0.8,2.3-1.3c1.3-1.1,3.3-4.3,3.3-4.3h0.5v4.4h6.7v1.6h-6.7v10.7c0,3,0.5,5,3.8,5c1.5,0,2.6-0.6,2.6-0.6l0.2,0.6
			C197.1,92.8,195.6,94.5,192.2,94.5z"/>
		<path class="st2" d="M203,83.5L203,83.5c0,1.1,0,2,0.2,2.9c0.9,5.4,4.8,5.9,6.9,5.9c1.7,0,3.1-0.3,4.5-1l0.3,0.5
			c-1.3,1.6-4,2.6-6.7,2.6c-6.3,0-8.8-3.9-8.8-9.2c0-3.3,1.4-10.3,8.9-10.3c3,0,5,1.4,5.8,2.8c1,1.7,1.2,3.3,1.2,5.1v0.7H203z
			 M211.5,81.8c0-1.6-0.1-5.4-4.3-5.4c-4,0-4.3,4.3-4.3,5.7h8.5V81.8z"/>
		<path class="st2" d="M224.1,94.4c-2.7,0-4.5-0.6-4.9-0.8v-0.8c0-1.9-0.1-2.6-0.2-3.7h0.7c0.1,1.4,0.7,2.2,0.9,2.4
			c1,1.2,2.2,1.4,3.8,1.4c0.7,0,3.7,0,3.7-3.1c0-1.7-1.1-2.4-2.7-3.4l-2.8-1.7c-1.5-0.9-3-2.2-3-4.7c0-1.2,0.2-3.3,2.6-4.5
			c1-0.5,2.5-0.7,3.8-0.7c2.6,0,4.7,0.4,4.7,0.4c-0.1,0.5-0.1,2.1-0.1,2.2c0,1.1,0,1.5,0.1,2.1H230c0-1.1-0.5-1.7-0.8-2.1
			c-0.2-0.3-1.2-1.3-3.2-1.3c-3.3,0-3.4,2.2-3.4,2.9c0,1.7,1.3,2.4,2.3,3l2.6,1.6c1.8,1,3.8,2.2,3.8,5.2
			C231.3,93.6,227.1,94.4,224.1,94.4z"/>
		<path class="st2" d="M262.3,94.1c-1.1,0-3.1,0.1-4.3,0.2v-0.6c0.6,0,1.3-0.2,1.7-0.5c0.2-0.2,0.4-0.5,0.4-0.9
			c0-0.5-0.3-1.5-0.7-2.4l-2.4-6.8h-8.5l-2.6,6.8c-0.3,0.9-0.7,1.9-0.7,2.4c0,0.4,0.1,0.7,0.4,0.9c0.4,0.4,1,0.5,1.7,0.5v0.6
			c0,0-2.6-0.2-3.7-0.2c-1.1,0-2.2,0-3.3,0.2v-0.6c1.5-0.1,2-1.2,2.1-1.4c0.2-0.2,0.7-1.5,1.4-3.2l9.3-22.1l1.8-0.3l8,22
			c0.7,2.1,1.2,3.3,1.5,3.8c0.1,0.2,0.6,1.3,2.1,1.4v0.6C265.3,94.2,263.5,94.1,262.3,94.1z M254.3,75.5c-0.9-2.6-1.4-4-1.4-4
			l-3.8,9.7h7.2L254.3,75.5z"/>
		<path class="st2" d="M273,94.4c-2.7,0-4.5-0.6-4.9-0.8v-0.8c0-1.9-0.1-2.6-0.2-3.7h0.7c0.1,1.4,0.7,2.2,0.9,2.4
			c1,1.2,2.2,1.4,3.8,1.4c0.7,0,3.7,0,3.7-3.1c0-1.7-1.1-2.4-2.7-3.4l-2.8-1.7c-1.5-0.9-3-2.2-3-4.7c0-1.2,0.2-3.3,2.6-4.5
			c1-0.5,2.5-0.7,3.8-0.7c2.6,0,4.7,0.4,4.7,0.4c-0.1,0.5-0.1,2.1-0.1,2.2c0,1.1,0,1.5,0.1,2.1h-0.7c0-1.1-0.5-1.7-0.8-2.1
			c-0.2-0.3-1.2-1.3-3.2-1.3c-3.3,0-3.4,2.2-3.4,2.9c0,1.7,1.3,2.4,2.3,3l2.6,1.6c1.8,1,3.8,2.2,3.8,5.2
			C280.1,93.6,275.9,94.4,273,94.4z"/>
		<path class="st2" d="M289.2,94.4c-2.7,0-4.5-0.6-4.9-0.8v-0.8c0-1.9-0.1-2.6-0.2-3.7h0.7c0.1,1.4,0.7,2.2,0.9,2.4
			c1,1.2,2.2,1.4,3.8,1.4c0.7,0,3.7,0,3.7-3.1c0-1.7-1.1-2.4-2.7-3.4l-2.8-1.7c-1.5-0.9-3-2.2-3-4.7c0-1.2,0.2-3.3,2.6-4.5
			c1-0.5,2.5-0.7,3.8-0.7c2.6,0,4.7,0.4,4.7,0.4c-0.1,0.5-0.1,2.1-0.1,2.2c0,1.1,0,1.5,0.1,2.1h-0.7c0-1.1-0.5-1.7-0.8-2.1
			c-0.2-0.3-1.2-1.3-3.2-1.3c-3.3,0-3.4,2.2-3.4,2.9c0,1.7,1.3,2.4,2.3,3l2.6,1.6c1.8,1,3.8,2.2,3.8,5.2
			C296.4,93.6,292.2,94.4,289.2,94.4z"/>
		<path class="st2" d="M303.8,83.5L303.8,83.5c0,1.1,0,2,0.2,2.9c0.9,5.4,4.8,5.9,6.9,5.9c1.7,0,3.1-0.3,4.5-1l0.3,0.5
			c-1.3,1.6-4,2.6-6.7,2.6c-6.3,0-8.8-3.9-8.8-9.2c0-3.3,1.4-10.3,8.9-10.3c3,0,5,1.4,5.8,2.8c1,1.7,1.2,3.3,1.2,5.1v0.7H303.8z
			 M312.3,81.8c0-1.6-0.1-5.4-4.3-5.4c-4,0-4.3,4.3-4.3,5.7h8.5V81.8z"/>
		<path class="st2" d="M348.4,94.1c-1.4,0-2.8,0-4.5,0.2v-0.6c0.8-0.1,1.5-0.4,1.9-0.8c0.9-0.9,0.8-2.2,0.9-3.9c0-0.7,0-2.3,0-3.5
			c0-3.9-0.1-5.6-1-6.9c-0.3-0.5-1.4-1.7-3.7-1.7c-1.9,0-3.3,0.7-4.5,1.5c0.2,0.3,0.2,0.8,0.3,0.9c0.2,0.7,0.2,2.1,0.2,3.3v5.7
			c0,3.3,0.1,3.8,0.9,4.5c0.4,0.4,1.2,0.6,1.8,0.7v0.6c-1.6-0.1-3-0.2-4.4-0.2s-2.7,0-4.5,0.2v-0.6c0.8-0.1,1.4-0.4,1.8-0.8
			c0.9-0.9,0.8-2.2,0.9-3.9c0-0.7,0-2.3,0-3.5c0-1.7,0-3.4-0.2-5c-0.2-1.7-1.3-3.6-4.4-3.6c-0.5,0-2.4,0.1-3.9,1v10.6
			c0,3.3,0.1,3.8,0.9,4.5c0.4,0.4,1.2,0.6,1.8,0.7v0.6c-1.6-0.1-3-0.2-4.4-0.2c-1.4,0-2.8,0-4.5,0.2v-0.6c0.5,0,1.4-0.2,2-0.9
			c0.7-0.8,0.7-1.9,0.7-5.5v-5.6c0-2.6,0-3.6-0.5-4.2c-0.6-0.8-1.8-0.8-2.2-0.9v-0.7c0.5,0,2.3,0,4-0.4c0.8-0.1,1.6-0.3,2-0.5
			l0.2,0.1v2.2c0.3-0.3,2.7-2.4,6-2.4c3.1,0,4.7,1.4,5.4,2.8c0.9-0.9,3.3-2.8,6.7-2.8c3.6,0,5.5,1.7,6.1,4.3
			c0.2,0.7,0.2,2.3,0.2,3.4v5.8c0,3.3,0.1,3.8,0.9,4.5c0.4,0.4,1.2,0.6,1.8,0.7v0.6C351.2,94.2,349.8,94.1,348.4,94.1z"/>
		<path class="st2" d="M374.6,89.2c-1.5,3.2-4.6,5.4-9,5.4c-1.9,0-4.1-0.5-5.7-1.4l-2.1,1.4l-0.2-0.1c0.2-1.5,0.2-4.5,0.2-7.7V70.7
			c0-2.6,0-3.6-0.5-4.2c-0.5-0.8-1.7-0.8-2.2-0.9V65c0.5,0,2.5-0.1,4.2-0.4c0.8-0.2,1.6-0.3,2.1-0.5l0.1,0.1
			c-0.1,1.5-0.2,4.5-0.2,7.7v5.3c0.2-0.2,2.2-2.3,5.8-2.3c5.3,0,8.5,3.8,8.5,9.1C375.6,86.1,375.2,87.8,374.6,89.2z M365.1,76.9
			c-0.2,0-2.1-0.1-3.7,1v13.5c0.2,0.2,1.4,1.6,4.3,1.6c5.2,0,6.1-4.7,6.1-8.4C371.8,83,371.5,76.9,365.1,76.9z"/>
		<path class="st2" d="M383.8,94.1c-1.4,0-3,0-4.7,0.2v-0.6c0.7-0.1,1.6-0.2,2.2-0.9c0.7-0.8,0.7-2,0.7-5.5V70.7
			c0-2.6,0-3.6-0.5-4.2c-0.6-0.8-1.8-0.8-2.2-0.9V65c0.5,0,2.5-0.1,4.2-0.4c0.8-0.2,1.6-0.3,2.1-0.5l0.1,0.1
			c-0.1,1.5-0.2,4.5-0.2,7.7v16.6c0,3.3,0.1,3.8,0.9,4.5c0.4,0.4,1.4,0.6,2,0.7v0.6C386.8,94.2,385.2,94.1,383.8,94.1z"/>
		<path class="st2" d="M407.6,77.1c-0.2,0.4-0.7,1.5-0.8,1.9l-7.4,19.9c-1.2,3.1-2.5,6.3-7.4,6.3c-2,0-3.3-0.5-4.3-1.4v-0.4l1.4-1.9
			h0.4c0.8,1.6,2.4,1.7,3.2,1.7c2.8,0,3.9-2.5,5.4-6.6l0.5-1.3L392.2,79c-0.2-0.4-0.6-1.5-0.8-1.9c-0.2-0.4-0.7-1.2-1.9-1.2v-0.6
			c1.2,0.1,2.8,0.2,4,0.2c1.1,0,3-0.1,4.2-0.2v0.6c-0.2,0-1.2,0.1-1.7,0.5c-0.2,0.2-0.4,0.5-0.4,0.9c0,0.5,0.2,1.3,0.7,2.4l2.8,7.5
			c0.9,2.4,1.3,3.9,1.3,3.9l3.9-11.4c0.4-1.2,0.6-1.8,0.6-2.4c0-0.4-0.1-0.6-0.4-0.9c-0.4-0.4-1.2-0.5-1.7-0.5v-0.6
			c1.2,0,2.1,0.2,3.3,0.2c1.1,0,2.4-0.1,3.6-0.2v0.6C408.3,75.9,407.7,77,407.6,77.1z"/>
	</g>
</g>
</svg>
